G04 #@! TF.GenerationSoftware,KiCad,Pcbnew,8.0.8*
G04 #@! TF.CreationDate,2025-04-08T21:38:23+05:30*
G04 #@! TF.ProjectId,kaage_pi,6b616167-655f-4706-992e-6b696361645f,rev?*
G04 #@! TF.SameCoordinates,Original*
G04 #@! TF.FileFunction,Soldermask,Bot*
G04 #@! TF.FilePolarity,Negative*
%FSLAX46Y46*%
G04 Gerber Fmt 4.6, Leading zero omitted, Abs format (unit mm)*
G04 Created by KiCad (PCBNEW 8.0.8) date 2025-04-08 21:38:23*
%MOMM*%
%LPD*%
G01*
G04 APERTURE LIST*
G04 Aperture macros list*
%AMRoundRect*
0 Rectangle with rounded corners*
0 $1 Rounding radius*
0 $2 $3 $4 $5 $6 $7 $8 $9 X,Y pos of 4 corners*
0 Add a 4 corners polygon primitive as box body*
4,1,4,$2,$3,$4,$5,$6,$7,$8,$9,$2,$3,0*
0 Add four circle primitives for the rounded corners*
1,1,$1+$1,$2,$3*
1,1,$1+$1,$4,$5*
1,1,$1+$1,$6,$7*
1,1,$1+$1,$8,$9*
0 Add four rect primitives between the rounded corners*
20,1,$1+$1,$2,$3,$4,$5,0*
20,1,$1+$1,$4,$5,$6,$7,0*
20,1,$1+$1,$6,$7,$8,$9,0*
20,1,$1+$1,$8,$9,$2,$3,0*%
G04 Aperture macros list end*
%ADD10C,5.000000*%
%ADD11R,1.350000X1.350000*%
%ADD12O,1.350000X1.350000*%
%ADD13C,2.540000*%
%ADD14R,1.500000X1.500000*%
%ADD15C,1.500000*%
%ADD16C,2.032000*%
%ADD17C,3.599180*%
%ADD18R,1.700000X1.700000*%
%ADD19O,1.700000X1.700000*%
%ADD20C,1.000000*%
%ADD21O,1.900000X1.200000*%
%ADD22C,1.450000*%
%ADD23RoundRect,0.225000X0.225000X0.250000X-0.225000X0.250000X-0.225000X-0.250000X0.225000X-0.250000X0*%
%ADD24RoundRect,0.200000X-0.275000X0.200000X-0.275000X-0.200000X0.275000X-0.200000X0.275000X0.200000X0*%
%ADD25RoundRect,0.225000X0.225000X0.375000X-0.225000X0.375000X-0.225000X-0.375000X0.225000X-0.375000X0*%
%ADD26RoundRect,0.200000X0.275000X-0.200000X0.275000X0.200000X-0.275000X0.200000X-0.275000X-0.200000X0*%
%ADD27RoundRect,0.250000X0.250000X0.475000X-0.250000X0.475000X-0.250000X-0.475000X0.250000X-0.475000X0*%
%ADD28RoundRect,0.250000X0.475000X-0.250000X0.475000X0.250000X-0.475000X0.250000X-0.475000X-0.250000X0*%
%ADD29RoundRect,0.200000X0.200000X0.275000X-0.200000X0.275000X-0.200000X-0.275000X0.200000X-0.275000X0*%
%ADD30RoundRect,0.250000X-0.475000X0.250000X-0.475000X-0.250000X0.475000X-0.250000X0.475000X0.250000X0*%
%ADD31R,1.300000X0.300000*%
%ADD32R,2.200000X1.800000*%
%ADD33RoundRect,0.250000X-0.250000X-0.475000X0.250000X-0.475000X0.250000X0.475000X-0.250000X0.475000X0*%
%ADD34R,1.200000X1.400000*%
%ADD35RoundRect,0.225000X0.250000X-0.225000X0.250000X0.225000X-0.250000X0.225000X-0.250000X-0.225000X0*%
%ADD36RoundRect,0.225000X-0.225000X-0.250000X0.225000X-0.250000X0.225000X0.250000X-0.225000X0.250000X0*%
%ADD37RoundRect,0.225000X-0.250000X0.225000X-0.250000X-0.225000X0.250000X-0.225000X0.250000X0.225000X0*%
%ADD38RoundRect,0.200000X-0.200000X-0.275000X0.200000X-0.275000X0.200000X0.275000X-0.200000X0.275000X0*%
%ADD39RoundRect,0.250000X0.450000X-0.262500X0.450000X0.262500X-0.450000X0.262500X-0.450000X-0.262500X0*%
%ADD40RoundRect,0.218750X0.218750X0.256250X-0.218750X0.256250X-0.218750X-0.256250X0.218750X-0.256250X0*%
%ADD41RoundRect,0.250000X0.650000X-0.325000X0.650000X0.325000X-0.650000X0.325000X-0.650000X-0.325000X0*%
G04 APERTURE END LIST*
D10*
X184250000Y-125000000D03*
D11*
X175250000Y-118750000D03*
D12*
X173250000Y-118750000D03*
X171250000Y-118750000D03*
X169250000Y-118750000D03*
D13*
X177049600Y-111150480D03*
X177049600Y-95750460D03*
D14*
X173699340Y-107899280D03*
D15*
X171149180Y-106700400D03*
X173699340Y-105399920D03*
X171149180Y-104099440D03*
X173699340Y-102900560D03*
X171149180Y-101600080D03*
X173699340Y-100299600D03*
X171149180Y-99100720D03*
D16*
X185049840Y-110149720D03*
X185049840Y-107599560D03*
X185049840Y-99400440D03*
X185049840Y-96850280D03*
D17*
X180049340Y-109199760D03*
X180001080Y-97800240D03*
D18*
X146350000Y-124290000D03*
D19*
X146350000Y-121750000D03*
X143810000Y-124290000D03*
X143810000Y-121750000D03*
X141270000Y-124290000D03*
X141270000Y-121750000D03*
X138730000Y-124290000D03*
X138730000Y-121750000D03*
X136190000Y-124290000D03*
X136190000Y-121750000D03*
X133650000Y-124290000D03*
X133650000Y-121750000D03*
X131110000Y-124290000D03*
X131110000Y-121750000D03*
D18*
X178025000Y-64750000D03*
D19*
X175485000Y-64750000D03*
D11*
X175250000Y-125500000D03*
D12*
X173250000Y-125500000D03*
X171250000Y-125500000D03*
X169250000Y-125500000D03*
D18*
X182750000Y-60500000D03*
D19*
X185290000Y-60500000D03*
D20*
X158250000Y-76800000D03*
X158250000Y-78700000D03*
D21*
X186080000Y-71470000D03*
D22*
X183380000Y-70470000D03*
X183380000Y-65470000D03*
D21*
X186080000Y-64470000D03*
D10*
X117500000Y-125000000D03*
X117280000Y-54040000D03*
X184250000Y-54000000D03*
D23*
X160275000Y-97000000D03*
X158725000Y-97000000D03*
D24*
X165000000Y-90175000D03*
X165000000Y-91825000D03*
D25*
X125400000Y-66250000D03*
X122100000Y-66250000D03*
D26*
X167500000Y-100575000D03*
X167500000Y-98925000D03*
D27*
X159950000Y-92750000D03*
X158050000Y-92750000D03*
D28*
X149750000Y-90450000D03*
X149750000Y-88550000D03*
D29*
X177575000Y-89500000D03*
X175925000Y-89500000D03*
D30*
X125500000Y-108600000D03*
X125500000Y-110500000D03*
X156000000Y-108550000D03*
X156000000Y-110450000D03*
D31*
X121800000Y-110000000D03*
X121800000Y-109500000D03*
X121800000Y-109000000D03*
X121800000Y-108500000D03*
X121800000Y-108000000D03*
X121800000Y-107500000D03*
X121800000Y-107000000D03*
X121800000Y-106500000D03*
X121800000Y-106000000D03*
X121800000Y-105500000D03*
X121800000Y-105000000D03*
X121800000Y-104500000D03*
X121800000Y-104000000D03*
X121800000Y-103500000D03*
X121800000Y-103000000D03*
X121800000Y-102500000D03*
X121800000Y-102000000D03*
X121800000Y-101500000D03*
X121800000Y-101000000D03*
X121800000Y-100500000D03*
X121800000Y-100000000D03*
X121800000Y-99500000D03*
X121800000Y-99000000D03*
X121800000Y-98500000D03*
X121800000Y-98000000D03*
X121800000Y-97500000D03*
X121800000Y-97000000D03*
X121800000Y-96500000D03*
X121800000Y-96000000D03*
X121800000Y-95500000D03*
X121800000Y-95000000D03*
X121800000Y-94500000D03*
X121800000Y-94000000D03*
X121800000Y-93500000D03*
X121800000Y-93000000D03*
X121800000Y-92500000D03*
X121800000Y-92000000D03*
X121800000Y-91500000D03*
X121800000Y-91000000D03*
X121800000Y-90500000D03*
D32*
X118550000Y-111900000D03*
X118550000Y-88600000D03*
D27*
X157450000Y-103750000D03*
X155550000Y-103750000D03*
D23*
X158300000Y-74750000D03*
X156750000Y-74750000D03*
D33*
X148550000Y-103000000D03*
X150450000Y-103000000D03*
D34*
X159600000Y-99000000D03*
X159600000Y-101200000D03*
X157900000Y-101200000D03*
X157900000Y-99000000D03*
D26*
X167500000Y-108075000D03*
X167500000Y-106425000D03*
D30*
X151250000Y-107750000D03*
X151250000Y-109650000D03*
D35*
X156250000Y-101500000D03*
X156250000Y-99950000D03*
D36*
X158225000Y-81000000D03*
X159775000Y-81000000D03*
D35*
X131500000Y-94775000D03*
X131500000Y-93225000D03*
D37*
X153000000Y-107975000D03*
X153000000Y-109525000D03*
D30*
X158750000Y-108800000D03*
X158750000Y-110700000D03*
D38*
X173100000Y-69250000D03*
X174750000Y-69250000D03*
D24*
X167500000Y-103425000D03*
X167500000Y-105075000D03*
D23*
X169275000Y-94000000D03*
X167725000Y-94000000D03*
D37*
X155500000Y-92225000D03*
X155500000Y-93775000D03*
D39*
X160750000Y-78662500D03*
X160750000Y-76837500D03*
D29*
X150575000Y-84500000D03*
X148925000Y-84500000D03*
D30*
X149000000Y-98750000D03*
X149000000Y-100650000D03*
D28*
X153500000Y-103700000D03*
X153500000Y-101800000D03*
D40*
X165787500Y-106500000D03*
X164212500Y-106500000D03*
D29*
X177825000Y-87500000D03*
X176175000Y-87500000D03*
D24*
X168500000Y-86425000D03*
X168500000Y-88075000D03*
D28*
X152000000Y-90450000D03*
X152000000Y-88550000D03*
D37*
X149250000Y-107975000D03*
X149250000Y-109525000D03*
D41*
X127750000Y-60475000D03*
X127750000Y-57525000D03*
D27*
X159950000Y-95000000D03*
X158050000Y-95000000D03*
D36*
X148475000Y-96000000D03*
X150025000Y-96000000D03*
D30*
X147000000Y-98800000D03*
X147000000Y-100700000D03*
D29*
X117900000Y-63250000D03*
X116250000Y-63250000D03*
D35*
X167500000Y-97275000D03*
X167500000Y-95725000D03*
D30*
X161000000Y-108800000D03*
X161000000Y-110700000D03*
D33*
X167800000Y-90750000D03*
X169700000Y-90750000D03*
D30*
X163000000Y-108050000D03*
X163000000Y-109950000D03*
D24*
X167750000Y-82175000D03*
X167750000Y-83825000D03*
M02*
