G04 #@! TF.GenerationSoftware,KiCad,Pcbnew,8.0.8*
G04 #@! TF.CreationDate,2025-04-08T21:38:23+05:30*
G04 #@! TF.ProjectId,kaage_pi,6b616167-655f-4706-992e-6b696361645f,rev?*
G04 #@! TF.SameCoordinates,Original*
G04 #@! TF.FileFunction,Paste,Top*
G04 #@! TF.FilePolarity,Positive*
%FSLAX46Y46*%
G04 Gerber Fmt 4.6, Leading zero omitted, Abs format (unit mm)*
G04 Created by KiCad (PCBNEW 8.0.8) date 2025-04-08 21:38:23*
%MOMM*%
%LPD*%
G01*
G04 APERTURE LIST*
G04 Aperture macros list*
%AMRoundRect*
0 Rectangle with rounded corners*
0 $1 Rounding radius*
0 $2 $3 $4 $5 $6 $7 $8 $9 X,Y pos of 4 corners*
0 Add a 4 corners polygon primitive as box body*
4,1,4,$2,$3,$4,$5,$6,$7,$8,$9,$2,$3,0*
0 Add four circle primitives for the rounded corners*
1,1,$1+$1,$2,$3*
1,1,$1+$1,$4,$5*
1,1,$1+$1,$6,$7*
1,1,$1+$1,$8,$9*
0 Add four rect primitives between the rounded corners*
20,1,$1+$1,$2,$3,$4,$5,0*
20,1,$1+$1,$4,$5,$6,$7,0*
20,1,$1+$1,$6,$7,$8,$9,0*
20,1,$1+$1,$8,$9,$2,$3,0*%
G04 Aperture macros list end*
%ADD10R,1.000000X1.250000*%
%ADD11RoundRect,0.250000X0.475000X-0.250000X0.475000X0.250000X-0.475000X0.250000X-0.475000X-0.250000X0*%
%ADD12R,1.700000X5.700000*%
%ADD13RoundRect,0.200000X0.275000X-0.200000X0.275000X0.200000X-0.275000X0.200000X-0.275000X-0.200000X0*%
%ADD14RoundRect,0.150000X-0.512500X-0.150000X0.512500X-0.150000X0.512500X0.150000X-0.512500X0.150000X0*%
%ADD15RoundRect,0.200000X-0.275000X0.200000X-0.275000X-0.200000X0.275000X-0.200000X0.275000X0.200000X0*%
%ADD16RoundRect,0.200000X-0.200000X-0.275000X0.200000X-0.275000X0.200000X0.275000X-0.200000X0.275000X0*%
%ADD17RoundRect,0.225000X-0.250000X0.225000X-0.250000X-0.225000X0.250000X-0.225000X0.250000X0.225000X0*%
%ADD18RoundRect,0.225000X0.250000X-0.225000X0.250000X0.225000X-0.250000X0.225000X-0.250000X-0.225000X0*%
%ADD19RoundRect,0.250000X-0.475000X0.250000X-0.475000X-0.250000X0.475000X-0.250000X0.475000X0.250000X0*%
%ADD20RoundRect,0.150000X0.150000X-0.512500X0.150000X0.512500X-0.150000X0.512500X-0.150000X-0.512500X0*%
%ADD21RoundRect,0.225000X0.225000X0.250000X-0.225000X0.250000X-0.225000X-0.250000X0.225000X-0.250000X0*%
%ADD22RoundRect,0.150000X-0.650000X-0.150000X0.650000X-0.150000X0.650000X0.150000X-0.650000X0.150000X0*%
%ADD23RoundRect,0.200000X0.200000X0.275000X-0.200000X0.275000X-0.200000X-0.275000X0.200000X-0.275000X0*%
%ADD24RoundRect,0.237500X-0.287500X-0.237500X0.287500X-0.237500X0.287500X0.237500X-0.287500X0.237500X0*%
%ADD25RoundRect,0.225000X-0.225000X-0.250000X0.225000X-0.250000X0.225000X0.250000X-0.225000X0.250000X0*%
%ADD26R,1.350000X0.400000*%
%ADD27R,1.900000X1.500000*%
%ADD28RoundRect,0.250000X0.250000X0.475000X-0.250000X0.475000X-0.250000X-0.475000X0.250000X-0.475000X0*%
%ADD29R,1.600000X0.700000*%
%ADD30R,1.400000X1.200000*%
%ADD31R,2.200000X1.200000*%
%ADD32R,1.400000X1.600000*%
%ADD33RoundRect,0.062500X-0.675000X-0.062500X0.675000X-0.062500X0.675000X0.062500X-0.675000X0.062500X0*%
%ADD34RoundRect,0.062500X-0.062500X-0.675000X0.062500X-0.675000X0.062500X0.675000X-0.062500X0.675000X0*%
%ADD35R,5.720000X5.720000*%
G04 APERTURE END LIST*
D10*
X118500000Y-84250000D03*
X118500000Y-76500000D03*
D11*
X162750000Y-88700000D03*
X162750000Y-86800000D03*
D12*
X119250000Y-69000000D03*
X123750000Y-69000000D03*
D13*
X151500000Y-119825000D03*
X151500000Y-118175000D03*
D14*
X121362500Y-60800000D03*
X121362500Y-61750000D03*
X121362500Y-62700000D03*
X123637500Y-62700000D03*
X123637500Y-61750000D03*
X123637500Y-60800000D03*
D15*
X131250000Y-59350000D03*
X131250000Y-61000000D03*
D16*
X165175000Y-109500000D03*
X166825000Y-109500000D03*
D17*
X122000000Y-83975000D03*
X122000000Y-85525000D03*
D18*
X150000000Y-87525000D03*
X150000000Y-85975000D03*
D12*
X162250000Y-68500000D03*
X166750000Y-68500000D03*
D19*
X154500000Y-59550000D03*
X154500000Y-61450000D03*
D20*
X164800000Y-61637500D03*
X165750000Y-61637500D03*
X166700000Y-61637500D03*
X166700000Y-59362500D03*
X164800000Y-59362500D03*
D21*
X133275000Y-63000000D03*
X131725000Y-63000000D03*
D22*
X154900000Y-116095000D03*
X154900000Y-117365000D03*
X154900000Y-118635000D03*
X154900000Y-119905000D03*
X162100000Y-119905000D03*
X162100000Y-118635000D03*
X162100000Y-117365000D03*
X162100000Y-116095000D03*
D15*
X164500000Y-100425000D03*
X164500000Y-102075000D03*
D16*
X178675000Y-119750000D03*
X180325000Y-119750000D03*
D23*
X151825000Y-81000000D03*
X150175000Y-81000000D03*
D21*
X137775000Y-84750000D03*
X136225000Y-84750000D03*
D13*
X167750000Y-104825000D03*
X167750000Y-103175000D03*
D19*
X139750000Y-59300000D03*
X139750000Y-61200000D03*
D23*
X166825000Y-92500000D03*
X165175000Y-92500000D03*
D18*
X140000000Y-82525000D03*
X140000000Y-80975000D03*
D21*
X162525000Y-63000000D03*
X160975000Y-63000000D03*
D15*
X160750000Y-59425000D03*
X160750000Y-61075000D03*
D24*
X123125000Y-77750000D03*
X124875000Y-77750000D03*
D16*
X122925000Y-82250000D03*
X124575000Y-82250000D03*
D13*
X160750000Y-110325000D03*
X160750000Y-108675000D03*
D23*
X178325000Y-70500000D03*
X176675000Y-70500000D03*
D19*
X172750000Y-59750000D03*
X172750000Y-61650000D03*
D13*
X162750000Y-61075000D03*
X162750000Y-59425000D03*
D21*
X150500000Y-84250000D03*
X148950000Y-84250000D03*
D15*
X126500000Y-83500000D03*
X126500000Y-85150000D03*
D16*
X165425000Y-111250000D03*
X167075000Y-111250000D03*
D25*
X153725000Y-81000000D03*
X155275000Y-81000000D03*
D21*
X147550000Y-86250000D03*
X146000000Y-86250000D03*
D12*
X148000000Y-68500000D03*
X152500000Y-68500000D03*
D21*
X147775000Y-63000000D03*
X146225000Y-63000000D03*
D26*
X183380000Y-69270000D03*
X183380000Y-68620000D03*
X183380000Y-67970000D03*
X183380000Y-67320000D03*
X183380000Y-66670000D03*
D27*
X186080000Y-68970000D03*
X186080000Y-66970000D03*
D15*
X145750000Y-59425000D03*
X145750000Y-61075000D03*
D17*
X163000000Y-108725000D03*
X163000000Y-110275000D03*
D16*
X122925000Y-75500000D03*
X124575000Y-75500000D03*
D17*
X149500000Y-118225000D03*
X149500000Y-119775000D03*
D20*
X135800000Y-82387500D03*
X137700000Y-82387500D03*
X136750000Y-80112500D03*
D13*
X147750000Y-61075000D03*
X147750000Y-59425000D03*
D16*
X178675000Y-117750000D03*
X180325000Y-117750000D03*
D23*
X166825000Y-90750000D03*
X165175000Y-90750000D03*
D28*
X123700000Y-57750000D03*
X121800000Y-57750000D03*
D19*
X157000000Y-59550000D03*
X157000000Y-61450000D03*
D13*
X169750000Y-80325000D03*
X169750000Y-78675000D03*
D19*
X170000000Y-59800000D03*
X170000000Y-61700000D03*
D16*
X161925000Y-112250000D03*
X163575000Y-112250000D03*
D29*
X172850000Y-81550000D03*
X172850000Y-82650000D03*
X172850000Y-83750000D03*
X172850000Y-84850000D03*
X172850000Y-85950000D03*
D30*
X173350000Y-91500000D03*
D31*
X182950000Y-91500000D03*
D29*
X172850000Y-87050000D03*
D32*
X173350000Y-76900000D03*
D31*
X182950000Y-76000000D03*
D29*
X172850000Y-88150000D03*
X172850000Y-89250000D03*
X172850000Y-90350000D03*
D24*
X123125000Y-80000000D03*
X124875000Y-80000000D03*
D20*
X150300000Y-61887500D03*
X151250000Y-61887500D03*
X152200000Y-61887500D03*
X152200000Y-59612500D03*
X150300000Y-59612500D03*
X135550000Y-61637500D03*
X136500000Y-61637500D03*
X137450000Y-61637500D03*
X137450000Y-59362500D03*
X135550000Y-59362500D03*
D33*
X146425000Y-91750000D03*
X146425000Y-92150000D03*
X146425000Y-92550000D03*
X146425000Y-92950000D03*
X146425000Y-93350000D03*
X146425000Y-93750000D03*
X146425000Y-94150000D03*
X146425000Y-94550000D03*
X146425000Y-94950000D03*
X146425000Y-95350000D03*
X146425000Y-95750000D03*
X146425000Y-96150000D03*
X146425000Y-96550000D03*
X146425000Y-96950000D03*
X146425000Y-97350000D03*
X146425000Y-97750000D03*
X146425000Y-98150000D03*
X146425000Y-98550000D03*
X146425000Y-98950000D03*
X146425000Y-99350000D03*
X146425000Y-99750000D03*
X146425000Y-100150000D03*
X146425000Y-100550000D03*
X146425000Y-100950000D03*
X146425000Y-101350000D03*
X146425000Y-101750000D03*
X146425000Y-102150000D03*
X146425000Y-102550000D03*
X146425000Y-102950000D03*
X146425000Y-103350000D03*
X146425000Y-103750000D03*
X146425000Y-104150000D03*
D34*
X147887500Y-105612500D03*
X148287500Y-105612500D03*
X148687500Y-105612500D03*
X149087500Y-105612500D03*
X149487500Y-105612500D03*
X149887500Y-105612500D03*
X150287500Y-105612500D03*
X150687500Y-105612500D03*
X151087500Y-105612500D03*
X151487500Y-105612500D03*
X151887500Y-105612500D03*
X152287500Y-105612500D03*
X152687500Y-105612500D03*
X153087500Y-105612500D03*
X153487500Y-105612500D03*
X153887500Y-105612500D03*
X154287500Y-105612500D03*
X154687500Y-105612500D03*
X155087500Y-105612500D03*
X155487500Y-105612500D03*
X155887500Y-105612500D03*
X156287500Y-105612500D03*
X156687500Y-105612500D03*
X157087500Y-105612500D03*
X157487500Y-105612500D03*
X157887500Y-105612500D03*
X158287500Y-105612500D03*
X158687500Y-105612500D03*
X159087500Y-105612500D03*
X159487500Y-105612500D03*
X159887500Y-105612500D03*
X160287500Y-105612500D03*
D33*
X161750000Y-104150000D03*
X161750000Y-103750000D03*
X161750000Y-103350000D03*
X161750000Y-102950000D03*
X161750000Y-102550000D03*
X161750000Y-102150000D03*
X161750000Y-101750000D03*
X161750000Y-101350000D03*
X161750000Y-100950000D03*
X161750000Y-100550000D03*
X161750000Y-100150000D03*
X161750000Y-99750000D03*
X161750000Y-99350000D03*
X161750000Y-98950000D03*
X161750000Y-98550000D03*
X161750000Y-98150000D03*
X161750000Y-97750000D03*
X161750000Y-97350000D03*
X161750000Y-96950000D03*
X161750000Y-96550000D03*
X161750000Y-96150000D03*
X161750000Y-95750000D03*
X161750000Y-95350000D03*
X161750000Y-94950000D03*
X161750000Y-94550000D03*
X161750000Y-94150000D03*
X161750000Y-93750000D03*
X161750000Y-93350000D03*
X161750000Y-92950000D03*
X161750000Y-92550000D03*
X161750000Y-92150000D03*
X161750000Y-91750000D03*
D34*
X160287500Y-90287500D03*
X159887500Y-90287500D03*
X159487500Y-90287500D03*
X159087500Y-90287500D03*
X158687500Y-90287500D03*
X158287500Y-90287500D03*
X157887500Y-90287500D03*
X157487500Y-90287500D03*
X157087500Y-90287500D03*
X156687500Y-90287500D03*
X156287500Y-90287500D03*
X155887500Y-90287500D03*
X155487500Y-90287500D03*
X155087500Y-90287500D03*
X154687500Y-90287500D03*
X154287500Y-90287500D03*
X153887500Y-90287500D03*
X153487500Y-90287500D03*
X153087500Y-90287500D03*
X152687500Y-90287500D03*
X152287500Y-90287500D03*
X151887500Y-90287500D03*
X151487500Y-90287500D03*
X151087500Y-90287500D03*
X150687500Y-90287500D03*
X150287500Y-90287500D03*
X149887500Y-90287500D03*
X149487500Y-90287500D03*
X149087500Y-90287500D03*
X148687500Y-90287500D03*
X148287500Y-90287500D03*
X147887500Y-90287500D03*
D35*
X154087500Y-97950000D03*
D23*
X178325000Y-68500000D03*
X176675000Y-68500000D03*
D12*
X133000000Y-69000000D03*
X137500000Y-69000000D03*
D19*
X142250000Y-59300000D03*
X142250000Y-61200000D03*
D13*
X133250000Y-61000000D03*
X133250000Y-59350000D03*
M02*
