G04 #@! TF.GenerationSoftware,KiCad,Pcbnew,8.0.8*
G04 #@! TF.CreationDate,2025-04-08T21:38:23+05:30*
G04 #@! TF.ProjectId,kaage_pi,6b616167-655f-4706-992e-6b696361645f,rev?*
G04 #@! TF.SameCoordinates,Original*
G04 #@! TF.FileFunction,Copper,L2,Inr*
G04 #@! TF.FilePolarity,Positive*
%FSLAX46Y46*%
G04 Gerber Fmt 4.6, Leading zero omitted, Abs format (unit mm)*
G04 Created by KiCad (PCBNEW 8.0.8) date 2025-04-08 21:38:23*
%MOMM*%
%LPD*%
G01*
G04 APERTURE LIST*
G04 #@! TA.AperFunction,ComponentPad*
%ADD10C,5.000000*%
G04 #@! TD*
G04 #@! TA.AperFunction,ComponentPad*
%ADD11R,1.350000X1.350000*%
G04 #@! TD*
G04 #@! TA.AperFunction,ComponentPad*
%ADD12O,1.350000X1.350000*%
G04 #@! TD*
G04 #@! TA.AperFunction,ComponentPad*
%ADD13C,2.540000*%
G04 #@! TD*
G04 #@! TA.AperFunction,ComponentPad*
%ADD14R,1.500000X1.500000*%
G04 #@! TD*
G04 #@! TA.AperFunction,ComponentPad*
%ADD15C,1.500000*%
G04 #@! TD*
G04 #@! TA.AperFunction,ComponentPad*
%ADD16C,2.032000*%
G04 #@! TD*
G04 #@! TA.AperFunction,ComponentPad*
%ADD17C,3.599180*%
G04 #@! TD*
G04 #@! TA.AperFunction,ComponentPad*
%ADD18R,1.700000X1.700000*%
G04 #@! TD*
G04 #@! TA.AperFunction,ComponentPad*
%ADD19O,1.700000X1.700000*%
G04 #@! TD*
G04 #@! TA.AperFunction,ComponentPad*
%ADD20C,1.000000*%
G04 #@! TD*
G04 #@! TA.AperFunction,HeatsinkPad*
%ADD21O,1.900000X1.200000*%
G04 #@! TD*
G04 #@! TA.AperFunction,HeatsinkPad*
%ADD22C,1.450000*%
G04 #@! TD*
G04 #@! TA.AperFunction,ViaPad*
%ADD23C,0.800000*%
G04 #@! TD*
G04 #@! TA.AperFunction,ViaPad*
%ADD24C,0.900000*%
G04 #@! TD*
G04 APERTURE END LIST*
D10*
X184250000Y-125000000D03*
D11*
X175250000Y-118750000D03*
D12*
X173250000Y-118750000D03*
X171250000Y-118750000D03*
X169250000Y-118750000D03*
D13*
X177049600Y-111150480D03*
X177049600Y-95750460D03*
D14*
X173699340Y-107899280D03*
D15*
X171149180Y-106700400D03*
X173699340Y-105399920D03*
X171149180Y-104099440D03*
X173699340Y-102900560D03*
X171149180Y-101600080D03*
X173699340Y-100299600D03*
X171149180Y-99100720D03*
D16*
X185049840Y-110149720D03*
X185049840Y-107599560D03*
X185049840Y-99400440D03*
X185049840Y-96850280D03*
D17*
X180049340Y-109199760D03*
X180001080Y-97800240D03*
D18*
X146350000Y-124290000D03*
D19*
X146350000Y-121750000D03*
X143810000Y-124290000D03*
X143810000Y-121750000D03*
X141270000Y-124290000D03*
X141270000Y-121750000D03*
X138730000Y-124290000D03*
X138730000Y-121750000D03*
X136190000Y-124290000D03*
X136190000Y-121750000D03*
X133650000Y-124290000D03*
X133650000Y-121750000D03*
X131110000Y-124290000D03*
X131110000Y-121750000D03*
D18*
X178025000Y-64750000D03*
D19*
X175485000Y-64750000D03*
D11*
X175250000Y-125500000D03*
D12*
X173250000Y-125500000D03*
X171250000Y-125500000D03*
X169250000Y-125500000D03*
D18*
X182750000Y-60500000D03*
D19*
X185290000Y-60500000D03*
D20*
X158250000Y-76800000D03*
X158250000Y-78700000D03*
D21*
X186080000Y-71470000D03*
D22*
X183380000Y-70470000D03*
X183380000Y-65470000D03*
D21*
X186080000Y-64470000D03*
D10*
X117500000Y-125000000D03*
X117280000Y-54040000D03*
X184250000Y-54000000D03*
D23*
X168000000Y-51500000D03*
D24*
X123500000Y-107750000D03*
D23*
X122250000Y-127000000D03*
X148000000Y-51500000D03*
X158000000Y-127250000D03*
X151000000Y-110747600D03*
X178250000Y-51500000D03*
D24*
X119500000Y-57750000D03*
X118550000Y-114200000D03*
X146000000Y-88000000D03*
D23*
X135500000Y-51500000D03*
X152000000Y-101750000D03*
X171500000Y-92500000D03*
X123500000Y-51500000D03*
X121750000Y-122000000D03*
D24*
X159250000Y-63000000D03*
D23*
X131000000Y-74000000D03*
D24*
X148936095Y-85746113D03*
D23*
X153750000Y-124750000D03*
D24*
X124575000Y-74175000D03*
D23*
X186750000Y-116750000D03*
D24*
X123250000Y-85500000D03*
D23*
X166500000Y-93500000D03*
D24*
X127750000Y-56000000D03*
X118500000Y-74750000D03*
D23*
X166000000Y-74000000D03*
X151750000Y-103000000D03*
D24*
X118550000Y-86300000D03*
X154500000Y-63000000D03*
X139750000Y-63000000D03*
X157000000Y-63000000D03*
D23*
X179500000Y-124250000D03*
X116250000Y-74500000D03*
X152320000Y-98010000D03*
X141000000Y-74000000D03*
X170250000Y-51500000D03*
X152000000Y-51500000D03*
D24*
X140000000Y-79250000D03*
D23*
X168750000Y-95750000D03*
D24*
X134000000Y-84750000D03*
X164750000Y-112750000D03*
D23*
X124000000Y-99750000D03*
X123250000Y-117000000D03*
D24*
X170000000Y-63250000D03*
X130250000Y-63000000D03*
D23*
X179500000Y-126750000D03*
D24*
X180547600Y-66000000D03*
D23*
X122250000Y-124500000D03*
D24*
X142250000Y-63000000D03*
D23*
X162250000Y-51500000D03*
X155900000Y-99260000D03*
D24*
X173350000Y-74350000D03*
D23*
X119250000Y-119500000D03*
X154250000Y-51500000D03*
X150250000Y-51500000D03*
X160000000Y-124750000D03*
X155880000Y-97890000D03*
X131000000Y-76500000D03*
X121250000Y-117000000D03*
D24*
X151250000Y-63500000D03*
D23*
X182950000Y-93450000D03*
X137750000Y-51500000D03*
X152290000Y-96260000D03*
X156000000Y-51500000D03*
X160250000Y-51500000D03*
X115250000Y-119500000D03*
X152370000Y-99620000D03*
X164000000Y-51500000D03*
X116250000Y-72000000D03*
D24*
X155250000Y-74750000D03*
D23*
X124250000Y-122000000D03*
X160000000Y-127250000D03*
D24*
X165750000Y-63500000D03*
D23*
X176000000Y-51500000D03*
X133750000Y-51500000D03*
X152000000Y-124750000D03*
X115250000Y-117000000D03*
D24*
X144250000Y-63000000D03*
D23*
X141000000Y-71500000D03*
D24*
X161500000Y-80000000D03*
D23*
X123250000Y-119500000D03*
X186750000Y-119250000D03*
X152000000Y-127250000D03*
X180250000Y-51500000D03*
X168250000Y-92500000D03*
X158250000Y-51500000D03*
D24*
X182950000Y-74050000D03*
D23*
X166000000Y-51500000D03*
X156000000Y-127250000D03*
X124500000Y-127000000D03*
X146000000Y-51500000D03*
X153750000Y-127250000D03*
D24*
X144250000Y-61000000D03*
D23*
X127500000Y-51500000D03*
X172000000Y-51500000D03*
X170602400Y-87050000D03*
X117000000Y-119500000D03*
D24*
X159250000Y-61000000D03*
D23*
X154280000Y-99520000D03*
X156000000Y-124750000D03*
X117000000Y-117000000D03*
D24*
X136500000Y-63250000D03*
X124000000Y-103750000D03*
X172750000Y-63250000D03*
X125500000Y-112000000D03*
X119500000Y-61750000D03*
D23*
X124250000Y-124500000D03*
X149500000Y-121000000D03*
X128000000Y-91000000D03*
X141750000Y-51500000D03*
X121250000Y-119500000D03*
X158000000Y-124750000D03*
X153000000Y-92750000D03*
D24*
X115000000Y-63250000D03*
X156750000Y-82000000D03*
D23*
X155820000Y-96260000D03*
D24*
X162750000Y-85000000D03*
D23*
X139750000Y-51500000D03*
X144000000Y-51500000D03*
X125500000Y-51500000D03*
X131500000Y-51500000D03*
X174250000Y-51500000D03*
X129750000Y-51500000D03*
D24*
X133637500Y-82387500D03*
X124000000Y-109750000D03*
D23*
X154087500Y-97950000D03*
X163500000Y-74000000D03*
X163750000Y-104750000D03*
X119250000Y-117000000D03*
D24*
X157250000Y-119750000D03*
D23*
X160500000Y-112250000D03*
X154120000Y-96240000D03*
D24*
X129750000Y-61000000D03*
X131500000Y-91500000D03*
D23*
X169750000Y-92500000D03*
D24*
X135250000Y-86500000D03*
D23*
X155500000Y-82500000D03*
X152750000Y-82500000D03*
D24*
X129000000Y-85250000D03*
X161000000Y-86250000D03*
X145000000Y-85500000D03*
X149000000Y-98750000D03*
X149070933Y-93320933D03*
X148000000Y-88000000D03*
D23*
X163280338Y-95380629D03*
X158000000Y-107550962D03*
D24*
X153500000Y-103700000D03*
D23*
X159950000Y-95000000D03*
D24*
X161750000Y-106647600D03*
X144000000Y-68500000D03*
D23*
X157450000Y-103550000D03*
X158750000Y-108800000D03*
X163345200Y-98191289D03*
X164750000Y-97000000D03*
X148550000Y-103000000D03*
D24*
X129000000Y-78750000D03*
D23*
X167750000Y-113000000D03*
X152750000Y-118635000D03*
X155500000Y-92225000D03*
X154687500Y-109500000D03*
D24*
X163500000Y-122750000D03*
X157750000Y-68500000D03*
X148397600Y-96000000D03*
D23*
X159950000Y-92750000D03*
D24*
X128000000Y-83500000D03*
D23*
X165500000Y-115250000D03*
X151750000Y-84500000D03*
X150500000Y-92250000D03*
X152000000Y-92500000D03*
D24*
X165250000Y-84000000D03*
X164000000Y-84250000D03*
X149750000Y-82500000D03*
X146000000Y-82525000D03*
D23*
X171000000Y-84750000D03*
D24*
X171000000Y-78750000D03*
D23*
X159600000Y-99000000D03*
X158000000Y-101200000D03*
D24*
X125250000Y-62000000D03*
X116000000Y-69000000D03*
D23*
X168250000Y-109500000D03*
X168750000Y-111750000D03*
X166250000Y-96500000D03*
X165663683Y-95086317D03*
D24*
X165000000Y-82500000D03*
D23*
X174750000Y-67397600D03*
D24*
X180000000Y-71250000D03*
D23*
X166370000Y-86360000D03*
X157226000Y-86360000D03*
X158010000Y-85050000D03*
X169291000Y-84963000D03*
X167730000Y-80660000D03*
X169440000Y-82720000D03*
X170250000Y-88500000D03*
X166125000Y-87875000D03*
D24*
X156250000Y-85344000D03*
D23*
X171000000Y-90000000D03*
X166250334Y-88852400D03*
D24*
X155500000Y-86685869D03*
D23*
X150250000Y-115500000D03*
X149250000Y-114500000D03*
X150500000Y-113750000D03*
X152250000Y-112750000D03*
X124897600Y-91000000D03*
X124250000Y-91897600D03*
X127000000Y-89102400D03*
X125750000Y-90000000D03*
D24*
X134250000Y-97500000D03*
X136000000Y-96000000D03*
X137250000Y-95000000D03*
X138255245Y-98520980D03*
X138000000Y-90750000D03*
X142000000Y-95500000D03*
X132000000Y-98750000D03*
X138000000Y-96250000D03*
X139000000Y-91500000D03*
X139750000Y-92250000D03*
X119375000Y-63375000D03*
D23*
X128750000Y-92000000D03*
D24*
X137750000Y-101000000D03*
X141250000Y-94000000D03*
X131000000Y-99500000D03*
X138000000Y-97500000D03*
X140500000Y-93250000D03*
X133000000Y-98000000D03*
X137750000Y-99500000D03*
D23*
X127250000Y-95750000D03*
D24*
X135125000Y-96875000D03*
D23*
X128750000Y-94250000D03*
D24*
X129750000Y-93500000D03*
D23*
X164250000Y-119500000D03*
X164250000Y-121750000D03*
G04 #@! TA.AperFunction,Conductor*
G36*
X145884075Y-124097007D02*
G01*
X145850000Y-124224174D01*
X145850000Y-124355826D01*
X145884075Y-124482993D01*
X145916988Y-124540000D01*
X144243012Y-124540000D01*
X144275925Y-124482993D01*
X144310000Y-124355826D01*
X144310000Y-124224174D01*
X144275925Y-124097007D01*
X144243012Y-124040000D01*
X145916988Y-124040000D01*
X145884075Y-124097007D01*
G37*
G04 #@! TD.AperFunction*
G04 #@! TA.AperFunction,Conductor*
G36*
X188142539Y-50070185D02*
G01*
X188188294Y-50122989D01*
X188199500Y-50174500D01*
X188199500Y-128575500D01*
X188179815Y-128642539D01*
X188127011Y-128688294D01*
X188075500Y-128699500D01*
X113424500Y-128699500D01*
X113357461Y-128679815D01*
X113311706Y-128627011D01*
X113300500Y-128575500D01*
X113300500Y-124999996D01*
X114494916Y-124999996D01*
X114494916Y-125000003D01*
X114515235Y-125348869D01*
X114515236Y-125348880D01*
X114575914Y-125693002D01*
X114575916Y-125693011D01*
X114676145Y-126027800D01*
X114814555Y-126348670D01*
X114814561Y-126348683D01*
X114989289Y-126651322D01*
X115197972Y-126931631D01*
X115197976Y-126931636D01*
X115206147Y-126940297D01*
X115206148Y-126940298D01*
X116456320Y-125690125D01*
X116546554Y-125814320D01*
X116685680Y-125953446D01*
X116809873Y-126043678D01*
X115562817Y-127290733D01*
X115562818Y-127290734D01*
X115705480Y-127410442D01*
X115997461Y-127602480D01*
X116309739Y-127759314D01*
X116309745Y-127759316D01*
X116638130Y-127878838D01*
X116638133Y-127878839D01*
X116978171Y-127959429D01*
X117325276Y-127999999D01*
X117325277Y-128000000D01*
X117674723Y-128000000D01*
X117674723Y-127999999D01*
X118021827Y-127959429D01*
X118021829Y-127959429D01*
X118361866Y-127878839D01*
X118361869Y-127878838D01*
X118690254Y-127759316D01*
X118690260Y-127759314D01*
X119002538Y-127602480D01*
X119294515Y-127410445D01*
X119437180Y-127290734D01*
X119437181Y-127290733D01*
X118190126Y-126043678D01*
X118314320Y-125953446D01*
X118453446Y-125814320D01*
X118543679Y-125690126D01*
X119793850Y-126940297D01*
X119802032Y-126931625D01*
X120010710Y-126651322D01*
X120185438Y-126348683D01*
X120185444Y-126348670D01*
X120323854Y-126027800D01*
X120424083Y-125693011D01*
X120424085Y-125693002D01*
X120484763Y-125348880D01*
X120484764Y-125348869D01*
X120505084Y-125000003D01*
X120505084Y-124999996D01*
X120484764Y-124651130D01*
X120484763Y-124651119D01*
X120424085Y-124306997D01*
X120424083Y-124306988D01*
X120323854Y-123972199D01*
X120185444Y-123651329D01*
X120185438Y-123651316D01*
X120010710Y-123348677D01*
X119802029Y-123068371D01*
X119793850Y-123059701D01*
X119793850Y-123059700D01*
X118543678Y-124309872D01*
X118453446Y-124185680D01*
X118314320Y-124046554D01*
X118190125Y-123956320D01*
X119437181Y-122709265D01*
X119437180Y-122709264D01*
X119294519Y-122589557D01*
X119002538Y-122397519D01*
X118690260Y-122240685D01*
X118690254Y-122240683D01*
X118361869Y-122121161D01*
X118361866Y-122121160D01*
X118021828Y-122040570D01*
X117674723Y-122000000D01*
X117325277Y-122000000D01*
X116978172Y-122040570D01*
X116978170Y-122040570D01*
X116638133Y-122121160D01*
X116638130Y-122121161D01*
X116309745Y-122240683D01*
X116309739Y-122240685D01*
X115997461Y-122397519D01*
X115705485Y-122589554D01*
X115562817Y-122709264D01*
X116809874Y-123956320D01*
X116685680Y-124046554D01*
X116546554Y-124185680D01*
X116456320Y-124309873D01*
X115206148Y-123059701D01*
X115206146Y-123059701D01*
X115197973Y-123068366D01*
X114989289Y-123348677D01*
X114814561Y-123651316D01*
X114814555Y-123651329D01*
X114676145Y-123972199D01*
X114575916Y-124306988D01*
X114575914Y-124306997D01*
X114515236Y-124651119D01*
X114515235Y-124651130D01*
X114494916Y-124999996D01*
X113300500Y-124999996D01*
X113300500Y-121749999D01*
X129754341Y-121749999D01*
X129754341Y-121750000D01*
X129774936Y-121985403D01*
X129774938Y-121985413D01*
X129836094Y-122213655D01*
X129836096Y-122213659D01*
X129836097Y-122213663D01*
X129915759Y-122384499D01*
X129935965Y-122427830D01*
X129935967Y-122427834D01*
X130044281Y-122582521D01*
X130071501Y-122621396D01*
X130071506Y-122621402D01*
X130238597Y-122788493D01*
X130238603Y-122788498D01*
X130424594Y-122918730D01*
X130468219Y-122973307D01*
X130475413Y-123042805D01*
X130443890Y-123105160D01*
X130424595Y-123121880D01*
X130238922Y-123251890D01*
X130238920Y-123251891D01*
X130071891Y-123418920D01*
X130071886Y-123418926D01*
X129936400Y-123612420D01*
X129936399Y-123612422D01*
X129836570Y-123826507D01*
X129836567Y-123826513D01*
X129779364Y-124039999D01*
X129779364Y-124040000D01*
X130676988Y-124040000D01*
X130644075Y-124097007D01*
X130610000Y-124224174D01*
X130610000Y-124355826D01*
X130644075Y-124482993D01*
X130676988Y-124540000D01*
X129779364Y-124540000D01*
X129836567Y-124753486D01*
X129836570Y-124753492D01*
X129936399Y-124967578D01*
X130071894Y-125161082D01*
X130238917Y-125328105D01*
X130432421Y-125463600D01*
X130646507Y-125563429D01*
X130646516Y-125563433D01*
X130860000Y-125620634D01*
X130860000Y-124723012D01*
X130917007Y-124755925D01*
X131044174Y-124790000D01*
X131175826Y-124790000D01*
X131302993Y-124755925D01*
X131360000Y-124723012D01*
X131360000Y-125620633D01*
X131573483Y-125563433D01*
X131573492Y-125563429D01*
X131787578Y-125463600D01*
X131981082Y-125328105D01*
X132148105Y-125161082D01*
X132278119Y-124975405D01*
X132332696Y-124931781D01*
X132402195Y-124924588D01*
X132464549Y-124956110D01*
X132481269Y-124975405D01*
X132611505Y-125161401D01*
X132778599Y-125328495D01*
X132855135Y-125382086D01*
X132972165Y-125464032D01*
X132972167Y-125464033D01*
X132972170Y-125464035D01*
X133186337Y-125563903D01*
X133414592Y-125625063D01*
X133585319Y-125640000D01*
X133649999Y-125645659D01*
X133650000Y-125645659D01*
X133650001Y-125645659D01*
X133714681Y-125640000D01*
X133885408Y-125625063D01*
X134113663Y-125563903D01*
X134327830Y-125464035D01*
X134521401Y-125328495D01*
X134688495Y-125161401D01*
X134818425Y-124975842D01*
X134873002Y-124932217D01*
X134942500Y-124925023D01*
X135004855Y-124956546D01*
X135021575Y-124975842D01*
X135151281Y-125161082D01*
X135151505Y-125161401D01*
X135318599Y-125328495D01*
X135395135Y-125382086D01*
X135512165Y-125464032D01*
X135512167Y-125464033D01*
X135512170Y-125464035D01*
X135726337Y-125563903D01*
X135954592Y-125625063D01*
X136125319Y-125640000D01*
X136189999Y-125645659D01*
X136190000Y-125645659D01*
X136190001Y-125645659D01*
X136254681Y-125640000D01*
X136425408Y-125625063D01*
X136653663Y-125563903D01*
X136867830Y-125464035D01*
X137061401Y-125328495D01*
X137228495Y-125161401D01*
X137358425Y-124975842D01*
X137413002Y-124932217D01*
X137482500Y-124925023D01*
X137544855Y-124956546D01*
X137561575Y-124975842D01*
X137691281Y-125161082D01*
X137691505Y-125161401D01*
X137858599Y-125328495D01*
X137935135Y-125382086D01*
X138052165Y-125464032D01*
X138052167Y-125464033D01*
X138052170Y-125464035D01*
X138266337Y-125563903D01*
X138494592Y-125625063D01*
X138665319Y-125640000D01*
X138729999Y-125645659D01*
X138730000Y-125645659D01*
X138730001Y-125645659D01*
X138794681Y-125640000D01*
X138965408Y-125625063D01*
X139193663Y-125563903D01*
X139407830Y-125464035D01*
X139601401Y-125328495D01*
X139768495Y-125161401D01*
X139898425Y-124975842D01*
X139953002Y-124932217D01*
X140022500Y-124925023D01*
X140084855Y-124956546D01*
X140101575Y-124975842D01*
X140231281Y-125161082D01*
X140231505Y-125161401D01*
X140398599Y-125328495D01*
X140475135Y-125382086D01*
X140592165Y-125464032D01*
X140592167Y-125464033D01*
X140592170Y-125464035D01*
X140806337Y-125563903D01*
X141034592Y-125625063D01*
X141205319Y-125640000D01*
X141269999Y-125645659D01*
X141270000Y-125645659D01*
X141270001Y-125645659D01*
X141334681Y-125640000D01*
X141505408Y-125625063D01*
X141733663Y-125563903D01*
X141947830Y-125464035D01*
X142141401Y-125328495D01*
X142308495Y-125161401D01*
X142438730Y-124975405D01*
X142493307Y-124931781D01*
X142562805Y-124924587D01*
X142625160Y-124956110D01*
X142641879Y-124975405D01*
X142771890Y-125161078D01*
X142938917Y-125328105D01*
X143132421Y-125463600D01*
X143346507Y-125563429D01*
X143346516Y-125563433D01*
X143560000Y-125620634D01*
X143560000Y-124723012D01*
X143617007Y-124755925D01*
X143744174Y-124790000D01*
X143875826Y-124790000D01*
X144002993Y-124755925D01*
X144060000Y-124723012D01*
X144060000Y-125620633D01*
X144273483Y-125563433D01*
X144273492Y-125563429D01*
X144487578Y-125463600D01*
X144681078Y-125328108D01*
X144803521Y-125205665D01*
X144864844Y-125172180D01*
X144934536Y-125177164D01*
X144990470Y-125219035D01*
X145007385Y-125250013D01*
X145056645Y-125382086D01*
X145056649Y-125382093D01*
X145142809Y-125497187D01*
X145142812Y-125497190D01*
X145257906Y-125583350D01*
X145257913Y-125583354D01*
X145392620Y-125633596D01*
X145392627Y-125633598D01*
X145452155Y-125639999D01*
X145452172Y-125640000D01*
X146100000Y-125640000D01*
X146100000Y-124723012D01*
X146157007Y-124755925D01*
X146284174Y-124790000D01*
X146415826Y-124790000D01*
X146542993Y-124755925D01*
X146600000Y-124723012D01*
X146600000Y-125640000D01*
X147247828Y-125640000D01*
X147247844Y-125639999D01*
X147307372Y-125633598D01*
X147307379Y-125633596D01*
X147442086Y-125583354D01*
X147442093Y-125583350D01*
X147557187Y-125497190D01*
X147557190Y-125497187D01*
X147643350Y-125382093D01*
X147643354Y-125382086D01*
X147692619Y-125249999D01*
X168099494Y-125249999D01*
X168099495Y-125250000D01*
X168934314Y-125250000D01*
X168929920Y-125254394D01*
X168877259Y-125345606D01*
X168850000Y-125447339D01*
X168850000Y-125552661D01*
X168877259Y-125654394D01*
X168929920Y-125745606D01*
X168934314Y-125750000D01*
X168099495Y-125750000D01*
X168149651Y-125926280D01*
X168246715Y-126121208D01*
X168377945Y-126294985D01*
X168538868Y-126441685D01*
X168724012Y-126556322D01*
X168724023Y-126556327D01*
X168927060Y-126634984D01*
X169000000Y-126648619D01*
X169000000Y-125815686D01*
X169004394Y-125820080D01*
X169095606Y-125872741D01*
X169197339Y-125900000D01*
X169302661Y-125900000D01*
X169404394Y-125872741D01*
X169495606Y-125820080D01*
X169500000Y-125815686D01*
X169500000Y-126648619D01*
X169572939Y-126634984D01*
X169775976Y-126556327D01*
X169775987Y-126556322D01*
X169961130Y-126441685D01*
X169961131Y-126441685D01*
X170122055Y-126294984D01*
X170150730Y-126257012D01*
X170206838Y-126215374D01*
X170276550Y-126210681D01*
X170337733Y-126244422D01*
X170348640Y-126257009D01*
X170367512Y-126282000D01*
X170377573Y-126295322D01*
X170538568Y-126442088D01*
X170538575Y-126442092D01*
X170538576Y-126442093D01*
X170723786Y-126556770D01*
X170723792Y-126556773D01*
X170746664Y-126565633D01*
X170926931Y-126635470D01*
X171141074Y-126675500D01*
X171141076Y-126675500D01*
X171358924Y-126675500D01*
X171358926Y-126675500D01*
X171573069Y-126635470D01*
X171776210Y-126556772D01*
X171961432Y-126442088D01*
X172122427Y-126295322D01*
X172151047Y-126257422D01*
X172207153Y-126215787D01*
X172276865Y-126211094D01*
X172338048Y-126244836D01*
X172348946Y-126257414D01*
X172377573Y-126295322D01*
X172538568Y-126442088D01*
X172538575Y-126442092D01*
X172538576Y-126442093D01*
X172723786Y-126556770D01*
X172723792Y-126556773D01*
X172746664Y-126565633D01*
X172926931Y-126635470D01*
X173141074Y-126675500D01*
X173141076Y-126675500D01*
X173358924Y-126675500D01*
X173358926Y-126675500D01*
X173573069Y-126635470D01*
X173776210Y-126556772D01*
X173961432Y-126442088D01*
X173972407Y-126432082D01*
X174035207Y-126401463D01*
X174104594Y-126409657D01*
X174155214Y-126449405D01*
X174217452Y-126532544D01*
X174217455Y-126532547D01*
X174332664Y-126618793D01*
X174332671Y-126618797D01*
X174467517Y-126669091D01*
X174467516Y-126669091D01*
X174474444Y-126669835D01*
X174527127Y-126675500D01*
X175972872Y-126675499D01*
X176032483Y-126669091D01*
X176167331Y-126618796D01*
X176282546Y-126532546D01*
X176368796Y-126417331D01*
X176419091Y-126282483D01*
X176425500Y-126222873D01*
X176425499Y-124999996D01*
X181244916Y-124999996D01*
X181244916Y-125000003D01*
X181265235Y-125348869D01*
X181265236Y-125348880D01*
X181325914Y-125693002D01*
X181325916Y-125693011D01*
X181426145Y-126027800D01*
X181564555Y-126348670D01*
X181564561Y-126348683D01*
X181739289Y-126651322D01*
X181947972Y-126931631D01*
X181947976Y-126931636D01*
X181956147Y-126940297D01*
X181956148Y-126940298D01*
X183206320Y-125690125D01*
X183296554Y-125814320D01*
X183435680Y-125953446D01*
X183559873Y-126043678D01*
X182312817Y-127290733D01*
X182312818Y-127290734D01*
X182455480Y-127410442D01*
X182747461Y-127602480D01*
X183059739Y-127759314D01*
X183059745Y-127759316D01*
X183388130Y-127878838D01*
X183388133Y-127878839D01*
X183728171Y-127959429D01*
X184075276Y-127999999D01*
X184075277Y-128000000D01*
X184424723Y-128000000D01*
X184424723Y-127999999D01*
X184771827Y-127959429D01*
X184771829Y-127959429D01*
X185111866Y-127878839D01*
X185111869Y-127878838D01*
X185440254Y-127759316D01*
X185440260Y-127759314D01*
X185752538Y-127602480D01*
X186044515Y-127410445D01*
X186187180Y-127290734D01*
X186187181Y-127290733D01*
X184940126Y-126043678D01*
X185064320Y-125953446D01*
X185203446Y-125814320D01*
X185293679Y-125690126D01*
X186543850Y-126940297D01*
X186552032Y-126931625D01*
X186760710Y-126651322D01*
X186935438Y-126348683D01*
X186935444Y-126348670D01*
X187073854Y-126027800D01*
X187174083Y-125693011D01*
X187174085Y-125693002D01*
X187234763Y-125348880D01*
X187234764Y-125348869D01*
X187255084Y-125000003D01*
X187255084Y-124999996D01*
X187234764Y-124651130D01*
X187234763Y-124651119D01*
X187174085Y-124306997D01*
X187174083Y-124306988D01*
X187073854Y-123972199D01*
X186935444Y-123651329D01*
X186935438Y-123651316D01*
X186760710Y-123348677D01*
X186552029Y-123068371D01*
X186543850Y-123059701D01*
X186543850Y-123059700D01*
X185293678Y-124309872D01*
X185203446Y-124185680D01*
X185064320Y-124046554D01*
X184940125Y-123956320D01*
X186187181Y-122709265D01*
X186187180Y-122709264D01*
X186044519Y-122589557D01*
X185752538Y-122397519D01*
X185440260Y-122240685D01*
X185440254Y-122240683D01*
X185111869Y-122121161D01*
X185111866Y-122121160D01*
X184771828Y-122040570D01*
X184424723Y-122000000D01*
X184075277Y-122000000D01*
X183728172Y-122040570D01*
X183728170Y-122040570D01*
X183388133Y-122121160D01*
X183388130Y-122121161D01*
X183059745Y-122240683D01*
X183059739Y-122240685D01*
X182747461Y-122397519D01*
X182455485Y-122589554D01*
X182312817Y-122709264D01*
X183559874Y-123956320D01*
X183435680Y-124046554D01*
X183296554Y-124185680D01*
X183206320Y-124309873D01*
X181956148Y-123059701D01*
X181956146Y-123059701D01*
X181947973Y-123068366D01*
X181739289Y-123348677D01*
X181564561Y-123651316D01*
X181564555Y-123651329D01*
X181426145Y-123972199D01*
X181325916Y-124306988D01*
X181325914Y-124306997D01*
X181265236Y-124651119D01*
X181265235Y-124651130D01*
X181244916Y-124999996D01*
X176425499Y-124999996D01*
X176425499Y-124777128D01*
X176419091Y-124717517D01*
X176414426Y-124705010D01*
X176368797Y-124582671D01*
X176368793Y-124582664D01*
X176282547Y-124467455D01*
X176282544Y-124467452D01*
X176167335Y-124381206D01*
X176167328Y-124381202D01*
X176032482Y-124330908D01*
X176032483Y-124330908D01*
X175972883Y-124324501D01*
X175972881Y-124324500D01*
X175972873Y-124324500D01*
X175972864Y-124324500D01*
X174527129Y-124324500D01*
X174527123Y-124324501D01*
X174467516Y-124330908D01*
X174332671Y-124381202D01*
X174332664Y-124381206D01*
X174217455Y-124467452D01*
X174155214Y-124550594D01*
X174099279Y-124592465D01*
X174029588Y-124597448D01*
X173972411Y-124567920D01*
X173961434Y-124557913D01*
X173961429Y-124557910D01*
X173776213Y-124443229D01*
X173776207Y-124443226D01*
X173691113Y-124410260D01*
X173573069Y-124364530D01*
X173358926Y-124324500D01*
X173141074Y-124324500D01*
X172926931Y-124364530D01*
X172883896Y-124381202D01*
X172723792Y-124443226D01*
X172723786Y-124443229D01*
X172538576Y-124557906D01*
X172538566Y-124557913D01*
X172377573Y-124704676D01*
X172348953Y-124742576D01*
X172292844Y-124784211D01*
X172223132Y-124788902D01*
X172161950Y-124755159D01*
X172151047Y-124742576D01*
X172122426Y-124704676D01*
X171961433Y-124557913D01*
X171961423Y-124557906D01*
X171776213Y-124443229D01*
X171776207Y-124443226D01*
X171691113Y-124410260D01*
X171573069Y-124364530D01*
X171358926Y-124324500D01*
X171141074Y-124324500D01*
X170926931Y-124364530D01*
X170883896Y-124381202D01*
X170723792Y-124443226D01*
X170723786Y-124443229D01*
X170538576Y-124557906D01*
X170538566Y-124557913D01*
X170377574Y-124704676D01*
X170348640Y-124742991D01*
X170292530Y-124784627D01*
X170222818Y-124789318D01*
X170161637Y-124755576D01*
X170150731Y-124742990D01*
X170122051Y-124705011D01*
X170122050Y-124705010D01*
X169961131Y-124558314D01*
X169775987Y-124443677D01*
X169775985Y-124443676D01*
X169572931Y-124365013D01*
X169572921Y-124365010D01*
X169500001Y-124351378D01*
X169500000Y-124351379D01*
X169500000Y-125184314D01*
X169495606Y-125179920D01*
X169404394Y-125127259D01*
X169302661Y-125100000D01*
X169197339Y-125100000D01*
X169095606Y-125127259D01*
X169004394Y-125179920D01*
X169000000Y-125184314D01*
X169000000Y-124351379D01*
X168999998Y-124351378D01*
X168927078Y-124365010D01*
X168927068Y-124365013D01*
X168724014Y-124443676D01*
X168724012Y-124443677D01*
X168538869Y-124558314D01*
X168538868Y-124558314D01*
X168377945Y-124705014D01*
X168246715Y-124878791D01*
X168149651Y-125073719D01*
X168099494Y-125249999D01*
X147692619Y-125249999D01*
X147693596Y-125247379D01*
X147693598Y-125247372D01*
X147699999Y-125187844D01*
X147700000Y-125187827D01*
X147700000Y-124540000D01*
X146783012Y-124540000D01*
X146815925Y-124482993D01*
X146850000Y-124355826D01*
X146850000Y-124224174D01*
X146815925Y-124097007D01*
X146783012Y-124040000D01*
X147700000Y-124040000D01*
X147700000Y-123392172D01*
X147699999Y-123392155D01*
X147693598Y-123332627D01*
X147693596Y-123332620D01*
X147643354Y-123197913D01*
X147643350Y-123197906D01*
X147557190Y-123082812D01*
X147557187Y-123082809D01*
X147442093Y-122996649D01*
X147442088Y-122996646D01*
X147310528Y-122947577D01*
X147254595Y-122905705D01*
X147230178Y-122840241D01*
X147245030Y-122771968D01*
X147261474Y-122750000D01*
X162544901Y-122750000D01*
X162563252Y-122936331D01*
X162563253Y-122936333D01*
X162617604Y-123115502D01*
X162705862Y-123280623D01*
X162705864Y-123280626D01*
X162824642Y-123425357D01*
X162969373Y-123544135D01*
X162969376Y-123544137D01*
X163118585Y-123623890D01*
X163134499Y-123632396D01*
X163313666Y-123686746D01*
X163313668Y-123686747D01*
X163330374Y-123688392D01*
X163500000Y-123705099D01*
X163686331Y-123686747D01*
X163865501Y-123632396D01*
X164030625Y-123544136D01*
X164175357Y-123425357D01*
X164294136Y-123280625D01*
X164382396Y-123115501D01*
X164436747Y-122936331D01*
X164455099Y-122750000D01*
X164453905Y-122737882D01*
X164466923Y-122669239D01*
X164514986Y-122618527D01*
X164526872Y-122612449D01*
X164533998Y-122609275D01*
X164702730Y-122534151D01*
X164855871Y-122422888D01*
X164982533Y-122282216D01*
X165077179Y-122118284D01*
X165135674Y-121938256D01*
X165155460Y-121750000D01*
X165135674Y-121561744D01*
X165077179Y-121381716D01*
X164982533Y-121217784D01*
X164855871Y-121077112D01*
X164855870Y-121077111D01*
X164702734Y-120965851D01*
X164702729Y-120965848D01*
X164529807Y-120888857D01*
X164529802Y-120888855D01*
X164384001Y-120857865D01*
X164344646Y-120849500D01*
X164155354Y-120849500D01*
X164122897Y-120856398D01*
X163970197Y-120888855D01*
X163970192Y-120888857D01*
X163797270Y-120965848D01*
X163797265Y-120965851D01*
X163644129Y-121077111D01*
X163517466Y-121217785D01*
X163422821Y-121381715D01*
X163422818Y-121381722D01*
X163379645Y-121514596D01*
X163364326Y-121561744D01*
X163347289Y-121723845D01*
X163320704Y-121788459D01*
X163263407Y-121828444D01*
X163259964Y-121829543D01*
X163134497Y-121867604D01*
X162969376Y-121955862D01*
X162969373Y-121955864D01*
X162824642Y-122074642D01*
X162705864Y-122219373D01*
X162705862Y-122219376D01*
X162617604Y-122384497D01*
X162563253Y-122563666D01*
X162563252Y-122563668D01*
X162544901Y-122750000D01*
X147261474Y-122750000D01*
X147266175Y-122743720D01*
X147388495Y-122621401D01*
X147524035Y-122427830D01*
X147623903Y-122213663D01*
X147685063Y-121985408D01*
X147705659Y-121750000D01*
X147685063Y-121514592D01*
X147623903Y-121286337D01*
X147524035Y-121072171D01*
X147518425Y-121064158D01*
X147388494Y-120878597D01*
X147221402Y-120711506D01*
X147221395Y-120711501D01*
X147027834Y-120575967D01*
X147027830Y-120575965D01*
X147027828Y-120575964D01*
X146813663Y-120476097D01*
X146813659Y-120476096D01*
X146813655Y-120476094D01*
X146585413Y-120414938D01*
X146585403Y-120414936D01*
X146350001Y-120394341D01*
X146349999Y-120394341D01*
X146114596Y-120414936D01*
X146114586Y-120414938D01*
X145886344Y-120476094D01*
X145886335Y-120476098D01*
X145672171Y-120575964D01*
X145672169Y-120575965D01*
X145478597Y-120711505D01*
X145311505Y-120878597D01*
X145181575Y-121064158D01*
X145126998Y-121107783D01*
X145057500Y-121114977D01*
X144995145Y-121083454D01*
X144978425Y-121064158D01*
X144848494Y-120878597D01*
X144681402Y-120711506D01*
X144681395Y-120711501D01*
X144487834Y-120575967D01*
X144487830Y-120575965D01*
X144487828Y-120575964D01*
X144273663Y-120476097D01*
X144273659Y-120476096D01*
X144273655Y-120476094D01*
X144045413Y-120414938D01*
X144045403Y-120414936D01*
X143810001Y-120394341D01*
X143809999Y-120394341D01*
X143574596Y-120414936D01*
X143574586Y-120414938D01*
X143346344Y-120476094D01*
X143346335Y-120476098D01*
X143132171Y-120575964D01*
X143132169Y-120575965D01*
X142938597Y-120711505D01*
X142771505Y-120878597D01*
X142641575Y-121064158D01*
X142586998Y-121107783D01*
X142517500Y-121114977D01*
X142455145Y-121083454D01*
X142438425Y-121064158D01*
X142308494Y-120878597D01*
X142141402Y-120711506D01*
X142141395Y-120711501D01*
X141947834Y-120575967D01*
X141947830Y-120575965D01*
X141947828Y-120575964D01*
X141733663Y-120476097D01*
X141733659Y-120476096D01*
X141733655Y-120476094D01*
X141505413Y-120414938D01*
X141505403Y-120414936D01*
X141270001Y-120394341D01*
X141269999Y-120394341D01*
X141034596Y-120414936D01*
X141034586Y-120414938D01*
X140806344Y-120476094D01*
X140806335Y-120476098D01*
X140592171Y-120575964D01*
X140592169Y-120575965D01*
X140398597Y-120711505D01*
X140231505Y-120878597D01*
X140101575Y-121064158D01*
X140046998Y-121107783D01*
X139977500Y-121114977D01*
X139915145Y-121083454D01*
X139898425Y-121064158D01*
X139768494Y-120878597D01*
X139601402Y-120711506D01*
X139601395Y-120711501D01*
X139407834Y-120575967D01*
X139407830Y-120575965D01*
X139407828Y-120575964D01*
X139193663Y-120476097D01*
X139193659Y-120476096D01*
X139193655Y-120476094D01*
X138965413Y-120414938D01*
X138965403Y-120414936D01*
X138730001Y-120394341D01*
X138729999Y-120394341D01*
X138494596Y-120414936D01*
X138494586Y-120414938D01*
X138266344Y-120476094D01*
X138266335Y-120476098D01*
X138052171Y-120575964D01*
X138052169Y-120575965D01*
X137858597Y-120711505D01*
X137691505Y-120878597D01*
X137561575Y-121064158D01*
X137506998Y-121107783D01*
X137437500Y-121114977D01*
X137375145Y-121083454D01*
X137358425Y-121064158D01*
X137228494Y-120878597D01*
X137061402Y-120711506D01*
X137061395Y-120711501D01*
X136867834Y-120575967D01*
X136867830Y-120575965D01*
X136867828Y-120575964D01*
X136653663Y-120476097D01*
X136653659Y-120476096D01*
X136653655Y-120476094D01*
X136425413Y-120414938D01*
X136425403Y-120414936D01*
X136190001Y-120394341D01*
X136189999Y-120394341D01*
X135954596Y-120414936D01*
X135954586Y-120414938D01*
X135726344Y-120476094D01*
X135726335Y-120476098D01*
X135512171Y-120575964D01*
X135512169Y-120575965D01*
X135318597Y-120711505D01*
X135151505Y-120878597D01*
X135021575Y-121064158D01*
X134966998Y-121107783D01*
X134897500Y-121114977D01*
X134835145Y-121083454D01*
X134818425Y-121064158D01*
X134688494Y-120878597D01*
X134521402Y-120711506D01*
X134521395Y-120711501D01*
X134327834Y-120575967D01*
X134327830Y-120575965D01*
X134327828Y-120575964D01*
X134113663Y-120476097D01*
X134113659Y-120476096D01*
X134113655Y-120476094D01*
X133885413Y-120414938D01*
X133885403Y-120414936D01*
X133650001Y-120394341D01*
X133649999Y-120394341D01*
X133414596Y-120414936D01*
X133414586Y-120414938D01*
X133186344Y-120476094D01*
X133186335Y-120476098D01*
X132972171Y-120575964D01*
X132972169Y-120575965D01*
X132778597Y-120711505D01*
X132611505Y-120878597D01*
X132481575Y-121064158D01*
X132426998Y-121107783D01*
X132357500Y-121114977D01*
X132295145Y-121083454D01*
X132278425Y-121064158D01*
X132148494Y-120878597D01*
X131981402Y-120711506D01*
X131981395Y-120711501D01*
X131787834Y-120575967D01*
X131787830Y-120575965D01*
X131787828Y-120575964D01*
X131573663Y-120476097D01*
X131573659Y-120476096D01*
X131573655Y-120476094D01*
X131345413Y-120414938D01*
X131345403Y-120414936D01*
X131110001Y-120394341D01*
X131109999Y-120394341D01*
X130874596Y-120414936D01*
X130874586Y-120414938D01*
X130646344Y-120476094D01*
X130646335Y-120476098D01*
X130432171Y-120575964D01*
X130432169Y-120575965D01*
X130238597Y-120711505D01*
X130071505Y-120878597D01*
X129935965Y-121072169D01*
X129935964Y-121072171D01*
X129836098Y-121286335D01*
X129836094Y-121286344D01*
X129774938Y-121514586D01*
X129774936Y-121514596D01*
X129754341Y-121749999D01*
X113300500Y-121749999D01*
X113300500Y-118635000D01*
X151844540Y-118635000D01*
X151864326Y-118823256D01*
X151864327Y-118823259D01*
X151922818Y-119003277D01*
X151922821Y-119003284D01*
X152017467Y-119167216D01*
X152144129Y-119307888D01*
X152297265Y-119419148D01*
X152297270Y-119419151D01*
X152470192Y-119496142D01*
X152470197Y-119496144D01*
X152655354Y-119535500D01*
X152655355Y-119535500D01*
X152844644Y-119535500D01*
X152844646Y-119535500D01*
X153011662Y-119500000D01*
X163344540Y-119500000D01*
X163364326Y-119688256D01*
X163364327Y-119688259D01*
X163422818Y-119868277D01*
X163422821Y-119868284D01*
X163517467Y-120032216D01*
X163644129Y-120172888D01*
X163797265Y-120284148D01*
X163797270Y-120284151D01*
X163970192Y-120361142D01*
X163970197Y-120361144D01*
X164155354Y-120400500D01*
X164155355Y-120400500D01*
X164344644Y-120400500D01*
X164344646Y-120400500D01*
X164529803Y-120361144D01*
X164702730Y-120284151D01*
X164855871Y-120172888D01*
X164982533Y-120032216D01*
X165077179Y-119868284D01*
X165135674Y-119688256D01*
X165155460Y-119500000D01*
X165135674Y-119311744D01*
X165077179Y-119131716D01*
X164982533Y-118967784D01*
X164855871Y-118827112D01*
X164850564Y-118823256D01*
X164702734Y-118715851D01*
X164702729Y-118715848D01*
X164529807Y-118638857D01*
X164529802Y-118638855D01*
X164384001Y-118607865D01*
X164344646Y-118599500D01*
X164155354Y-118599500D01*
X164122897Y-118606398D01*
X163970197Y-118638855D01*
X163970192Y-118638857D01*
X163797270Y-118715848D01*
X163797265Y-118715851D01*
X163644129Y-118827111D01*
X163517466Y-118967785D01*
X163422821Y-119131715D01*
X163422818Y-119131722D01*
X163365579Y-119307888D01*
X163364326Y-119311744D01*
X163344540Y-119500000D01*
X153011662Y-119500000D01*
X153029803Y-119496144D01*
X153202730Y-119419151D01*
X153355871Y-119307888D01*
X153482533Y-119167216D01*
X153577179Y-119003284D01*
X153635674Y-118823256D01*
X153655460Y-118635000D01*
X153641271Y-118499999D01*
X168099494Y-118499999D01*
X168099495Y-118500000D01*
X168934314Y-118500000D01*
X168929920Y-118504394D01*
X168877259Y-118595606D01*
X168850000Y-118697339D01*
X168850000Y-118802661D01*
X168877259Y-118904394D01*
X168929920Y-118995606D01*
X168934314Y-119000000D01*
X168099495Y-119000000D01*
X168149651Y-119176280D01*
X168246715Y-119371208D01*
X168377945Y-119544985D01*
X168538868Y-119691685D01*
X168724012Y-119806322D01*
X168724023Y-119806327D01*
X168927060Y-119884984D01*
X169000000Y-119898619D01*
X169000000Y-119065686D01*
X169004394Y-119070080D01*
X169095606Y-119122741D01*
X169197339Y-119150000D01*
X169302661Y-119150000D01*
X169404394Y-119122741D01*
X169495606Y-119070080D01*
X169500000Y-119065686D01*
X169500000Y-119898619D01*
X169572939Y-119884984D01*
X169775976Y-119806327D01*
X169775987Y-119806322D01*
X169961130Y-119691685D01*
X169961131Y-119691685D01*
X170122055Y-119544984D01*
X170150730Y-119507012D01*
X170206838Y-119465374D01*
X170276550Y-119460681D01*
X170337733Y-119494422D01*
X170348640Y-119507009D01*
X170367512Y-119532000D01*
X170377573Y-119545322D01*
X170538568Y-119692088D01*
X170538575Y-119692092D01*
X170538576Y-119692093D01*
X170723786Y-119806770D01*
X170723792Y-119806773D01*
X170746664Y-119815633D01*
X170926931Y-119885470D01*
X171141074Y-119925500D01*
X171141076Y-119925500D01*
X171358924Y-119925500D01*
X171358926Y-119925500D01*
X171573069Y-119885470D01*
X171776210Y-119806772D01*
X171961432Y-119692088D01*
X172122427Y-119545322D01*
X172151047Y-119507422D01*
X172207153Y-119465787D01*
X172276865Y-119461094D01*
X172338048Y-119494836D01*
X172348946Y-119507414D01*
X172377573Y-119545322D01*
X172538568Y-119692088D01*
X172538575Y-119692092D01*
X172538576Y-119692093D01*
X172723786Y-119806770D01*
X172723792Y-119806773D01*
X172746664Y-119815633D01*
X172926931Y-119885470D01*
X173141074Y-119925500D01*
X173141076Y-119925500D01*
X173358924Y-119925500D01*
X173358926Y-119925500D01*
X173573069Y-119885470D01*
X173776210Y-119806772D01*
X173961432Y-119692088D01*
X173972407Y-119682082D01*
X174035207Y-119651463D01*
X174104594Y-119659657D01*
X174155214Y-119699405D01*
X174217452Y-119782544D01*
X174217455Y-119782547D01*
X174332664Y-119868793D01*
X174332671Y-119868797D01*
X174467517Y-119919091D01*
X174467516Y-119919091D01*
X174474444Y-119919835D01*
X174527127Y-119925500D01*
X175972872Y-119925499D01*
X176032483Y-119919091D01*
X176167331Y-119868796D01*
X176282546Y-119782546D01*
X176368796Y-119667331D01*
X176419091Y-119532483D01*
X176425500Y-119472873D01*
X176425499Y-118027128D01*
X176419091Y-117967517D01*
X176414426Y-117955010D01*
X176368797Y-117832671D01*
X176368793Y-117832664D01*
X176282547Y-117717455D01*
X176282544Y-117717452D01*
X176167335Y-117631206D01*
X176167328Y-117631202D01*
X176032482Y-117580908D01*
X176032483Y-117580908D01*
X175972883Y-117574501D01*
X175972881Y-117574500D01*
X175972873Y-117574500D01*
X175972864Y-117574500D01*
X174527129Y-117574500D01*
X174527123Y-117574501D01*
X174467516Y-117580908D01*
X174332671Y-117631202D01*
X174332664Y-117631206D01*
X174217455Y-117717452D01*
X174155214Y-117800594D01*
X174099279Y-117842465D01*
X174029588Y-117847448D01*
X173972411Y-117817920D01*
X173961434Y-117807913D01*
X173961429Y-117807910D01*
X173776213Y-117693229D01*
X173776207Y-117693226D01*
X173691113Y-117660260D01*
X173573069Y-117614530D01*
X173358926Y-117574500D01*
X173141074Y-117574500D01*
X172926931Y-117614530D01*
X172883896Y-117631202D01*
X172723792Y-117693226D01*
X172723786Y-117693229D01*
X172538576Y-117807906D01*
X172538566Y-117807913D01*
X172377573Y-117954676D01*
X172348953Y-117992576D01*
X172292844Y-118034211D01*
X172223132Y-118038902D01*
X172161950Y-118005159D01*
X172151047Y-117992576D01*
X172122426Y-117954676D01*
X171961433Y-117807913D01*
X171961423Y-117807906D01*
X171776213Y-117693229D01*
X171776207Y-117693226D01*
X171691113Y-117660260D01*
X171573069Y-117614530D01*
X171358926Y-117574500D01*
X171141074Y-117574500D01*
X170926931Y-117614530D01*
X170883896Y-117631202D01*
X170723792Y-117693226D01*
X170723786Y-117693229D01*
X170538576Y-117807906D01*
X170538566Y-117807913D01*
X170377574Y-117954676D01*
X170348640Y-117992991D01*
X170292530Y-118034627D01*
X170222818Y-118039318D01*
X170161637Y-118005576D01*
X170150731Y-117992990D01*
X170122051Y-117955011D01*
X170122050Y-117955010D01*
X169961131Y-117808314D01*
X169775987Y-117693677D01*
X169775985Y-117693676D01*
X169572931Y-117615013D01*
X169572921Y-117615010D01*
X169500001Y-117601378D01*
X169500000Y-117601379D01*
X169500000Y-118434314D01*
X169495606Y-118429920D01*
X169404394Y-118377259D01*
X169302661Y-118350000D01*
X169197339Y-118350000D01*
X169095606Y-118377259D01*
X169004394Y-118429920D01*
X169000000Y-118434314D01*
X169000000Y-117601379D01*
X168999998Y-117601378D01*
X168927078Y-117615010D01*
X168927068Y-117615013D01*
X168724014Y-117693676D01*
X168724012Y-117693677D01*
X168538869Y-117808314D01*
X168538868Y-117808314D01*
X168377945Y-117955014D01*
X168246715Y-118128791D01*
X168149651Y-118323719D01*
X168099494Y-118499999D01*
X153641271Y-118499999D01*
X153635674Y-118446744D01*
X153577179Y-118266716D01*
X153482533Y-118102784D01*
X153355871Y-117962112D01*
X153355870Y-117962111D01*
X153202734Y-117850851D01*
X153202729Y-117850848D01*
X153029807Y-117773857D01*
X153029802Y-117773855D01*
X152884001Y-117742865D01*
X152844646Y-117734500D01*
X152655354Y-117734500D01*
X152622897Y-117741398D01*
X152470197Y-117773855D01*
X152470192Y-117773857D01*
X152297270Y-117850848D01*
X152297265Y-117850851D01*
X152144129Y-117962111D01*
X152017466Y-118102785D01*
X151922821Y-118266715D01*
X151922818Y-118266722D01*
X151904357Y-118323541D01*
X151864326Y-118446744D01*
X151844540Y-118635000D01*
X113300500Y-118635000D01*
X113300500Y-114500000D01*
X148344540Y-114500000D01*
X148364326Y-114688256D01*
X148364327Y-114688259D01*
X148422818Y-114868277D01*
X148422821Y-114868284D01*
X148517467Y-115032216D01*
X148607063Y-115131722D01*
X148644129Y-115172888D01*
X148797265Y-115284148D01*
X148797270Y-115284151D01*
X148970192Y-115361142D01*
X148970197Y-115361144D01*
X149155354Y-115400500D01*
X149155355Y-115400500D01*
X149222432Y-115400500D01*
X149289471Y-115420185D01*
X149335226Y-115472989D01*
X149345752Y-115511535D01*
X149364326Y-115688256D01*
X149364327Y-115688259D01*
X149422818Y-115868277D01*
X149422821Y-115868284D01*
X149517467Y-116032216D01*
X149623971Y-116150500D01*
X149644129Y-116172888D01*
X149797265Y-116284148D01*
X149797270Y-116284151D01*
X149970192Y-116361142D01*
X149970197Y-116361144D01*
X150155354Y-116400500D01*
X150155355Y-116400500D01*
X150344644Y-116400500D01*
X150344646Y-116400500D01*
X150529803Y-116361144D01*
X150702730Y-116284151D01*
X150855871Y-116172888D01*
X150982533Y-116032216D01*
X151077179Y-115868284D01*
X151135674Y-115688256D01*
X151155460Y-115500000D01*
X151135674Y-115311744D01*
X151115612Y-115250000D01*
X164594540Y-115250000D01*
X164614326Y-115438256D01*
X164614327Y-115438259D01*
X164672818Y-115618277D01*
X164672821Y-115618284D01*
X164767467Y-115782216D01*
X164894129Y-115922888D01*
X165047265Y-116034148D01*
X165047270Y-116034151D01*
X165220192Y-116111142D01*
X165220197Y-116111144D01*
X165405354Y-116150500D01*
X165405355Y-116150500D01*
X165594644Y-116150500D01*
X165594646Y-116150500D01*
X165779803Y-116111144D01*
X165952730Y-116034151D01*
X166105871Y-115922888D01*
X166232533Y-115782216D01*
X166327179Y-115618284D01*
X166385674Y-115438256D01*
X166405460Y-115250000D01*
X166385674Y-115061744D01*
X166327179Y-114881716D01*
X166232533Y-114717784D01*
X166105871Y-114577112D01*
X166105870Y-114577111D01*
X165952734Y-114465851D01*
X165952729Y-114465848D01*
X165779807Y-114388857D01*
X165779802Y-114388855D01*
X165634001Y-114357865D01*
X165594646Y-114349500D01*
X165405354Y-114349500D01*
X165372897Y-114356398D01*
X165220197Y-114388855D01*
X165220192Y-114388857D01*
X165047270Y-114465848D01*
X165047265Y-114465851D01*
X164894129Y-114577111D01*
X164767466Y-114717785D01*
X164672821Y-114881715D01*
X164672818Y-114881722D01*
X164644855Y-114967785D01*
X164614326Y-115061744D01*
X164594540Y-115250000D01*
X151115612Y-115250000D01*
X151077179Y-115131716D01*
X150982533Y-114967784D01*
X150855871Y-114827112D01*
X150816413Y-114798444D01*
X150773749Y-114743115D01*
X150767770Y-114673501D01*
X150800376Y-114611706D01*
X150838864Y-114584848D01*
X150856241Y-114577111D01*
X150952730Y-114534151D01*
X151105871Y-114422888D01*
X151232533Y-114282216D01*
X151327179Y-114118284D01*
X151385674Y-113938256D01*
X151405460Y-113750000D01*
X151385674Y-113561744D01*
X151349430Y-113450199D01*
X151347436Y-113380362D01*
X151383516Y-113320529D01*
X151446216Y-113289700D01*
X151515631Y-113297664D01*
X151559510Y-113328909D01*
X151644129Y-113422888D01*
X151644132Y-113422890D01*
X151797265Y-113534148D01*
X151797270Y-113534151D01*
X151970192Y-113611142D01*
X151970197Y-113611144D01*
X152155354Y-113650500D01*
X152155355Y-113650500D01*
X152344644Y-113650500D01*
X152344646Y-113650500D01*
X152529803Y-113611144D01*
X152702730Y-113534151D01*
X152855871Y-113422888D01*
X152982533Y-113282216D01*
X153077179Y-113118284D01*
X153115612Y-113000000D01*
X166844540Y-113000000D01*
X166864326Y-113188256D01*
X166864327Y-113188259D01*
X166922818Y-113368277D01*
X166922821Y-113368284D01*
X167017467Y-113532216D01*
X167113487Y-113638857D01*
X167144129Y-113672888D01*
X167297265Y-113784148D01*
X167297270Y-113784151D01*
X167470192Y-113861142D01*
X167470197Y-113861144D01*
X167655354Y-113900500D01*
X167655355Y-113900500D01*
X167844644Y-113900500D01*
X167844646Y-113900500D01*
X168029803Y-113861144D01*
X168202730Y-113784151D01*
X168355871Y-113672888D01*
X168482533Y-113532216D01*
X168577179Y-113368284D01*
X168635674Y-113188256D01*
X168655460Y-113000000D01*
X168635674Y-112811744D01*
X168635671Y-112811737D01*
X168634322Y-112805383D01*
X168635801Y-112805068D01*
X168634028Y-112742976D01*
X168670109Y-112683144D01*
X168732810Y-112652316D01*
X168753954Y-112650500D01*
X168844644Y-112650500D01*
X168844646Y-112650500D01*
X169029803Y-112611144D01*
X169202730Y-112534151D01*
X169355871Y-112422888D01*
X169482533Y-112282216D01*
X169577179Y-112118284D01*
X169635674Y-111938256D01*
X169655460Y-111750000D01*
X169635674Y-111561744D01*
X169577179Y-111381716D01*
X169482533Y-111217784D01*
X169421928Y-111150475D01*
X175274637Y-111150475D01*
X175274637Y-111150484D01*
X175294460Y-111415015D01*
X175294461Y-111415020D01*
X175353490Y-111673646D01*
X175353496Y-111673665D01*
X175450414Y-111920608D01*
X175450413Y-111920608D01*
X175583056Y-112150351D01*
X175633241Y-112213283D01*
X176333676Y-111512848D01*
X176340561Y-111529469D01*
X176428122Y-111660514D01*
X176539566Y-111771958D01*
X176670611Y-111859519D01*
X176687230Y-111866402D01*
X175986038Y-112567593D01*
X176162118Y-112687642D01*
X176162126Y-112687647D01*
X176401130Y-112802744D01*
X176401128Y-112802744D01*
X176654625Y-112880938D01*
X176654631Y-112880939D01*
X176916951Y-112920479D01*
X176916958Y-112920480D01*
X177182242Y-112920480D01*
X177182248Y-112920479D01*
X177444568Y-112880939D01*
X177444574Y-112880938D01*
X177698070Y-112802744D01*
X177937074Y-112687647D01*
X177937084Y-112687640D01*
X178113160Y-112567593D01*
X177411969Y-111866403D01*
X177428589Y-111859519D01*
X177559634Y-111771958D01*
X177671078Y-111660514D01*
X177758639Y-111529469D01*
X177765523Y-111512849D01*
X178465957Y-112213283D01*
X178516142Y-112150351D01*
X178648785Y-111920608D01*
X178745703Y-111673665D01*
X178745709Y-111673646D01*
X178804738Y-111415020D01*
X178804739Y-111415016D01*
X178810122Y-111343183D01*
X178834761Y-111277802D01*
X178890836Y-111236121D01*
X178960544Y-111231373D01*
X178988619Y-111241237D01*
X179167242Y-111329324D01*
X179167252Y-111329328D01*
X179452743Y-111426239D01*
X179452747Y-111426240D01*
X179452756Y-111426243D01*
X179748474Y-111485065D01*
X180049340Y-111504785D01*
X180350206Y-111485065D01*
X180645924Y-111426243D01*
X180679001Y-111415015D01*
X180931427Y-111329328D01*
X180931437Y-111329324D01*
X181201853Y-111195970D01*
X181452550Y-111028459D01*
X181679239Y-110829659D01*
X181878039Y-110602970D01*
X182045550Y-110352273D01*
X182145438Y-110149720D01*
X183528651Y-110149720D01*
X183547378Y-110387683D01*
X183603101Y-110619788D01*
X183694448Y-110840320D01*
X183694450Y-110840324D01*
X183694451Y-110840325D01*
X183819172Y-111043852D01*
X183974197Y-111225363D01*
X184155708Y-111380388D01*
X184359235Y-111505109D01*
X184359237Y-111505109D01*
X184359239Y-111505111D01*
X184418045Y-111529469D01*
X184579767Y-111596457D01*
X184811874Y-111652181D01*
X185049840Y-111670909D01*
X185287806Y-111652181D01*
X185519913Y-111596457D01*
X185740445Y-111505109D01*
X185943972Y-111380388D01*
X186125483Y-111225363D01*
X186280508Y-111043852D01*
X186405229Y-110840325D01*
X186496577Y-110619793D01*
X186552301Y-110387686D01*
X186571029Y-110149720D01*
X186552301Y-109911754D01*
X186496577Y-109679647D01*
X186410934Y-109472888D01*
X186405231Y-109459119D01*
X186403657Y-109456551D01*
X186280508Y-109255588D01*
X186125483Y-109074077D01*
X185975564Y-108946034D01*
X185937372Y-108887528D01*
X185932957Y-108837168D01*
X185933056Y-108836328D01*
X185179560Y-108082833D01*
X185242980Y-108065840D01*
X185357081Y-107999964D01*
X185450244Y-107906801D01*
X185516120Y-107792700D01*
X185533113Y-107729280D01*
X186286609Y-108482777D01*
X186286610Y-108482777D01*
X186404783Y-108289938D01*
X186496097Y-108069485D01*
X186551806Y-107837443D01*
X186570527Y-107599560D01*
X186551806Y-107361676D01*
X186496097Y-107129634D01*
X186404783Y-106909181D01*
X186286609Y-106716341D01*
X185533112Y-107469838D01*
X185516120Y-107406420D01*
X185450244Y-107292319D01*
X185357081Y-107199156D01*
X185242980Y-107133280D01*
X185179558Y-107116286D01*
X185933057Y-106362789D01*
X185740218Y-106244616D01*
X185519764Y-106153302D01*
X185519767Y-106153302D01*
X185287723Y-106097593D01*
X185049840Y-106078872D01*
X184811956Y-106097593D01*
X184579914Y-106153302D01*
X184359461Y-106244616D01*
X184166621Y-106362789D01*
X184920119Y-107116286D01*
X184856700Y-107133280D01*
X184742599Y-107199156D01*
X184649436Y-107292319D01*
X184583560Y-107406420D01*
X184566566Y-107469839D01*
X183813069Y-106716341D01*
X183694896Y-106909181D01*
X183603582Y-107129634D01*
X183547873Y-107361676D01*
X183529152Y-107599560D01*
X183547873Y-107837443D01*
X183603582Y-108069485D01*
X183694896Y-108289938D01*
X183813069Y-108482777D01*
X184566566Y-107729280D01*
X184583560Y-107792700D01*
X184649436Y-107906801D01*
X184742599Y-107999964D01*
X184856700Y-108065840D01*
X184920119Y-108082833D01*
X184166621Y-108836329D01*
X184166721Y-108837171D01*
X184155053Y-108906059D01*
X184124113Y-108946036D01*
X183974197Y-109074077D01*
X183819172Y-109255587D01*
X183694448Y-109459119D01*
X183603101Y-109679651D01*
X183547378Y-109911756D01*
X183528651Y-110149720D01*
X182145438Y-110149720D01*
X182178905Y-110081855D01*
X182275823Y-109796344D01*
X182334645Y-109500626D01*
X182354365Y-109199760D01*
X182334645Y-108898894D01*
X182275823Y-108603176D01*
X182178905Y-108317665D01*
X182154307Y-108267785D01*
X182045554Y-108047255D01*
X182045552Y-108047252D01*
X182045550Y-108047248D01*
X181878039Y-107796550D01*
X181827762Y-107739220D01*
X181679239Y-107569860D01*
X181452551Y-107371062D01*
X181440045Y-107362706D01*
X181265393Y-107246006D01*
X181201858Y-107203553D01*
X181201855Y-107203551D01*
X181201853Y-107203550D01*
X181150495Y-107178223D01*
X180931437Y-107070195D01*
X180931427Y-107070191D01*
X180645936Y-106973280D01*
X180645916Y-106973275D01*
X180350216Y-106914457D01*
X180350206Y-106914455D01*
X180049340Y-106894735D01*
X179748474Y-106914455D01*
X179748468Y-106914456D01*
X179748463Y-106914457D01*
X179452763Y-106973275D01*
X179452748Y-106973279D01*
X179167249Y-107070193D01*
X179167228Y-107070202D01*
X178896835Y-107203545D01*
X178896828Y-107203550D01*
X178646131Y-107371059D01*
X178419440Y-107569860D01*
X178220639Y-107796551D01*
X178053130Y-108047248D01*
X178053125Y-108047255D01*
X177919782Y-108317648D01*
X177919773Y-108317669D01*
X177822859Y-108603168D01*
X177822855Y-108603183D01*
X177765483Y-108891615D01*
X177764035Y-108898894D01*
X177748011Y-109143371D01*
X177744315Y-109199760D01*
X177753458Y-109339258D01*
X177738199Y-109407441D01*
X177688501Y-109456551D01*
X177620141Y-109470996D01*
X177593173Y-109465858D01*
X177444574Y-109420021D01*
X177444568Y-109420020D01*
X177182248Y-109380480D01*
X176916951Y-109380480D01*
X176654631Y-109420020D01*
X176654625Y-109420021D01*
X176401129Y-109498215D01*
X176162124Y-109613314D01*
X176162111Y-109613321D01*
X175986038Y-109733364D01*
X176687230Y-110434556D01*
X176670611Y-110441441D01*
X176539566Y-110529002D01*
X176428122Y-110640446D01*
X176340561Y-110771491D01*
X176333676Y-110788110D01*
X175633242Y-110087676D01*
X175583057Y-110150607D01*
X175450414Y-110380351D01*
X175353496Y-110627294D01*
X175353490Y-110627313D01*
X175294461Y-110885939D01*
X175294460Y-110885944D01*
X175274637Y-111150475D01*
X169421928Y-111150475D01*
X169355871Y-111077112D01*
X169355870Y-111077111D01*
X169202734Y-110965851D01*
X169202729Y-110965848D01*
X169029807Y-110888857D01*
X169029802Y-110888855D01*
X168884001Y-110857865D01*
X168844646Y-110849500D01*
X168655354Y-110849500D01*
X168622897Y-110856398D01*
X168470197Y-110888855D01*
X168470192Y-110888857D01*
X168297270Y-110965848D01*
X168297265Y-110965851D01*
X168144129Y-111077111D01*
X168017466Y-111217785D01*
X167922821Y-111381715D01*
X167922818Y-111381722D01*
X167864327Y-111561740D01*
X167864326Y-111561744D01*
X167844540Y-111750000D01*
X167862471Y-111920608D01*
X167864327Y-111938261D01*
X167865678Y-111944617D01*
X167864198Y-111944931D01*
X167865972Y-112007024D01*
X167829891Y-112066856D01*
X167767190Y-112097684D01*
X167746046Y-112099500D01*
X167655354Y-112099500D01*
X167622897Y-112106398D01*
X167470197Y-112138855D01*
X167470192Y-112138857D01*
X167297270Y-112215848D01*
X167297265Y-112215851D01*
X167144129Y-112327111D01*
X167017466Y-112467785D01*
X166922821Y-112631715D01*
X166922818Y-112631722D01*
X166867250Y-112802744D01*
X166864326Y-112811744D01*
X166844540Y-113000000D01*
X153115612Y-113000000D01*
X153135674Y-112938256D01*
X153155460Y-112750000D01*
X153135674Y-112561744D01*
X153077179Y-112381716D01*
X152982533Y-112217784D01*
X152855871Y-112077112D01*
X152841755Y-112066856D01*
X152702734Y-111965851D01*
X152702729Y-111965848D01*
X152529807Y-111888857D01*
X152529802Y-111888855D01*
X152384001Y-111857865D01*
X152344646Y-111849500D01*
X152155354Y-111849500D01*
X152122897Y-111856398D01*
X151970197Y-111888855D01*
X151970192Y-111888857D01*
X151797270Y-111965848D01*
X151797265Y-111965851D01*
X151644129Y-112077111D01*
X151517466Y-112217785D01*
X151422821Y-112381715D01*
X151422818Y-112381722D01*
X151364327Y-112561740D01*
X151364326Y-112561744D01*
X151344540Y-112750000D01*
X151364326Y-112938256D01*
X151364327Y-112938259D01*
X151400568Y-113049797D01*
X151402563Y-113119638D01*
X151366483Y-113179471D01*
X151303782Y-113210299D01*
X151234368Y-113202334D01*
X151190487Y-113171087D01*
X151105870Y-113077111D01*
X150952734Y-112965851D01*
X150952729Y-112965848D01*
X150779807Y-112888857D01*
X150779802Y-112888855D01*
X150634001Y-112857865D01*
X150594646Y-112849500D01*
X150405354Y-112849500D01*
X150372897Y-112856398D01*
X150220197Y-112888855D01*
X150220192Y-112888857D01*
X150047270Y-112965848D01*
X150047265Y-112965851D01*
X149894129Y-113077111D01*
X149767466Y-113217785D01*
X149672821Y-113381715D01*
X149672819Y-113381719D01*
X149619930Y-113544495D01*
X149580492Y-113602170D01*
X149516133Y-113629368D01*
X149476219Y-113627466D01*
X149344646Y-113599500D01*
X149155354Y-113599500D01*
X149142793Y-113602170D01*
X148970197Y-113638855D01*
X148970192Y-113638857D01*
X148797270Y-113715848D01*
X148797265Y-113715851D01*
X148644129Y-113827111D01*
X148517466Y-113967785D01*
X148422821Y-114131715D01*
X148422818Y-114131722D01*
X148373921Y-114282214D01*
X148364326Y-114311744D01*
X148344540Y-114500000D01*
X113300500Y-114500000D01*
X113300500Y-109500000D01*
X153782040Y-109500000D01*
X153801826Y-109688256D01*
X153801827Y-109688259D01*
X153860318Y-109868277D01*
X153860321Y-109868284D01*
X153954967Y-110032216D01*
X154061567Y-110150607D01*
X154081629Y-110172888D01*
X154234765Y-110284148D01*
X154234770Y-110284151D01*
X154407692Y-110361142D01*
X154407697Y-110361144D01*
X154592854Y-110400500D01*
X154592855Y-110400500D01*
X154782144Y-110400500D01*
X154782146Y-110400500D01*
X154967303Y-110361144D01*
X155140230Y-110284151D01*
X155293371Y-110172888D01*
X155420033Y-110032216D01*
X155514679Y-109868284D01*
X155573174Y-109688256D01*
X155592960Y-109500000D01*
X155573174Y-109311744D01*
X155514679Y-109131716D01*
X155420033Y-108967784D01*
X155293371Y-108827112D01*
X155293370Y-108827111D01*
X155140234Y-108715851D01*
X155140229Y-108715848D01*
X154967307Y-108638857D01*
X154967302Y-108638855D01*
X154799440Y-108603176D01*
X154782146Y-108599500D01*
X154592854Y-108599500D01*
X154575560Y-108603176D01*
X154407697Y-108638855D01*
X154407692Y-108638857D01*
X154234770Y-108715848D01*
X154234765Y-108715851D01*
X154081629Y-108827111D01*
X153954966Y-108967785D01*
X153860321Y-109131715D01*
X153860318Y-109131722D01*
X153820072Y-109255588D01*
X153801826Y-109311744D01*
X153782040Y-109500000D01*
X113300500Y-109500000D01*
X113300500Y-107550962D01*
X157094540Y-107550962D01*
X157114326Y-107739218D01*
X157114327Y-107739220D01*
X157114327Y-107739221D01*
X157172818Y-107919239D01*
X157172821Y-107919246D01*
X157267467Y-108083178D01*
X157394129Y-108223850D01*
X157547265Y-108335110D01*
X157547270Y-108335113D01*
X157720192Y-108412104D01*
X157720193Y-108412104D01*
X157720197Y-108412106D01*
X157780985Y-108425026D01*
X157842465Y-108458217D01*
X157876242Y-108519380D01*
X157873135Y-108584632D01*
X157864326Y-108611741D01*
X157853384Y-108715849D01*
X157844540Y-108800000D01*
X157864326Y-108988256D01*
X157864327Y-108988259D01*
X157922818Y-109168277D01*
X157922821Y-109168284D01*
X158017467Y-109332216D01*
X158129419Y-109456551D01*
X158144129Y-109472888D01*
X158297265Y-109584148D01*
X158297270Y-109584151D01*
X158470192Y-109661142D01*
X158470197Y-109661144D01*
X158655354Y-109700500D01*
X158655355Y-109700500D01*
X158844644Y-109700500D01*
X158844646Y-109700500D01*
X159029803Y-109661144D01*
X159202730Y-109584151D01*
X159318554Y-109500000D01*
X167344540Y-109500000D01*
X167364326Y-109688256D01*
X167364327Y-109688259D01*
X167422818Y-109868277D01*
X167422821Y-109868284D01*
X167517467Y-110032216D01*
X167624067Y-110150607D01*
X167644129Y-110172888D01*
X167797265Y-110284148D01*
X167797270Y-110284151D01*
X167970192Y-110361142D01*
X167970197Y-110361144D01*
X168155354Y-110400500D01*
X168155355Y-110400500D01*
X168344644Y-110400500D01*
X168344646Y-110400500D01*
X168529803Y-110361144D01*
X168702730Y-110284151D01*
X168855871Y-110172888D01*
X168982533Y-110032216D01*
X169077179Y-109868284D01*
X169135674Y-109688256D01*
X169155460Y-109500000D01*
X169135674Y-109311744D01*
X169077179Y-109131716D01*
X168982533Y-108967784D01*
X168855871Y-108827112D01*
X168855870Y-108827111D01*
X168702734Y-108715851D01*
X168702729Y-108715848D01*
X168529807Y-108638857D01*
X168529802Y-108638855D01*
X168361940Y-108603176D01*
X168344646Y-108599500D01*
X168155354Y-108599500D01*
X168138060Y-108603176D01*
X167970197Y-108638855D01*
X167970192Y-108638857D01*
X167797270Y-108715848D01*
X167797265Y-108715851D01*
X167644129Y-108827111D01*
X167517466Y-108967785D01*
X167422821Y-109131715D01*
X167422818Y-109131722D01*
X167382572Y-109255588D01*
X167364326Y-109311744D01*
X167344540Y-109500000D01*
X159318554Y-109500000D01*
X159355871Y-109472888D01*
X159482533Y-109332216D01*
X159577179Y-109168284D01*
X159635674Y-108988256D01*
X159655460Y-108800000D01*
X159635674Y-108611744D01*
X159577179Y-108431716D01*
X159482533Y-108267784D01*
X159355871Y-108127112D01*
X159318472Y-108099940D01*
X159202734Y-108015851D01*
X159202729Y-108015848D01*
X159029807Y-107938857D01*
X159029802Y-107938855D01*
X158969015Y-107925935D01*
X158907533Y-107892743D01*
X158873757Y-107831580D01*
X158876865Y-107766326D01*
X158885674Y-107739218D01*
X158905460Y-107550962D01*
X158885674Y-107362706D01*
X158827179Y-107182678D01*
X158732533Y-107018746D01*
X158605871Y-106878074D01*
X158605870Y-106878073D01*
X158452734Y-106766813D01*
X158452729Y-106766810D01*
X158279807Y-106689819D01*
X158279802Y-106689817D01*
X158116880Y-106655188D01*
X158094646Y-106650462D01*
X157905354Y-106650462D01*
X157883120Y-106655188D01*
X157720197Y-106689817D01*
X157720192Y-106689819D01*
X157547270Y-106766810D01*
X157547265Y-106766813D01*
X157394129Y-106878073D01*
X157267466Y-107018747D01*
X157172821Y-107182677D01*
X157172818Y-107182684D01*
X157114327Y-107362702D01*
X157114326Y-107362706D01*
X157094540Y-107550962D01*
X113300500Y-107550962D01*
X113300500Y-106647600D01*
X160794901Y-106647600D01*
X160813252Y-106833931D01*
X160813253Y-106833933D01*
X160867604Y-107013102D01*
X160955862Y-107178223D01*
X160955864Y-107178226D01*
X161074642Y-107322957D01*
X161219373Y-107441735D01*
X161219376Y-107441737D01*
X161341994Y-107507277D01*
X161384499Y-107529996D01*
X161563666Y-107584346D01*
X161563668Y-107584347D01*
X161580374Y-107585992D01*
X161750000Y-107602699D01*
X161936331Y-107584347D01*
X162115501Y-107529996D01*
X162280625Y-107441736D01*
X162425357Y-107322957D01*
X162544136Y-107178225D01*
X162632396Y-107013101D01*
X162686747Y-106833931D01*
X162705099Y-106647600D01*
X162686747Y-106461269D01*
X162632396Y-106282099D01*
X162544136Y-106116975D01*
X162544135Y-106116973D01*
X162425357Y-105972242D01*
X162280626Y-105853464D01*
X162280623Y-105853462D01*
X162115502Y-105765204D01*
X161936333Y-105710853D01*
X161936331Y-105710852D01*
X161750000Y-105692501D01*
X161563668Y-105710852D01*
X161563666Y-105710853D01*
X161384497Y-105765204D01*
X161219376Y-105853462D01*
X161219373Y-105853464D01*
X161074642Y-105972242D01*
X160955864Y-106116973D01*
X160955862Y-106116976D01*
X160867604Y-106282097D01*
X160813253Y-106461266D01*
X160813252Y-106461268D01*
X160794901Y-106647600D01*
X113300500Y-106647600D01*
X113300500Y-103000000D01*
X147644540Y-103000000D01*
X147664326Y-103188256D01*
X147664327Y-103188259D01*
X147722818Y-103368277D01*
X147722821Y-103368284D01*
X147817467Y-103532216D01*
X147941626Y-103670108D01*
X147944129Y-103672888D01*
X148097265Y-103784148D01*
X148097270Y-103784151D01*
X148270192Y-103861142D01*
X148270197Y-103861144D01*
X148455354Y-103900500D01*
X148455355Y-103900500D01*
X148644644Y-103900500D01*
X148644646Y-103900500D01*
X148829803Y-103861144D01*
X149002730Y-103784151D01*
X149118554Y-103700000D01*
X152544901Y-103700000D01*
X152563252Y-103886331D01*
X152563253Y-103886333D01*
X152617604Y-104065502D01*
X152705862Y-104230623D01*
X152705864Y-104230626D01*
X152824642Y-104375357D01*
X152969373Y-104494135D01*
X152969376Y-104494137D01*
X153134497Y-104582395D01*
X153134499Y-104582396D01*
X153313666Y-104636746D01*
X153313668Y-104636747D01*
X153330374Y-104638392D01*
X153500000Y-104655099D01*
X153686331Y-104636747D01*
X153865501Y-104582396D01*
X154030625Y-104494136D01*
X154175357Y-104375357D01*
X154294136Y-104230625D01*
X154382396Y-104065501D01*
X154436747Y-103886331D01*
X154455099Y-103700000D01*
X154440325Y-103550000D01*
X156544540Y-103550000D01*
X156564326Y-103738256D01*
X156564327Y-103738259D01*
X156622818Y-103918277D01*
X156622821Y-103918284D01*
X156717467Y-104082216D01*
X156838332Y-104216450D01*
X156844129Y-104222888D01*
X156997265Y-104334148D01*
X156997270Y-104334151D01*
X157170192Y-104411142D01*
X157170197Y-104411144D01*
X157355354Y-104450500D01*
X157355355Y-104450500D01*
X157544644Y-104450500D01*
X157544646Y-104450500D01*
X157729803Y-104411144D01*
X157902730Y-104334151D01*
X158055871Y-104222888D01*
X158182533Y-104082216D01*
X158277179Y-103918284D01*
X158335674Y-103738256D01*
X158355460Y-103550000D01*
X158335674Y-103361744D01*
X158277179Y-103181716D01*
X158182533Y-103017784D01*
X158055871Y-102877112D01*
X158055870Y-102877111D01*
X157902734Y-102765851D01*
X157902729Y-102765848D01*
X157729807Y-102688857D01*
X157729802Y-102688855D01*
X157584001Y-102657865D01*
X157544646Y-102649500D01*
X157355354Y-102649500D01*
X157322897Y-102656398D01*
X157170197Y-102688855D01*
X157170192Y-102688857D01*
X156997270Y-102765848D01*
X156997265Y-102765851D01*
X156844129Y-102877111D01*
X156717466Y-103017785D01*
X156622821Y-103181715D01*
X156622818Y-103181722D01*
X156573179Y-103334497D01*
X156564326Y-103361744D01*
X156544540Y-103550000D01*
X154440325Y-103550000D01*
X154436747Y-103513669D01*
X154382396Y-103334499D01*
X154379933Y-103329891D01*
X154294137Y-103169376D01*
X154294135Y-103169373D01*
X154175357Y-103024642D01*
X154030626Y-102905864D01*
X154030623Y-102905862D01*
X153865502Y-102817604D01*
X153686333Y-102763253D01*
X153686331Y-102763252D01*
X153500000Y-102744901D01*
X153313668Y-102763252D01*
X153313666Y-102763253D01*
X153134497Y-102817604D01*
X152969376Y-102905862D01*
X152969373Y-102905864D01*
X152824642Y-103024642D01*
X152705864Y-103169373D01*
X152705862Y-103169376D01*
X152617604Y-103334497D01*
X152563253Y-103513666D01*
X152563252Y-103513668D01*
X152544901Y-103700000D01*
X149118554Y-103700000D01*
X149155871Y-103672888D01*
X149282533Y-103532216D01*
X149377179Y-103368284D01*
X149435674Y-103188256D01*
X149455460Y-103000000D01*
X149435674Y-102811744D01*
X149377179Y-102631716D01*
X149282533Y-102467784D01*
X149155871Y-102327112D01*
X149081285Y-102272922D01*
X149002734Y-102215851D01*
X149002729Y-102215848D01*
X148829807Y-102138857D01*
X148829802Y-102138855D01*
X148684001Y-102107865D01*
X148644646Y-102099500D01*
X148455354Y-102099500D01*
X148422897Y-102106398D01*
X148270197Y-102138855D01*
X148270192Y-102138857D01*
X148097270Y-102215848D01*
X148097265Y-102215851D01*
X147944129Y-102327111D01*
X147817466Y-102467785D01*
X147722821Y-102631715D01*
X147722818Y-102631722D01*
X147664327Y-102811740D01*
X147664326Y-102811744D01*
X147644540Y-103000000D01*
X113300500Y-103000000D01*
X113300500Y-99500000D01*
X130044901Y-99500000D01*
X130063252Y-99686331D01*
X130063253Y-99686333D01*
X130117604Y-99865502D01*
X130205862Y-100030623D01*
X130205864Y-100030626D01*
X130324642Y-100175357D01*
X130469373Y-100294135D01*
X130469376Y-100294137D01*
X130634497Y-100382395D01*
X130634499Y-100382396D01*
X130744785Y-100415851D01*
X130813666Y-100436746D01*
X130813668Y-100436747D01*
X130830374Y-100438392D01*
X131000000Y-100455099D01*
X131186331Y-100436747D01*
X131365501Y-100382396D01*
X131530625Y-100294136D01*
X131675357Y-100175357D01*
X131794136Y-100030625D01*
X131882396Y-99865501D01*
X131904879Y-99791382D01*
X131943174Y-99732947D01*
X132006986Y-99704490D01*
X132011347Y-99703981D01*
X132186331Y-99686747D01*
X132365501Y-99632396D01*
X132530625Y-99544136D01*
X132675357Y-99425357D01*
X132794136Y-99280625D01*
X132882396Y-99115501D01*
X132904879Y-99041382D01*
X132943174Y-98982947D01*
X133006986Y-98954490D01*
X133011347Y-98953981D01*
X133186331Y-98936747D01*
X133365501Y-98882396D01*
X133530625Y-98794136D01*
X133675357Y-98675357D01*
X133794136Y-98530625D01*
X133826946Y-98469239D01*
X133875907Y-98419395D01*
X133944045Y-98403933D01*
X133972301Y-98409031D01*
X134063666Y-98436746D01*
X134063668Y-98436747D01*
X134080374Y-98438392D01*
X134250000Y-98455099D01*
X134436331Y-98436747D01*
X134615501Y-98382396D01*
X134780625Y-98294136D01*
X134925357Y-98175357D01*
X135044136Y-98030625D01*
X135121539Y-97885812D01*
X135170498Y-97835971D01*
X135218740Y-97820865D01*
X135298709Y-97812990D01*
X135311332Y-97811747D01*
X135402302Y-97784151D01*
X135490501Y-97757396D01*
X135655625Y-97669136D01*
X135800357Y-97550357D01*
X135919136Y-97405625D01*
X136007396Y-97240501D01*
X136061747Y-97061331D01*
X136062942Y-97049195D01*
X136089100Y-96984408D01*
X136146133Y-96944046D01*
X136174194Y-96937942D01*
X136186331Y-96936747D01*
X136365501Y-96882396D01*
X136530625Y-96794136D01*
X136675357Y-96675357D01*
X136794136Y-96530625D01*
X136842948Y-96439302D01*
X136891909Y-96389459D01*
X136960047Y-96373998D01*
X137025727Y-96397829D01*
X137068096Y-96453386D01*
X137070966Y-96461760D01*
X137117604Y-96615502D01*
X137205860Y-96780618D01*
X137205864Y-96780625D01*
X137216953Y-96794137D01*
X137218758Y-96796336D01*
X137246070Y-96860646D01*
X137234278Y-96929514D01*
X137218758Y-96953664D01*
X137205864Y-96969375D01*
X137205860Y-96969381D01*
X137117604Y-97134497D01*
X137063253Y-97313666D01*
X137063252Y-97313668D01*
X137044901Y-97500000D01*
X137063252Y-97686331D01*
X137063253Y-97686333D01*
X137117604Y-97865502D01*
X137205862Y-98030623D01*
X137205864Y-98030626D01*
X137313388Y-98161643D01*
X137340701Y-98225953D01*
X137336196Y-98276301D01*
X137318498Y-98334646D01*
X137318497Y-98334648D01*
X137300146Y-98520980D01*
X137305284Y-98573148D01*
X137292265Y-98641794D01*
X137244200Y-98692504D01*
X137240335Y-98694660D01*
X137219377Y-98705862D01*
X137219373Y-98705864D01*
X137074642Y-98824642D01*
X136955864Y-98969373D01*
X136955862Y-98969376D01*
X136867604Y-99134497D01*
X136813253Y-99313666D01*
X136813252Y-99313668D01*
X136794901Y-99500000D01*
X136813252Y-99686331D01*
X136813253Y-99686333D01*
X136867604Y-99865502D01*
X136955862Y-100030623D01*
X136955864Y-100030626D01*
X137071341Y-100171335D01*
X137098654Y-100235645D01*
X137086863Y-100304513D01*
X137071341Y-100328665D01*
X136955864Y-100469373D01*
X136955862Y-100469376D01*
X136867604Y-100634497D01*
X136813253Y-100813666D01*
X136813252Y-100813668D01*
X136794901Y-101000000D01*
X136813252Y-101186331D01*
X136813253Y-101186333D01*
X136867604Y-101365502D01*
X136955862Y-101530623D01*
X136955864Y-101530626D01*
X137074642Y-101675357D01*
X137219373Y-101794135D01*
X137219376Y-101794137D01*
X137384497Y-101882395D01*
X137384499Y-101882396D01*
X137563666Y-101936746D01*
X137563668Y-101936747D01*
X137580374Y-101938392D01*
X137750000Y-101955099D01*
X137936331Y-101936747D01*
X138115501Y-101882396D01*
X138280625Y-101794136D01*
X138425357Y-101675357D01*
X138544136Y-101530625D01*
X138632396Y-101365501D01*
X138682601Y-101200000D01*
X157094540Y-101200000D01*
X157114326Y-101388256D01*
X157114327Y-101388259D01*
X157172818Y-101568277D01*
X157172821Y-101568284D01*
X157267467Y-101732216D01*
X157340617Y-101813457D01*
X157394129Y-101872888D01*
X157547265Y-101984148D01*
X157547270Y-101984151D01*
X157720192Y-102061142D01*
X157720197Y-102061144D01*
X157905354Y-102100500D01*
X157905355Y-102100500D01*
X158094644Y-102100500D01*
X158094646Y-102100500D01*
X158279803Y-102061144D01*
X158452730Y-101984151D01*
X158605871Y-101872888D01*
X158732533Y-101732216D01*
X158808823Y-101600077D01*
X169893903Y-101600077D01*
X169893903Y-101600082D01*
X169912973Y-101818055D01*
X169912973Y-101818059D01*
X169969602Y-102029402D01*
X169969604Y-102029406D01*
X169969605Y-102029410D01*
X170002289Y-102099500D01*
X170062077Y-102227718D01*
X170062078Y-102227719D01*
X170187582Y-102406957D01*
X170342303Y-102561678D01*
X170467726Y-102649500D01*
X170521541Y-102687182D01*
X170629187Y-102737378D01*
X170681626Y-102783550D01*
X170700778Y-102850744D01*
X170680562Y-102917625D01*
X170629187Y-102962142D01*
X170521541Y-103012338D01*
X170521537Y-103012340D01*
X170342301Y-103137842D01*
X170187582Y-103292561D01*
X170062080Y-103471797D01*
X170062078Y-103471801D01*
X169969606Y-103670108D01*
X169969602Y-103670117D01*
X169912973Y-103881460D01*
X169912973Y-103881464D01*
X169893903Y-104099437D01*
X169893903Y-104099442D01*
X169898261Y-104149257D01*
X169912570Y-104312816D01*
X169912973Y-104317415D01*
X169912973Y-104317419D01*
X169969602Y-104528762D01*
X169969604Y-104528766D01*
X169969605Y-104528770D01*
X170015841Y-104627924D01*
X170062077Y-104727078D01*
X170062078Y-104727079D01*
X170187582Y-104906317D01*
X170342303Y-105061038D01*
X170521541Y-105186542D01*
X170719850Y-105279015D01*
X170719860Y-105279017D01*
X170719861Y-105279018D01*
X170724068Y-105280146D01*
X170783728Y-105316512D01*
X170814256Y-105379360D01*
X170805959Y-105448735D01*
X170761473Y-105502612D01*
X170724068Y-105519694D01*
X170719861Y-105520821D01*
X170719851Y-105520824D01*
X170719850Y-105520825D01*
X170719848Y-105520826D01*
X170521541Y-105613298D01*
X170521537Y-105613300D01*
X170342301Y-105738802D01*
X170187582Y-105893521D01*
X170062080Y-106072757D01*
X170062078Y-106072761D01*
X169969606Y-106271068D01*
X169969602Y-106271077D01*
X169912973Y-106482420D01*
X169912973Y-106482424D01*
X169893903Y-106700397D01*
X169893903Y-106700402D01*
X169901893Y-106791732D01*
X169912168Y-106909181D01*
X169912973Y-106918375D01*
X169912973Y-106918379D01*
X169969602Y-107129722D01*
X169969604Y-107129726D01*
X169969605Y-107129730D01*
X170004026Y-107203546D01*
X170062077Y-107328038D01*
X170062078Y-107328039D01*
X170187582Y-107507277D01*
X170342303Y-107661998D01*
X170521541Y-107787502D01*
X170719850Y-107879975D01*
X170931203Y-107936607D01*
X171114106Y-107952608D01*
X171149178Y-107955677D01*
X171149180Y-107955677D01*
X171149182Y-107955677D01*
X171178487Y-107953113D01*
X171367157Y-107936607D01*
X171578510Y-107879975D01*
X171776819Y-107787502D01*
X171956057Y-107661998D01*
X172110778Y-107507277D01*
X172223266Y-107346626D01*
X172277842Y-107303003D01*
X172347341Y-107295811D01*
X172409695Y-107327333D01*
X172445109Y-107387563D01*
X172448840Y-107417752D01*
X172448840Y-108697150D01*
X172448841Y-108697156D01*
X172455248Y-108756763D01*
X172505542Y-108891608D01*
X172505546Y-108891615D01*
X172591792Y-109006824D01*
X172591795Y-109006827D01*
X172707004Y-109093073D01*
X172707011Y-109093077D01*
X172841857Y-109143371D01*
X172841856Y-109143371D01*
X172848784Y-109144115D01*
X172901467Y-109149780D01*
X174497212Y-109149779D01*
X174556823Y-109143371D01*
X174691671Y-109093076D01*
X174806886Y-109006826D01*
X174893136Y-108891611D01*
X174943431Y-108756763D01*
X174949840Y-108697153D01*
X174949839Y-107101408D01*
X174943431Y-107041797D01*
X174932728Y-107013102D01*
X174893137Y-106906951D01*
X174893133Y-106906944D01*
X174806887Y-106791735D01*
X174806884Y-106791732D01*
X174691675Y-106705486D01*
X174691668Y-106705482D01*
X174556822Y-106655188D01*
X174556823Y-106655188D01*
X174497223Y-106648781D01*
X174497221Y-106648780D01*
X174497213Y-106648780D01*
X174497205Y-106648780D01*
X174489242Y-106648780D01*
X174422203Y-106629095D01*
X174376448Y-106576291D01*
X174366504Y-106507133D01*
X174395529Y-106443577D01*
X174418118Y-106423206D01*
X174439331Y-106408351D01*
X174506217Y-106361518D01*
X174660938Y-106206797D01*
X174786442Y-106027559D01*
X174878915Y-105829250D01*
X174935547Y-105617897D01*
X174954617Y-105399920D01*
X174935547Y-105181943D01*
X174878915Y-104970590D01*
X174786442Y-104772282D01*
X174786440Y-104772279D01*
X174786439Y-104772277D01*
X174660939Y-104593044D01*
X174596657Y-104528762D01*
X174506217Y-104438322D01*
X174326979Y-104312818D01*
X174219332Y-104262621D01*
X174166893Y-104216450D01*
X174147741Y-104149257D01*
X174167957Y-104082375D01*
X174219333Y-104037858D01*
X174326979Y-103987662D01*
X174506217Y-103862158D01*
X174660938Y-103707437D01*
X174786442Y-103528199D01*
X174878915Y-103329890D01*
X174935547Y-103118537D01*
X174954617Y-102900560D01*
X174935547Y-102682583D01*
X174878915Y-102471230D01*
X174786442Y-102272922D01*
X174786440Y-102272919D01*
X174786439Y-102272917D01*
X174660939Y-102093684D01*
X174596657Y-102029402D01*
X174506217Y-101938962D01*
X174333547Y-101818057D01*
X174326978Y-101813457D01*
X174227824Y-101767221D01*
X174128670Y-101720985D01*
X174128666Y-101720984D01*
X174128662Y-101720982D01*
X174124454Y-101719855D01*
X174064793Y-101683490D01*
X174034264Y-101620644D01*
X174042558Y-101551268D01*
X174087044Y-101497390D01*
X174124454Y-101480305D01*
X174127368Y-101479523D01*
X174128670Y-101479175D01*
X174326979Y-101386702D01*
X174506217Y-101261198D01*
X174660938Y-101106477D01*
X174786442Y-100927239D01*
X174878915Y-100728930D01*
X174935547Y-100517577D01*
X174954617Y-100299600D01*
X174954608Y-100299500D01*
X174949022Y-100235645D01*
X174935547Y-100081623D01*
X174887015Y-99900500D01*
X174878917Y-99870277D01*
X174878916Y-99870276D01*
X174878915Y-99870270D01*
X174786442Y-99671962D01*
X174786440Y-99671959D01*
X174786439Y-99671957D01*
X174660939Y-99492724D01*
X174593572Y-99425357D01*
X174506217Y-99338002D01*
X174326979Y-99212498D01*
X174326980Y-99212498D01*
X174326978Y-99212497D01*
X174214199Y-99159908D01*
X174128670Y-99120025D01*
X174128666Y-99120024D01*
X174128662Y-99120022D01*
X173917317Y-99063393D01*
X173699342Y-99044323D01*
X173699338Y-99044323D01*
X173554022Y-99057036D01*
X173481363Y-99063393D01*
X173481360Y-99063393D01*
X173270017Y-99120022D01*
X173270008Y-99120026D01*
X173071701Y-99212498D01*
X173071697Y-99212500D01*
X172892461Y-99338002D01*
X172737742Y-99492721D01*
X172612240Y-99671957D01*
X172612238Y-99671961D01*
X172552139Y-99800844D01*
X172524022Y-99861142D01*
X172519766Y-99870268D01*
X172519762Y-99870277D01*
X172463133Y-100081620D01*
X172463133Y-100081624D01*
X172444063Y-100299597D01*
X172444063Y-100299602D01*
X172453598Y-100408588D01*
X172456061Y-100436747D01*
X172463133Y-100517575D01*
X172463133Y-100517579D01*
X172519762Y-100728922D01*
X172519764Y-100728926D01*
X172519765Y-100728930D01*
X172566001Y-100828084D01*
X172612237Y-100927238D01*
X172612238Y-100927239D01*
X172737742Y-101106477D01*
X172892463Y-101261198D01*
X173071701Y-101386702D01*
X173270010Y-101479175D01*
X173270020Y-101479177D01*
X173270021Y-101479178D01*
X173274228Y-101480306D01*
X173333888Y-101516672D01*
X173364416Y-101579520D01*
X173356119Y-101648895D01*
X173311633Y-101702772D01*
X173274228Y-101719854D01*
X173270021Y-101720981D01*
X173270011Y-101720984D01*
X173270010Y-101720985D01*
X173270008Y-101720986D01*
X173071701Y-101813458D01*
X173071697Y-101813460D01*
X172892461Y-101938962D01*
X172737742Y-102093681D01*
X172612240Y-102272917D01*
X172612238Y-102272921D01*
X172519766Y-102471228D01*
X172519762Y-102471237D01*
X172463133Y-102682580D01*
X172463133Y-102682584D01*
X172447329Y-102863233D01*
X172444063Y-102900560D01*
X172454318Y-103017784D01*
X172463133Y-103118535D01*
X172463133Y-103118539D01*
X172519762Y-103329882D01*
X172519764Y-103329886D01*
X172519765Y-103329890D01*
X172566001Y-103429044D01*
X172612237Y-103528198D01*
X172627503Y-103550000D01*
X172737742Y-103707437D01*
X172892463Y-103862158D01*
X173071701Y-103987662D01*
X173179347Y-104037858D01*
X173231786Y-104084030D01*
X173250938Y-104151224D01*
X173230722Y-104218105D01*
X173179347Y-104262622D01*
X173071701Y-104312818D01*
X173071697Y-104312820D01*
X172892461Y-104438322D01*
X172737742Y-104593041D01*
X172612240Y-104772277D01*
X172612238Y-104772281D01*
X172519766Y-104970588D01*
X172519762Y-104970597D01*
X172463133Y-105181940D01*
X172463133Y-105181944D01*
X172444063Y-105399917D01*
X172444063Y-105399922D01*
X172463133Y-105617895D01*
X172463133Y-105617899D01*
X172519762Y-105829242D01*
X172519764Y-105829246D01*
X172519765Y-105829250D01*
X172566001Y-105928404D01*
X172612237Y-106027558D01*
X172612238Y-106027559D01*
X172737742Y-106206797D01*
X172892463Y-106361518D01*
X172980563Y-106423206D01*
X173024187Y-106477782D01*
X173031380Y-106547280D01*
X172999858Y-106609635D01*
X172939628Y-106645049D01*
X172909450Y-106648780D01*
X172901475Y-106648780D01*
X172901463Y-106648781D01*
X172841856Y-106655188D01*
X172707011Y-106705482D01*
X172707009Y-106705484D01*
X172601886Y-106784179D01*
X172536422Y-106808596D01*
X172468149Y-106793745D01*
X172418743Y-106744339D01*
X172404047Y-106695719D01*
X172403531Y-106689817D01*
X172385387Y-106482423D01*
X172328755Y-106271070D01*
X172236282Y-106072762D01*
X172236280Y-106072759D01*
X172236279Y-106072757D01*
X172110779Y-105893524D01*
X172046497Y-105829242D01*
X171956057Y-105738802D01*
X171783387Y-105617897D01*
X171776818Y-105613297D01*
X171677664Y-105567061D01*
X171578510Y-105520825D01*
X171578506Y-105520824D01*
X171578502Y-105520822D01*
X171574294Y-105519695D01*
X171514633Y-105483330D01*
X171484104Y-105420484D01*
X171492398Y-105351108D01*
X171536884Y-105297230D01*
X171574294Y-105280145D01*
X171577208Y-105279363D01*
X171578510Y-105279015D01*
X171776819Y-105186542D01*
X171956057Y-105061038D01*
X172110778Y-104906317D01*
X172236282Y-104727079D01*
X172328755Y-104528770D01*
X172385387Y-104317417D01*
X172404457Y-104099440D01*
X172385387Y-103881463D01*
X172328755Y-103670110D01*
X172236282Y-103471802D01*
X172236280Y-103471799D01*
X172236279Y-103471797D01*
X172110779Y-103292564D01*
X172110776Y-103292561D01*
X171956057Y-103137842D01*
X171776819Y-103012338D01*
X171669172Y-102962141D01*
X171616733Y-102915970D01*
X171597581Y-102848777D01*
X171617797Y-102781895D01*
X171669173Y-102737378D01*
X171776819Y-102687182D01*
X171956057Y-102561678D01*
X172110778Y-102406957D01*
X172236282Y-102227719D01*
X172328755Y-102029410D01*
X172385387Y-101818057D01*
X172404457Y-101600080D01*
X172385387Y-101382103D01*
X172336593Y-101200000D01*
X172328757Y-101170757D01*
X172328756Y-101170756D01*
X172328755Y-101170750D01*
X172236282Y-100972442D01*
X172236280Y-100972439D01*
X172236279Y-100972437D01*
X172110779Y-100793204D01*
X172046497Y-100728922D01*
X171956057Y-100638482D01*
X171818158Y-100541924D01*
X171776818Y-100512977D01*
X171668581Y-100462506D01*
X171616142Y-100416334D01*
X171596990Y-100349140D01*
X171617206Y-100282259D01*
X171668582Y-100237742D01*
X171776563Y-100187389D01*
X171776565Y-100187388D01*
X171838751Y-100143844D01*
X171237422Y-99542514D01*
X171322711Y-99519661D01*
X171425228Y-99460473D01*
X171508933Y-99376768D01*
X171568121Y-99274251D01*
X171590974Y-99188961D01*
X172192304Y-99790290D01*
X172235848Y-99728105D01*
X172235849Y-99728103D01*
X172328280Y-99529884D01*
X172328285Y-99529870D01*
X172384890Y-99318614D01*
X172384892Y-99318604D01*
X172403955Y-99100720D01*
X172403955Y-99100719D01*
X172384892Y-98882835D01*
X172384890Y-98882825D01*
X172328285Y-98671569D01*
X172328281Y-98671560D01*
X172235848Y-98473335D01*
X172192303Y-98411148D01*
X171590974Y-99012477D01*
X171568121Y-98927189D01*
X171508933Y-98824672D01*
X171425228Y-98740967D01*
X171322711Y-98681779D01*
X171237421Y-98658925D01*
X171838751Y-98057594D01*
X171776567Y-98014053D01*
X171578339Y-97921618D01*
X171578330Y-97921614D01*
X171367074Y-97865009D01*
X171367064Y-97865007D01*
X171149181Y-97845945D01*
X171149179Y-97845945D01*
X170931295Y-97865007D01*
X170931285Y-97865009D01*
X170720029Y-97921614D01*
X170720020Y-97921618D01*
X170521794Y-98014052D01*
X170521792Y-98014053D01*
X170459608Y-98057595D01*
X170459607Y-98057595D01*
X171060938Y-98658925D01*
X170975649Y-98681779D01*
X170873132Y-98740967D01*
X170789427Y-98824672D01*
X170730239Y-98927189D01*
X170707385Y-99012478D01*
X170106055Y-98411147D01*
X170106055Y-98411148D01*
X170062513Y-98473332D01*
X170062512Y-98473334D01*
X169970078Y-98671560D01*
X169970074Y-98671569D01*
X169913469Y-98882825D01*
X169913467Y-98882835D01*
X169894405Y-99100719D01*
X169894405Y-99100720D01*
X169913467Y-99318604D01*
X169913469Y-99318614D01*
X169970074Y-99529870D01*
X169970078Y-99529879D01*
X170062513Y-99728107D01*
X170106054Y-99790291D01*
X170707384Y-99188960D01*
X170730239Y-99274251D01*
X170789427Y-99376768D01*
X170873132Y-99460473D01*
X170975649Y-99519661D01*
X171060937Y-99542514D01*
X170459607Y-100143844D01*
X170521792Y-100187387D01*
X170629779Y-100237742D01*
X170682218Y-100283914D01*
X170701370Y-100351108D01*
X170681154Y-100417989D01*
X170629779Y-100462506D01*
X170521541Y-100512978D01*
X170521537Y-100512980D01*
X170342301Y-100638482D01*
X170187582Y-100793201D01*
X170062080Y-100972437D01*
X170062078Y-100972441D01*
X169969606Y-101170748D01*
X169969602Y-101170757D01*
X169912973Y-101382100D01*
X169912973Y-101382103D01*
X169908205Y-101436597D01*
X169893903Y-101600077D01*
X158808823Y-101600077D01*
X158827179Y-101568284D01*
X158885674Y-101388256D01*
X158905460Y-101200000D01*
X158885674Y-101011744D01*
X158827179Y-100831716D01*
X158732533Y-100667784D01*
X158605871Y-100527112D01*
X158592750Y-100517579D01*
X158452734Y-100415851D01*
X158452729Y-100415848D01*
X158279807Y-100338857D01*
X158279802Y-100338855D01*
X158134001Y-100307865D01*
X158094646Y-100299500D01*
X157905354Y-100299500D01*
X157872897Y-100306398D01*
X157720197Y-100338855D01*
X157720192Y-100338857D01*
X157547270Y-100415848D01*
X157547265Y-100415851D01*
X157394129Y-100527111D01*
X157267466Y-100667785D01*
X157172821Y-100831715D01*
X157172818Y-100831722D01*
X157127096Y-100972441D01*
X157114326Y-101011744D01*
X157094540Y-101200000D01*
X138682601Y-101200000D01*
X138686747Y-101186331D01*
X138705099Y-101000000D01*
X138686747Y-100813669D01*
X138632396Y-100634499D01*
X138574997Y-100527112D01*
X138544137Y-100469376D01*
X138544135Y-100469373D01*
X138428658Y-100328665D01*
X138401345Y-100264355D01*
X138413136Y-100195488D01*
X138428658Y-100171335D01*
X138544135Y-100030626D01*
X138544137Y-100030623D01*
X138598025Y-99929805D01*
X138632396Y-99865501D01*
X138686747Y-99686331D01*
X138705099Y-99500000D01*
X138699960Y-99447830D01*
X138712978Y-99379186D01*
X138761042Y-99328476D01*
X138764872Y-99326339D01*
X138785870Y-99315116D01*
X138930602Y-99196337D01*
X139049381Y-99051605D01*
X139137641Y-98886481D01*
X139179042Y-98750000D01*
X148044901Y-98750000D01*
X148063252Y-98936331D01*
X148063253Y-98936333D01*
X148117604Y-99115502D01*
X148205862Y-99280623D01*
X148205864Y-99280626D01*
X148324642Y-99425357D01*
X148469373Y-99544135D01*
X148469376Y-99544137D01*
X148628031Y-99628939D01*
X148634499Y-99632396D01*
X148813666Y-99686746D01*
X148813668Y-99686747D01*
X148830374Y-99688392D01*
X149000000Y-99705099D01*
X149186331Y-99686747D01*
X149365501Y-99632396D01*
X149530625Y-99544136D01*
X149675357Y-99425357D01*
X149794136Y-99280625D01*
X149882396Y-99115501D01*
X149917433Y-99000000D01*
X158694540Y-99000000D01*
X158714326Y-99188256D01*
X158714327Y-99188259D01*
X158772818Y-99368277D01*
X158772821Y-99368284D01*
X158867467Y-99532216D01*
X158993291Y-99671957D01*
X158994129Y-99672888D01*
X159147265Y-99784148D01*
X159147270Y-99784151D01*
X159320192Y-99861142D01*
X159320197Y-99861144D01*
X159505354Y-99900500D01*
X159505355Y-99900500D01*
X159694644Y-99900500D01*
X159694646Y-99900500D01*
X159879803Y-99861144D01*
X160052730Y-99784151D01*
X160205871Y-99672888D01*
X160332533Y-99532216D01*
X160427179Y-99368284D01*
X160485674Y-99188256D01*
X160505460Y-99000000D01*
X160485674Y-98811744D01*
X160427179Y-98631716D01*
X160332533Y-98467784D01*
X160205871Y-98327112D01*
X160160485Y-98294137D01*
X160052734Y-98215851D01*
X160052729Y-98215848D01*
X159997569Y-98191289D01*
X162439740Y-98191289D01*
X162459526Y-98379545D01*
X162459527Y-98379548D01*
X162518018Y-98559566D01*
X162518021Y-98559573D01*
X162612667Y-98723505D01*
X162739329Y-98864177D01*
X162892465Y-98975437D01*
X162892470Y-98975440D01*
X163065392Y-99052431D01*
X163065397Y-99052433D01*
X163250554Y-99091789D01*
X163250555Y-99091789D01*
X163439844Y-99091789D01*
X163439846Y-99091789D01*
X163625003Y-99052433D01*
X163797930Y-98975440D01*
X163951071Y-98864177D01*
X164077733Y-98723505D01*
X164172379Y-98559573D01*
X164230874Y-98379545D01*
X164250660Y-98191289D01*
X164230874Y-98003033D01*
X164222560Y-97977448D01*
X164220564Y-97907610D01*
X164256643Y-97847776D01*
X164319343Y-97816947D01*
X164388757Y-97824909D01*
X164390927Y-97825851D01*
X164470192Y-97861142D01*
X164470197Y-97861144D01*
X164655354Y-97900500D01*
X164655355Y-97900500D01*
X164844644Y-97900500D01*
X164844646Y-97900500D01*
X165029803Y-97861144D01*
X165202730Y-97784151D01*
X165355871Y-97672888D01*
X165482533Y-97532216D01*
X165577179Y-97368284D01*
X165588588Y-97333171D01*
X165628025Y-97275496D01*
X165692383Y-97248297D01*
X165761230Y-97260211D01*
X165779402Y-97271169D01*
X165796622Y-97283680D01*
X165797270Y-97284151D01*
X165970192Y-97361142D01*
X165970197Y-97361144D01*
X166155354Y-97400500D01*
X166155355Y-97400500D01*
X166344644Y-97400500D01*
X166344646Y-97400500D01*
X166529803Y-97361144D01*
X166702730Y-97284151D01*
X166855871Y-97172888D01*
X166982533Y-97032216D01*
X167077179Y-96868284D01*
X167135674Y-96688256D01*
X167155460Y-96500000D01*
X167135674Y-96311744D01*
X167077179Y-96131716D01*
X166982533Y-95967784D01*
X166855871Y-95827112D01*
X166854079Y-95825810D01*
X166750362Y-95750455D01*
X175274637Y-95750455D01*
X175274637Y-95750464D01*
X175294460Y-96014995D01*
X175294461Y-96015000D01*
X175353490Y-96273626D01*
X175353496Y-96273645D01*
X175450414Y-96520588D01*
X175450413Y-96520588D01*
X175583056Y-96750331D01*
X175633241Y-96813263D01*
X176333676Y-96112828D01*
X176340561Y-96129449D01*
X176428122Y-96260494D01*
X176539566Y-96371938D01*
X176670611Y-96459499D01*
X176687229Y-96466382D01*
X175986038Y-97167573D01*
X176162118Y-97287622D01*
X176162126Y-97287627D01*
X176401130Y-97402724D01*
X176401128Y-97402724D01*
X176654625Y-97480918D01*
X176654631Y-97480919D01*
X176916951Y-97520459D01*
X176916958Y-97520460D01*
X177182242Y-97520460D01*
X177182248Y-97520459D01*
X177444568Y-97480919D01*
X177444569Y-97480919D01*
X177550543Y-97448230D01*
X177620406Y-97447279D01*
X177679693Y-97484250D01*
X177709580Y-97547405D01*
X177710829Y-97574831D01*
X177696405Y-97794901D01*
X177696055Y-97800240D01*
X177714040Y-98074642D01*
X177715775Y-98101104D01*
X177715777Y-98101116D01*
X177774595Y-98396816D01*
X177774600Y-98396836D01*
X177871511Y-98682327D01*
X177871515Y-98682337D01*
X178004866Y-98952745D01*
X178004873Y-98952758D01*
X178064093Y-99041386D01*
X178167628Y-99196337D01*
X178172382Y-99203451D01*
X178371180Y-99430139D01*
X178487578Y-99532216D01*
X178597870Y-99628939D01*
X178848567Y-99796450D01*
X178979750Y-99861142D01*
X179118982Y-99929804D01*
X179118992Y-99929808D01*
X179404483Y-100026719D01*
X179404487Y-100026720D01*
X179404496Y-100026723D01*
X179700214Y-100085545D01*
X180001080Y-100105265D01*
X180301946Y-100085545D01*
X180597664Y-100026723D01*
X180597676Y-100026719D01*
X180883167Y-99929808D01*
X180883177Y-99929804D01*
X180941951Y-99900820D01*
X181153593Y-99796450D01*
X181404290Y-99628939D01*
X181630979Y-99430139D01*
X181829779Y-99203450D01*
X181997290Y-98952753D01*
X182130645Y-98682335D01*
X182141235Y-98651140D01*
X182227559Y-98396836D01*
X182227559Y-98396835D01*
X182227563Y-98396824D01*
X182286385Y-98101106D01*
X182306105Y-97800240D01*
X182286385Y-97499374D01*
X182227563Y-97203656D01*
X182130645Y-96918145D01*
X182130637Y-96918128D01*
X182097178Y-96850280D01*
X183528651Y-96850280D01*
X183547378Y-97088243D01*
X183603101Y-97320348D01*
X183694448Y-97540880D01*
X183694450Y-97540884D01*
X183694451Y-97540885D01*
X183819172Y-97744412D01*
X183974197Y-97925923D01*
X184124113Y-98053963D01*
X184162306Y-98112470D01*
X184166721Y-98162828D01*
X184166621Y-98163669D01*
X184920119Y-98917166D01*
X184856700Y-98934160D01*
X184742599Y-99000036D01*
X184649436Y-99093199D01*
X184583560Y-99207300D01*
X184566566Y-99270719D01*
X183813069Y-98517221D01*
X183694896Y-98710061D01*
X183603582Y-98930514D01*
X183547873Y-99162556D01*
X183529152Y-99400440D01*
X183547873Y-99638323D01*
X183603582Y-99870365D01*
X183694896Y-100090818D01*
X183813069Y-100283657D01*
X184566566Y-99530160D01*
X184583560Y-99593580D01*
X184649436Y-99707681D01*
X184742599Y-99800844D01*
X184856700Y-99866720D01*
X184920119Y-99883713D01*
X184166621Y-100637209D01*
X184359461Y-100755383D01*
X184579915Y-100846697D01*
X184579912Y-100846697D01*
X184811956Y-100902406D01*
X185049840Y-100921127D01*
X185287723Y-100902406D01*
X185519765Y-100846697D01*
X185740218Y-100755383D01*
X185933057Y-100637210D01*
X185933057Y-100637209D01*
X185179560Y-99883713D01*
X185242980Y-99866720D01*
X185357081Y-99800844D01*
X185450244Y-99707681D01*
X185516120Y-99593580D01*
X185533113Y-99530160D01*
X186286609Y-100283657D01*
X186286610Y-100283657D01*
X186404783Y-100090818D01*
X186496097Y-99870365D01*
X186551806Y-99638323D01*
X186570527Y-99400440D01*
X186551806Y-99162556D01*
X186496097Y-98930514D01*
X186404783Y-98710061D01*
X186286609Y-98517221D01*
X185533112Y-99270718D01*
X185516120Y-99207300D01*
X185450244Y-99093199D01*
X185357081Y-99000036D01*
X185242980Y-98934160D01*
X185179558Y-98917166D01*
X185933057Y-98163669D01*
X185932958Y-98162828D01*
X185944626Y-98093940D01*
X185975563Y-98053965D01*
X186125483Y-97925923D01*
X186280508Y-97744412D01*
X186405229Y-97540885D01*
X186496577Y-97320353D01*
X186552301Y-97088246D01*
X186571029Y-96850280D01*
X186552301Y-96612314D01*
X186496577Y-96380207D01*
X186428497Y-96215848D01*
X186405231Y-96159679D01*
X186392471Y-96138857D01*
X186280508Y-95956148D01*
X186125483Y-95774637D01*
X185943972Y-95619612D01*
X185740445Y-95494891D01*
X185740444Y-95494890D01*
X185740440Y-95494888D01*
X185519908Y-95403541D01*
X185287802Y-95347818D01*
X185287803Y-95347818D01*
X185049840Y-95329091D01*
X184811876Y-95347818D01*
X184579771Y-95403541D01*
X184359239Y-95494888D01*
X184155707Y-95619612D01*
X183974197Y-95774637D01*
X183819172Y-95956147D01*
X183694448Y-96159679D01*
X183603101Y-96380211D01*
X183547378Y-96612316D01*
X183528651Y-96850280D01*
X182097178Y-96850280D01*
X181997294Y-96647735D01*
X181997292Y-96647732D01*
X181997290Y-96647728D01*
X181856316Y-96436746D01*
X181829780Y-96397031D01*
X181630979Y-96170340D01*
X181404291Y-95971542D01*
X181398668Y-95967785D01*
X181168019Y-95813669D01*
X181153598Y-95804033D01*
X181153595Y-95804031D01*
X181153593Y-95804030D01*
X181153585Y-95804026D01*
X180883177Y-95670675D01*
X180883167Y-95670671D01*
X180597676Y-95573760D01*
X180597656Y-95573755D01*
X180301956Y-95514937D01*
X180301946Y-95514935D01*
X180001080Y-95495215D01*
X179700214Y-95514935D01*
X179700208Y-95514936D01*
X179700203Y-95514937D01*
X179404503Y-95573755D01*
X179404488Y-95573759D01*
X179118989Y-95670673D01*
X179118962Y-95670685D01*
X178994057Y-95732281D01*
X178925225Y-95744277D01*
X178860834Y-95717156D01*
X178821329Y-95659527D01*
X178815561Y-95630335D01*
X178804739Y-95485924D01*
X178804738Y-95485919D01*
X178745709Y-95227293D01*
X178745703Y-95227274D01*
X178648785Y-94980331D01*
X178648786Y-94980331D01*
X178516143Y-94750588D01*
X178465956Y-94687656D01*
X177765522Y-95388090D01*
X177758639Y-95371471D01*
X177671078Y-95240426D01*
X177559634Y-95128982D01*
X177428589Y-95041421D01*
X177411969Y-95034536D01*
X178113160Y-94333345D01*
X177937075Y-94213293D01*
X177937074Y-94213292D01*
X177698069Y-94098195D01*
X177698071Y-94098195D01*
X177444574Y-94020001D01*
X177444568Y-94020000D01*
X177182248Y-93980460D01*
X176916951Y-93980460D01*
X176654631Y-94020000D01*
X176654625Y-94020001D01*
X176401129Y-94098195D01*
X176162124Y-94213294D01*
X176162111Y-94213301D01*
X175986038Y-94333344D01*
X176687230Y-95034536D01*
X176670611Y-95041421D01*
X176539566Y-95128982D01*
X176428122Y-95240426D01*
X176340561Y-95371471D01*
X176333676Y-95388090D01*
X175633242Y-94687656D01*
X175583057Y-94750587D01*
X175450414Y-94980331D01*
X175353496Y-95227274D01*
X175353490Y-95227293D01*
X175294461Y-95485919D01*
X175294460Y-95485924D01*
X175274637Y-95750455D01*
X166750362Y-95750455D01*
X166702734Y-95715851D01*
X166702732Y-95715850D01*
X166540006Y-95643398D01*
X166486770Y-95598147D01*
X166466449Y-95531298D01*
X166483058Y-95468116D01*
X166490862Y-95454601D01*
X166549357Y-95274573D01*
X166569143Y-95086317D01*
X166549357Y-94898061D01*
X166490862Y-94718033D01*
X166396216Y-94554101D01*
X166269554Y-94413429D01*
X166269553Y-94413428D01*
X166116417Y-94302168D01*
X166116412Y-94302165D01*
X165943490Y-94225174D01*
X165943485Y-94225172D01*
X165797684Y-94194182D01*
X165758329Y-94185817D01*
X165569037Y-94185817D01*
X165536580Y-94192715D01*
X165383880Y-94225172D01*
X165383875Y-94225174D01*
X165210953Y-94302165D01*
X165210948Y-94302168D01*
X165057812Y-94413428D01*
X164931149Y-94554102D01*
X164836504Y-94718032D01*
X164836501Y-94718039D01*
X164778010Y-94898057D01*
X164778009Y-94898061D01*
X164758223Y-95086317D01*
X164778009Y-95274573D01*
X164778010Y-95274576D01*
X164836501Y-95454594D01*
X164836503Y-95454598D01*
X164836504Y-95454601D01*
X164931150Y-95618533D01*
X165044371Y-95744277D01*
X165057812Y-95759205D01*
X165210948Y-95870465D01*
X165210953Y-95870468D01*
X165373674Y-95942917D01*
X165426911Y-95988167D01*
X165447232Y-96055016D01*
X165430628Y-96118191D01*
X165422821Y-96131714D01*
X165422820Y-96131714D01*
X165411410Y-96166831D01*
X165371971Y-96224505D01*
X165307612Y-96251702D01*
X165238766Y-96239786D01*
X165220595Y-96228828D01*
X165202734Y-96215851D01*
X165202729Y-96215848D01*
X165029807Y-96138857D01*
X165029802Y-96138855D01*
X164884001Y-96107865D01*
X164844646Y-96099500D01*
X164655354Y-96099500D01*
X164622897Y-96106398D01*
X164470197Y-96138855D01*
X164470192Y-96138857D01*
X164297270Y-96215848D01*
X164297265Y-96215851D01*
X164144129Y-96327111D01*
X164017466Y-96467785D01*
X163922821Y-96631715D01*
X163922818Y-96631722D01*
X163870047Y-96794136D01*
X163864326Y-96811744D01*
X163844540Y-97000000D01*
X163864326Y-97188256D01*
X163872639Y-97213840D01*
X163874634Y-97283680D01*
X163838554Y-97343513D01*
X163775854Y-97374342D01*
X163706439Y-97366378D01*
X163704273Y-97365438D01*
X163625002Y-97330144D01*
X163479201Y-97299154D01*
X163439846Y-97290789D01*
X163250554Y-97290789D01*
X163218097Y-97297687D01*
X163065397Y-97330144D01*
X163065392Y-97330146D01*
X162892470Y-97407137D01*
X162892465Y-97407140D01*
X162739329Y-97518400D01*
X162612666Y-97659074D01*
X162518021Y-97823004D01*
X162518018Y-97823011D01*
X162474852Y-97955864D01*
X162459526Y-98003033D01*
X162439740Y-98191289D01*
X159997569Y-98191289D01*
X159879807Y-98138857D01*
X159879802Y-98138855D01*
X159734001Y-98107865D01*
X159694646Y-98099500D01*
X159505354Y-98099500D01*
X159472897Y-98106398D01*
X159320197Y-98138855D01*
X159320192Y-98138857D01*
X159147270Y-98215848D01*
X159147265Y-98215851D01*
X158994129Y-98327111D01*
X158867466Y-98467785D01*
X158772821Y-98631715D01*
X158772818Y-98631722D01*
X158720047Y-98794136D01*
X158714326Y-98811744D01*
X158694540Y-99000000D01*
X149917433Y-99000000D01*
X149936747Y-98936331D01*
X149955099Y-98750000D01*
X149936747Y-98563669D01*
X149882396Y-98384499D01*
X149851722Y-98327111D01*
X149794137Y-98219376D01*
X149794135Y-98219373D01*
X149675357Y-98074642D01*
X149530626Y-97955864D01*
X149530623Y-97955862D01*
X149365502Y-97867604D01*
X149186333Y-97813253D01*
X149186331Y-97813252D01*
X149000000Y-97794901D01*
X148813668Y-97813252D01*
X148813666Y-97813253D01*
X148634497Y-97867604D01*
X148469376Y-97955862D01*
X148469373Y-97955864D01*
X148324642Y-98074642D01*
X148205864Y-98219373D01*
X148205862Y-98219376D01*
X148117604Y-98384497D01*
X148063253Y-98563666D01*
X148063252Y-98563668D01*
X148044901Y-98750000D01*
X139179042Y-98750000D01*
X139191992Y-98707311D01*
X139210344Y-98520980D01*
X139191992Y-98334649D01*
X139137641Y-98155479D01*
X139137640Y-98155477D01*
X139049382Y-97990356D01*
X139049380Y-97990353D01*
X138946916Y-97865502D01*
X138941854Y-97859334D01*
X138914542Y-97795025D01*
X138919047Y-97744676D01*
X138936747Y-97686331D01*
X138955099Y-97500000D01*
X138936747Y-97313669D01*
X138882396Y-97134499D01*
X138875839Y-97122232D01*
X138794137Y-96969376D01*
X138794134Y-96969373D01*
X138781244Y-96953666D01*
X138753930Y-96889357D01*
X138765720Y-96820489D01*
X138781244Y-96796334D01*
X138783049Y-96794135D01*
X138794136Y-96780625D01*
X138882396Y-96615501D01*
X138936747Y-96436331D01*
X138955099Y-96250000D01*
X138936747Y-96063669D01*
X138882396Y-95884499D01*
X138872242Y-95865502D01*
X138794137Y-95719376D01*
X138794135Y-95719373D01*
X138675357Y-95574642D01*
X138530626Y-95455864D01*
X138530623Y-95455862D01*
X138365502Y-95367604D01*
X138270114Y-95338668D01*
X138211676Y-95300371D01*
X138183219Y-95236558D01*
X138186767Y-95192544D01*
X138185559Y-95192304D01*
X138186747Y-95186331D01*
X138193516Y-95117604D01*
X138205099Y-95000000D01*
X138186747Y-94813669D01*
X138132396Y-94634499D01*
X138130912Y-94631722D01*
X138044137Y-94469376D01*
X138044135Y-94469373D01*
X137925357Y-94324642D01*
X137780626Y-94205864D01*
X137780623Y-94205862D01*
X137615502Y-94117604D01*
X137436333Y-94063253D01*
X137436331Y-94063252D01*
X137250000Y-94044901D01*
X137063668Y-94063252D01*
X137063666Y-94063253D01*
X136884497Y-94117604D01*
X136719376Y-94205862D01*
X136719373Y-94205864D01*
X136574642Y-94324642D01*
X136455864Y-94469373D01*
X136455862Y-94469376D01*
X136367604Y-94634497D01*
X136313253Y-94813666D01*
X136313252Y-94813668D01*
X136299842Y-94949832D01*
X136273681Y-95014619D01*
X136216647Y-95054978D01*
X136164285Y-95061081D01*
X136000000Y-95044901D01*
X135813668Y-95063252D01*
X135813666Y-95063253D01*
X135634497Y-95117604D01*
X135469376Y-95205862D01*
X135469373Y-95205864D01*
X135324642Y-95324642D01*
X135205864Y-95469373D01*
X135205862Y-95469376D01*
X135117604Y-95634497D01*
X135063253Y-95813666D01*
X135063253Y-95813667D01*
X135062057Y-95825810D01*
X135035895Y-95890597D01*
X134978860Y-95930955D01*
X134950810Y-95937057D01*
X134938667Y-95938253D01*
X134938666Y-95938253D01*
X134759497Y-95992604D01*
X134594376Y-96080862D01*
X134594373Y-96080864D01*
X134449642Y-96199642D01*
X134330864Y-96344373D01*
X134330862Y-96344376D01*
X134253462Y-96489183D01*
X134204500Y-96539028D01*
X134156259Y-96554133D01*
X134063667Y-96563253D01*
X134063666Y-96563253D01*
X133884497Y-96617604D01*
X133719376Y-96705862D01*
X133719373Y-96705864D01*
X133574642Y-96824642D01*
X133455864Y-96969373D01*
X133455862Y-96969377D01*
X133423051Y-97030762D01*
X133374088Y-97080606D01*
X133305950Y-97096066D01*
X133277698Y-97090969D01*
X133243536Y-97080606D01*
X133186331Y-97063253D01*
X133186329Y-97063252D01*
X133186331Y-97063252D01*
X133000000Y-97044901D01*
X132813668Y-97063252D01*
X132813666Y-97063253D01*
X132634497Y-97117604D01*
X132469376Y-97205862D01*
X132469373Y-97205864D01*
X132324642Y-97324642D01*
X132205864Y-97469373D01*
X132205862Y-97469376D01*
X132117604Y-97634496D01*
X132095120Y-97708616D01*
X132056822Y-97767054D01*
X131993010Y-97795510D01*
X131988614Y-97796022D01*
X131813668Y-97813252D01*
X131813666Y-97813253D01*
X131634497Y-97867604D01*
X131469376Y-97955862D01*
X131469373Y-97955864D01*
X131324642Y-98074642D01*
X131205864Y-98219373D01*
X131205862Y-98219376D01*
X131117604Y-98384496D01*
X131095120Y-98458616D01*
X131056822Y-98517054D01*
X130993010Y-98545510D01*
X130988614Y-98546022D01*
X130813668Y-98563252D01*
X130813666Y-98563253D01*
X130634497Y-98617604D01*
X130469376Y-98705862D01*
X130469373Y-98705864D01*
X130324642Y-98824642D01*
X130205864Y-98969373D01*
X130205862Y-98969376D01*
X130117604Y-99134497D01*
X130063253Y-99313666D01*
X130063252Y-99313668D01*
X130044901Y-99500000D01*
X113300500Y-99500000D01*
X113300500Y-95750000D01*
X126344540Y-95750000D01*
X126364326Y-95938256D01*
X126364327Y-95938259D01*
X126422818Y-96118277D01*
X126422821Y-96118284D01*
X126517467Y-96282216D01*
X126607669Y-96382395D01*
X126644129Y-96422888D01*
X126797265Y-96534148D01*
X126797270Y-96534151D01*
X126970192Y-96611142D01*
X126970197Y-96611144D01*
X127155354Y-96650500D01*
X127155355Y-96650500D01*
X127344644Y-96650500D01*
X127344646Y-96650500D01*
X127529803Y-96611144D01*
X127702730Y-96534151D01*
X127855871Y-96422888D01*
X127982533Y-96282216D01*
X128077179Y-96118284D01*
X128135674Y-95938256D01*
X128155460Y-95750000D01*
X128135674Y-95561744D01*
X128077179Y-95381716D01*
X127982533Y-95217784D01*
X127855871Y-95077112D01*
X127836796Y-95063253D01*
X127702734Y-94965851D01*
X127702729Y-94965848D01*
X127529807Y-94888857D01*
X127529802Y-94888855D01*
X127384001Y-94857865D01*
X127344646Y-94849500D01*
X127155354Y-94849500D01*
X127122897Y-94856398D01*
X126970197Y-94888855D01*
X126970192Y-94888857D01*
X126797270Y-94965848D01*
X126797265Y-94965851D01*
X126644129Y-95077111D01*
X126517466Y-95217785D01*
X126422821Y-95381715D01*
X126422818Y-95381722D01*
X126373921Y-95532214D01*
X126364326Y-95561744D01*
X126344540Y-95750000D01*
X113300500Y-95750000D01*
X113300500Y-91897600D01*
X123344540Y-91897600D01*
X123364326Y-92085856D01*
X123364327Y-92085859D01*
X123422818Y-92265877D01*
X123422821Y-92265884D01*
X123517467Y-92429816D01*
X123609667Y-92532214D01*
X123644129Y-92570488D01*
X123797265Y-92681748D01*
X123797270Y-92681751D01*
X123970192Y-92758742D01*
X123970197Y-92758744D01*
X124155354Y-92798100D01*
X124155355Y-92798100D01*
X124344644Y-92798100D01*
X124344646Y-92798100D01*
X124529803Y-92758744D01*
X124702730Y-92681751D01*
X124855871Y-92570488D01*
X124982533Y-92429816D01*
X125077179Y-92265884D01*
X125135674Y-92085856D01*
X125144697Y-92000000D01*
X127844540Y-92000000D01*
X127864326Y-92188256D01*
X127864327Y-92188259D01*
X127922818Y-92368277D01*
X127922821Y-92368284D01*
X128017467Y-92532216D01*
X128094351Y-92617604D01*
X128144129Y-92672888D01*
X128297265Y-92784148D01*
X128297270Y-92784151D01*
X128470192Y-92861142D01*
X128470197Y-92861144D01*
X128655354Y-92900500D01*
X128655355Y-92900500D01*
X128785797Y-92900500D01*
X128852836Y-92920185D01*
X128898591Y-92972989D01*
X128908535Y-93042147D01*
X128895155Y-93082953D01*
X128867604Y-93134497D01*
X128829079Y-93261496D01*
X128790782Y-93319934D01*
X128726969Y-93348391D01*
X128710419Y-93349500D01*
X128655354Y-93349500D01*
X128622897Y-93356398D01*
X128470197Y-93388855D01*
X128470192Y-93388857D01*
X128297270Y-93465848D01*
X128297265Y-93465851D01*
X128144129Y-93577111D01*
X128017466Y-93717785D01*
X127922821Y-93881715D01*
X127922818Y-93881722D01*
X127864327Y-94061740D01*
X127864326Y-94061744D01*
X127844540Y-94250000D01*
X127864326Y-94438256D01*
X127864327Y-94438259D01*
X127922818Y-94618277D01*
X127922821Y-94618284D01*
X128017467Y-94782216D01*
X128113487Y-94888857D01*
X128144129Y-94922888D01*
X128297265Y-95034148D01*
X128297270Y-95034151D01*
X128470192Y-95111142D01*
X128470197Y-95111144D01*
X128655354Y-95150500D01*
X128655355Y-95150500D01*
X128844644Y-95150500D01*
X128844646Y-95150500D01*
X129029803Y-95111144D01*
X129202730Y-95034151D01*
X129355871Y-94922888D01*
X129482533Y-94782216D01*
X129577179Y-94618284D01*
X129603093Y-94538527D01*
X129642529Y-94480852D01*
X129706888Y-94453653D01*
X129733177Y-94453442D01*
X129750000Y-94455099D01*
X129936331Y-94436747D01*
X130115501Y-94382396D01*
X130280625Y-94294136D01*
X130425357Y-94175357D01*
X130544136Y-94030625D01*
X130632396Y-93865501D01*
X130686747Y-93686331D01*
X130705099Y-93500000D01*
X130686747Y-93313669D01*
X130632396Y-93134499D01*
X130623725Y-93118277D01*
X130544137Y-92969376D01*
X130544135Y-92969373D01*
X130425357Y-92824642D01*
X130280626Y-92705864D01*
X130280623Y-92705862D01*
X130115502Y-92617604D01*
X129936333Y-92563253D01*
X129936331Y-92563252D01*
X129750000Y-92544901D01*
X129749999Y-92544901D01*
X129698884Y-92549935D01*
X129630238Y-92536916D01*
X129579528Y-92488850D01*
X129562854Y-92420999D01*
X129576296Y-92374997D01*
X129574538Y-92374214D01*
X129577174Y-92368292D01*
X129577179Y-92368284D01*
X129635674Y-92188256D01*
X129655460Y-92000000D01*
X129635674Y-91811744D01*
X129577179Y-91631716D01*
X129482533Y-91467784D01*
X129355871Y-91327112D01*
X129336928Y-91313349D01*
X129202734Y-91215851D01*
X129202729Y-91215848D01*
X129029807Y-91138857D01*
X129029802Y-91138855D01*
X128884001Y-91107865D01*
X128844646Y-91099500D01*
X128655354Y-91099500D01*
X128622897Y-91106398D01*
X128470197Y-91138855D01*
X128470192Y-91138857D01*
X128297270Y-91215848D01*
X128297265Y-91215851D01*
X128144129Y-91327111D01*
X128017466Y-91467785D01*
X127922821Y-91631715D01*
X127922818Y-91631722D01*
X127872310Y-91787172D01*
X127864326Y-91811744D01*
X127844540Y-92000000D01*
X125144697Y-92000000D01*
X125150919Y-91940797D01*
X125177502Y-91876188D01*
X125223798Y-91840487D01*
X125350330Y-91784151D01*
X125503471Y-91672888D01*
X125630133Y-91532216D01*
X125724779Y-91368284D01*
X125783274Y-91188256D01*
X125803060Y-91000000D01*
X125803059Y-90999997D01*
X125803389Y-90996865D01*
X125829973Y-90932250D01*
X125887271Y-90892265D01*
X125900904Y-90888542D01*
X126029803Y-90861144D01*
X126029807Y-90861142D01*
X126029808Y-90861142D01*
X126088058Y-90835206D01*
X126202730Y-90784151D01*
X126249735Y-90750000D01*
X137044901Y-90750000D01*
X137063252Y-90936331D01*
X137063253Y-90936333D01*
X137117604Y-91115502D01*
X137205862Y-91280623D01*
X137205864Y-91280626D01*
X137324642Y-91425357D01*
X137469373Y-91544135D01*
X137469376Y-91544137D01*
X137531067Y-91577111D01*
X137634499Y-91632396D01*
X137813666Y-91686746D01*
X137813668Y-91686747D01*
X137839176Y-91689259D01*
X137988615Y-91703977D01*
X138053401Y-91730138D01*
X138093760Y-91787172D01*
X138095120Y-91791384D01*
X138117604Y-91865502D01*
X138205862Y-92030623D01*
X138205864Y-92030626D01*
X138324642Y-92175357D01*
X138469373Y-92294135D01*
X138469376Y-92294137D01*
X138633225Y-92381715D01*
X138634499Y-92382396D01*
X138679383Y-92396011D01*
X138749925Y-92417411D01*
X138808363Y-92455708D01*
X138832589Y-92500075D01*
X138867604Y-92615502D01*
X138955862Y-92780623D01*
X138955864Y-92780626D01*
X139074642Y-92925357D01*
X139219373Y-93044135D01*
X139219376Y-93044137D01*
X139255320Y-93063349D01*
X139384499Y-93132396D01*
X139435008Y-93147717D01*
X139458615Y-93154879D01*
X139517053Y-93193176D01*
X139545510Y-93256988D01*
X139546022Y-93261385D01*
X139563252Y-93436331D01*
X139563253Y-93436333D01*
X139617604Y-93615502D01*
X139705862Y-93780623D01*
X139705864Y-93780626D01*
X139824642Y-93925357D01*
X139969373Y-94044135D01*
X139969376Y-94044137D01*
X140070513Y-94098195D01*
X140134499Y-94132396D01*
X140179383Y-94146011D01*
X140249925Y-94167411D01*
X140308363Y-94205708D01*
X140332589Y-94250075D01*
X140367604Y-94365502D01*
X140455862Y-94530623D01*
X140455864Y-94530626D01*
X140574642Y-94675357D01*
X140719373Y-94794135D01*
X140719376Y-94794137D01*
X140884494Y-94882394D01*
X140884496Y-94882394D01*
X140884499Y-94882396D01*
X141056445Y-94934555D01*
X141114882Y-94972852D01*
X141143338Y-95036664D01*
X141132778Y-95105731D01*
X141129808Y-95111666D01*
X141117603Y-95134500D01*
X141063253Y-95313666D01*
X141063252Y-95313668D01*
X141044901Y-95500000D01*
X141063252Y-95686331D01*
X141063253Y-95686333D01*
X141117604Y-95865502D01*
X141205862Y-96030623D01*
X141205864Y-96030626D01*
X141324642Y-96175357D01*
X141469373Y-96294135D01*
X141469376Y-96294137D01*
X141630411Y-96380211D01*
X141634499Y-96382396D01*
X141813666Y-96436746D01*
X141813668Y-96436747D01*
X141830374Y-96438392D01*
X142000000Y-96455099D01*
X142186331Y-96436747D01*
X142365501Y-96382396D01*
X142530625Y-96294136D01*
X142675357Y-96175357D01*
X142794136Y-96030625D01*
X142810505Y-96000000D01*
X147442501Y-96000000D01*
X147460852Y-96186331D01*
X147460853Y-96186333D01*
X147515204Y-96365502D01*
X147603462Y-96530623D01*
X147603464Y-96530626D01*
X147722242Y-96675357D01*
X147866973Y-96794135D01*
X147866976Y-96794137D01*
X147991407Y-96860646D01*
X148032099Y-96882396D01*
X148211266Y-96936746D01*
X148211268Y-96936747D01*
X148223402Y-96937942D01*
X148397600Y-96955099D01*
X148583931Y-96936747D01*
X148763101Y-96882396D01*
X148928225Y-96794136D01*
X149072957Y-96675357D01*
X149191736Y-96530625D01*
X149279996Y-96365501D01*
X149334347Y-96186331D01*
X149352699Y-96000000D01*
X149334347Y-95813669D01*
X149334346Y-95813667D01*
X149334346Y-95813666D01*
X149315174Y-95750464D01*
X149279996Y-95634499D01*
X149247528Y-95573755D01*
X149191737Y-95469376D01*
X149191735Y-95469373D01*
X149072957Y-95324642D01*
X148928226Y-95205864D01*
X148928223Y-95205862D01*
X148763102Y-95117604D01*
X148583933Y-95063253D01*
X148583931Y-95063252D01*
X148397600Y-95044901D01*
X148211268Y-95063252D01*
X148211266Y-95063253D01*
X148032097Y-95117604D01*
X147866976Y-95205862D01*
X147866973Y-95205864D01*
X147722242Y-95324642D01*
X147603464Y-95469373D01*
X147603462Y-95469376D01*
X147515204Y-95634497D01*
X147460853Y-95813666D01*
X147460852Y-95813668D01*
X147442501Y-96000000D01*
X142810505Y-96000000D01*
X142882396Y-95865501D01*
X142936747Y-95686331D01*
X142955099Y-95500000D01*
X142936747Y-95313669D01*
X142882396Y-95134499D01*
X142879447Y-95128982D01*
X142810506Y-95000000D01*
X159044540Y-95000000D01*
X159064326Y-95188256D01*
X159064327Y-95188259D01*
X159122818Y-95368277D01*
X159122821Y-95368284D01*
X159217467Y-95532216D01*
X159317576Y-95643398D01*
X159344129Y-95672888D01*
X159497265Y-95784148D01*
X159497270Y-95784151D01*
X159670192Y-95861142D01*
X159670197Y-95861144D01*
X159855354Y-95900500D01*
X159855355Y-95900500D01*
X160044644Y-95900500D01*
X160044646Y-95900500D01*
X160229803Y-95861144D01*
X160402730Y-95784151D01*
X160555871Y-95672888D01*
X160682533Y-95532216D01*
X160770052Y-95380629D01*
X162374878Y-95380629D01*
X162394664Y-95568885D01*
X162394665Y-95568888D01*
X162453156Y-95748906D01*
X162453159Y-95748913D01*
X162547805Y-95912845D01*
X162619621Y-95992604D01*
X162674467Y-96053517D01*
X162827603Y-96164777D01*
X162827608Y-96164780D01*
X163000530Y-96241771D01*
X163000535Y-96241773D01*
X163185692Y-96281129D01*
X163185693Y-96281129D01*
X163374982Y-96281129D01*
X163374984Y-96281129D01*
X163560141Y-96241773D01*
X163733068Y-96164780D01*
X163886209Y-96053517D01*
X164012871Y-95912845D01*
X164107517Y-95748913D01*
X164166012Y-95568885D01*
X164185798Y-95380629D01*
X164166012Y-95192373D01*
X164107517Y-95012345D01*
X164012871Y-94848413D01*
X163886209Y-94707741D01*
X163883623Y-94705862D01*
X163733072Y-94596480D01*
X163733067Y-94596477D01*
X163560145Y-94519486D01*
X163560140Y-94519484D01*
X163378385Y-94480852D01*
X163374984Y-94480129D01*
X163185692Y-94480129D01*
X163182291Y-94480852D01*
X163000535Y-94519484D01*
X163000530Y-94519486D01*
X162827608Y-94596477D01*
X162827603Y-94596480D01*
X162674467Y-94707740D01*
X162547804Y-94848414D01*
X162453159Y-95012344D01*
X162453156Y-95012351D01*
X162394686Y-95192304D01*
X162394664Y-95192373D01*
X162374878Y-95380629D01*
X160770052Y-95380629D01*
X160777179Y-95368284D01*
X160835674Y-95188256D01*
X160855460Y-95000000D01*
X160835674Y-94811744D01*
X160777179Y-94631716D01*
X160682533Y-94467784D01*
X160555871Y-94327112D01*
X160552473Y-94324643D01*
X160402734Y-94215851D01*
X160402729Y-94215848D01*
X160229807Y-94138857D01*
X160229802Y-94138855D01*
X160084001Y-94107865D01*
X160044646Y-94099500D01*
X159855354Y-94099500D01*
X159822897Y-94106398D01*
X159670197Y-94138855D01*
X159670192Y-94138857D01*
X159497270Y-94215848D01*
X159497265Y-94215851D01*
X159344129Y-94327111D01*
X159217466Y-94467785D01*
X159122821Y-94631715D01*
X159122818Y-94631722D01*
X159070047Y-94794136D01*
X159064326Y-94811744D01*
X159044540Y-95000000D01*
X142810506Y-95000000D01*
X142794137Y-94969376D01*
X142794135Y-94969373D01*
X142675357Y-94824642D01*
X142530626Y-94705864D01*
X142530623Y-94705862D01*
X142365507Y-94617606D01*
X142365501Y-94617604D01*
X142193553Y-94565443D01*
X142135117Y-94527147D01*
X142106660Y-94463335D01*
X142117221Y-94394268D01*
X142120194Y-94388329D01*
X142132396Y-94365501D01*
X142144041Y-94327112D01*
X142186747Y-94186331D01*
X142205099Y-94000000D01*
X142186747Y-93813669D01*
X142132396Y-93634499D01*
X142122242Y-93615502D01*
X142044137Y-93469376D01*
X142044135Y-93469373D01*
X141925357Y-93324642D01*
X141920838Y-93320933D01*
X148115834Y-93320933D01*
X148134185Y-93507264D01*
X148134186Y-93507266D01*
X148188537Y-93686435D01*
X148276795Y-93851556D01*
X148276797Y-93851559D01*
X148395575Y-93996290D01*
X148540306Y-94115068D01*
X148540309Y-94115070D01*
X148705430Y-94203328D01*
X148705432Y-94203329D01*
X148859285Y-94250000D01*
X148884599Y-94257679D01*
X148884601Y-94257680D01*
X148901307Y-94259325D01*
X149070933Y-94276032D01*
X149257264Y-94257680D01*
X149436434Y-94203329D01*
X149601558Y-94115069D01*
X149746290Y-93996290D01*
X149865069Y-93851558D01*
X149953329Y-93686434D01*
X150007680Y-93507264D01*
X150026032Y-93320933D01*
X150016410Y-93223242D01*
X150029429Y-93154597D01*
X150077493Y-93103887D01*
X150145344Y-93087212D01*
X150190246Y-93097808D01*
X150220197Y-93111144D01*
X150405354Y-93150500D01*
X150405355Y-93150500D01*
X150594644Y-93150500D01*
X150594646Y-93150500D01*
X150779803Y-93111144D01*
X150952730Y-93034151D01*
X151063833Y-92953429D01*
X151129636Y-92929951D01*
X151197690Y-92945776D01*
X151244103Y-92991749D01*
X151267465Y-93032214D01*
X151394129Y-93172888D01*
X151547265Y-93284148D01*
X151547270Y-93284151D01*
X151720192Y-93361142D01*
X151720197Y-93361144D01*
X151905354Y-93400500D01*
X151905355Y-93400500D01*
X152094644Y-93400500D01*
X152094646Y-93400500D01*
X152279803Y-93361144D01*
X152452730Y-93284151D01*
X152605871Y-93172888D01*
X152732533Y-93032216D01*
X152827179Y-92868284D01*
X152885674Y-92688256D01*
X152905460Y-92500000D01*
X152885674Y-92311744D01*
X152857489Y-92225000D01*
X154594540Y-92225000D01*
X154614326Y-92413256D01*
X154614327Y-92413259D01*
X154672818Y-92593277D01*
X154672821Y-92593284D01*
X154767467Y-92757216D01*
X154894129Y-92897888D01*
X155047265Y-93009148D01*
X155047270Y-93009151D01*
X155220192Y-93086142D01*
X155220197Y-93086144D01*
X155405354Y-93125500D01*
X155405355Y-93125500D01*
X155594644Y-93125500D01*
X155594646Y-93125500D01*
X155779803Y-93086144D01*
X155952730Y-93009151D01*
X156105871Y-92897888D01*
X156232533Y-92757216D01*
X156236699Y-92750000D01*
X159044540Y-92750000D01*
X159064326Y-92938256D01*
X159064327Y-92938259D01*
X159122818Y-93118277D01*
X159122821Y-93118284D01*
X159217467Y-93282216D01*
X159313487Y-93388857D01*
X159344129Y-93422888D01*
X159497265Y-93534148D01*
X159497270Y-93534151D01*
X159670192Y-93611142D01*
X159670197Y-93611144D01*
X159855354Y-93650500D01*
X159855355Y-93650500D01*
X160044644Y-93650500D01*
X160044646Y-93650500D01*
X160229803Y-93611144D01*
X160402730Y-93534151D01*
X160555871Y-93422888D01*
X160682533Y-93282216D01*
X160777179Y-93118284D01*
X160835674Y-92938256D01*
X160855460Y-92750000D01*
X160835674Y-92561744D01*
X160777179Y-92381716D01*
X160682533Y-92217784D01*
X160555871Y-92077112D01*
X160555870Y-92077111D01*
X160402734Y-91965851D01*
X160402729Y-91965848D01*
X160229807Y-91888857D01*
X160229802Y-91888855D01*
X160078590Y-91856715D01*
X160044646Y-91849500D01*
X159855354Y-91849500D01*
X159822897Y-91856398D01*
X159670197Y-91888855D01*
X159670192Y-91888857D01*
X159497270Y-91965848D01*
X159497265Y-91965851D01*
X159344129Y-92077111D01*
X159217466Y-92217785D01*
X159122821Y-92381715D01*
X159122818Y-92381722D01*
X159068163Y-92549935D01*
X159064326Y-92561744D01*
X159044540Y-92750000D01*
X156236699Y-92750000D01*
X156327179Y-92593284D01*
X156385674Y-92413256D01*
X156405460Y-92225000D01*
X156385674Y-92036744D01*
X156327179Y-91856716D01*
X156232533Y-91692784D01*
X156105871Y-91552112D01*
X156105870Y-91552111D01*
X155952734Y-91440851D01*
X155952729Y-91440848D01*
X155779807Y-91363857D01*
X155779802Y-91363855D01*
X155632702Y-91332589D01*
X155594646Y-91324500D01*
X155405354Y-91324500D01*
X155372897Y-91331398D01*
X155220197Y-91363855D01*
X155220192Y-91363857D01*
X155047270Y-91440848D01*
X155047265Y-91440851D01*
X154894129Y-91552111D01*
X154767466Y-91692785D01*
X154672821Y-91856715D01*
X154672818Y-91856722D01*
X154616315Y-92030623D01*
X154614326Y-92036744D01*
X154594540Y-92225000D01*
X152857489Y-92225000D01*
X152827179Y-92131716D01*
X152732533Y-91967784D01*
X152605871Y-91827112D01*
X152605870Y-91827111D01*
X152452734Y-91715851D01*
X152452729Y-91715848D01*
X152279807Y-91638857D01*
X152279802Y-91638855D01*
X152134001Y-91607865D01*
X152094646Y-91599500D01*
X151905354Y-91599500D01*
X151872897Y-91606398D01*
X151720197Y-91638855D01*
X151720192Y-91638857D01*
X151547270Y-91715848D01*
X151547265Y-91715851D01*
X151436168Y-91796568D01*
X151370361Y-91820048D01*
X151302308Y-91804222D01*
X151255895Y-91758249D01*
X151239665Y-91730138D01*
X151232533Y-91717784D01*
X151105871Y-91577112D01*
X151102473Y-91574643D01*
X150952734Y-91465851D01*
X150952729Y-91465848D01*
X150779807Y-91388857D01*
X150779802Y-91388855D01*
X150634001Y-91357865D01*
X150594646Y-91349500D01*
X150405354Y-91349500D01*
X150372897Y-91356398D01*
X150220197Y-91388855D01*
X150220192Y-91388857D01*
X150047270Y-91465848D01*
X150047265Y-91465851D01*
X149894129Y-91577111D01*
X149767466Y-91717785D01*
X149672821Y-91881715D01*
X149672818Y-91881722D01*
X149622450Y-92036740D01*
X149614326Y-92061744D01*
X149601029Y-92188259D01*
X149594540Y-92250000D01*
X149600679Y-92308410D01*
X149588109Y-92377140D01*
X149540377Y-92428163D01*
X149472636Y-92445281D01*
X149441363Y-92440032D01*
X149350909Y-92412593D01*
X149257264Y-92384186D01*
X149257262Y-92384185D01*
X149257264Y-92384185D01*
X149070933Y-92365834D01*
X148884601Y-92384185D01*
X148884599Y-92384186D01*
X148705430Y-92438537D01*
X148540309Y-92526795D01*
X148540306Y-92526797D01*
X148395575Y-92645575D01*
X148276797Y-92790306D01*
X148276795Y-92790309D01*
X148188537Y-92955430D01*
X148134186Y-93134599D01*
X148134185Y-93134601D01*
X148115834Y-93320933D01*
X141920838Y-93320933D01*
X141780626Y-93205864D01*
X141780623Y-93205862D01*
X141615502Y-93117604D01*
X141500075Y-93082589D01*
X141441637Y-93044292D01*
X141417411Y-92999925D01*
X141387250Y-92900500D01*
X141382396Y-92884499D01*
X141332051Y-92790309D01*
X141294137Y-92719376D01*
X141294135Y-92719373D01*
X141175357Y-92574642D01*
X141030626Y-92455864D01*
X141030623Y-92455862D01*
X140865502Y-92367604D01*
X140791384Y-92345120D01*
X140732945Y-92306822D01*
X140704489Y-92243010D01*
X140703980Y-92238646D01*
X140686747Y-92063669D01*
X140632396Y-91884499D01*
X140630912Y-91881722D01*
X140544137Y-91719376D01*
X140544135Y-91719373D01*
X140425357Y-91574642D01*
X140280626Y-91455864D01*
X140280623Y-91455862D01*
X140115502Y-91367604D01*
X140000075Y-91332589D01*
X139941637Y-91294292D01*
X139917411Y-91249925D01*
X139883718Y-91138857D01*
X139882396Y-91134499D01*
X139872242Y-91115502D01*
X139794137Y-90969376D01*
X139794135Y-90969373D01*
X139675357Y-90824642D01*
X139530626Y-90705864D01*
X139530623Y-90705862D01*
X139365502Y-90617604D01*
X139186333Y-90563253D01*
X139186331Y-90563252D01*
X139011385Y-90546022D01*
X138946598Y-90519861D01*
X138906239Y-90462827D01*
X138904879Y-90458615D01*
X138897717Y-90435008D01*
X138882396Y-90384499D01*
X138794136Y-90219375D01*
X138794135Y-90219373D01*
X138675357Y-90074642D01*
X138530626Y-89955864D01*
X138530623Y-89955862D01*
X138365502Y-89867604D01*
X138186333Y-89813253D01*
X138186331Y-89813252D01*
X138000000Y-89794901D01*
X137813668Y-89813252D01*
X137813666Y-89813253D01*
X137634497Y-89867604D01*
X137469376Y-89955862D01*
X137469373Y-89955864D01*
X137324642Y-90074642D01*
X137205864Y-90219373D01*
X137205862Y-90219376D01*
X137117604Y-90384497D01*
X137063253Y-90563666D01*
X137063252Y-90563668D01*
X137044901Y-90750000D01*
X126249735Y-90750000D01*
X126355871Y-90672888D01*
X126482533Y-90532216D01*
X126577179Y-90368284D01*
X126635674Y-90188256D01*
X126646227Y-90087839D01*
X126672811Y-90023227D01*
X126730109Y-89983242D01*
X126795326Y-89979513D01*
X126905354Y-90002900D01*
X126905355Y-90002900D01*
X127094644Y-90002900D01*
X127094646Y-90002900D01*
X127279803Y-89963544D01*
X127452730Y-89886551D01*
X127605871Y-89775288D01*
X127732533Y-89634616D01*
X127827179Y-89470684D01*
X127885674Y-89290656D01*
X127905460Y-89102400D01*
X127885674Y-88914144D01*
X127827179Y-88734116D01*
X127732533Y-88570184D01*
X127605871Y-88429512D01*
X127583300Y-88413113D01*
X127452734Y-88318251D01*
X127452729Y-88318248D01*
X127279807Y-88241257D01*
X127279802Y-88241255D01*
X127134001Y-88210265D01*
X127094646Y-88201900D01*
X126905354Y-88201900D01*
X126872897Y-88208798D01*
X126720197Y-88241255D01*
X126720192Y-88241257D01*
X126547270Y-88318248D01*
X126547265Y-88318251D01*
X126394129Y-88429511D01*
X126267466Y-88570185D01*
X126172821Y-88734115D01*
X126172818Y-88734122D01*
X126114327Y-88914140D01*
X126114326Y-88914144D01*
X126110022Y-88955098D01*
X126103772Y-89014559D01*
X126077187Y-89079173D01*
X126019889Y-89119157D01*
X125954670Y-89122886D01*
X125877127Y-89106404D01*
X125844646Y-89099500D01*
X125655354Y-89099500D01*
X125622897Y-89106398D01*
X125470197Y-89138855D01*
X125470192Y-89138857D01*
X125297270Y-89215848D01*
X125297265Y-89215851D01*
X125144129Y-89327111D01*
X125017466Y-89467785D01*
X124922821Y-89631715D01*
X124922818Y-89631722D01*
X124864327Y-89811740D01*
X124864326Y-89811744D01*
X124858455Y-89867604D01*
X124844210Y-90003135D01*
X124817625Y-90067750D01*
X124760328Y-90107734D01*
X124746670Y-90111463D01*
X124617797Y-90138855D01*
X124617792Y-90138857D01*
X124444870Y-90215848D01*
X124444865Y-90215851D01*
X124291729Y-90327111D01*
X124165066Y-90467785D01*
X124070421Y-90631715D01*
X124070418Y-90631722D01*
X124011927Y-90811740D01*
X124011926Y-90811744D01*
X124002598Y-90900500D01*
X123996681Y-90956797D01*
X123970096Y-91021411D01*
X123923797Y-91057114D01*
X123797267Y-91113450D01*
X123797265Y-91113451D01*
X123644129Y-91224711D01*
X123517466Y-91365385D01*
X123422821Y-91529315D01*
X123422818Y-91529322D01*
X123366070Y-91703977D01*
X123364326Y-91709344D01*
X123344540Y-91897600D01*
X113300500Y-91897600D01*
X113300500Y-88000000D01*
X147044901Y-88000000D01*
X147063252Y-88186331D01*
X147063253Y-88186333D01*
X147117604Y-88365502D01*
X147205862Y-88530623D01*
X147205864Y-88530626D01*
X147324642Y-88675357D01*
X147469373Y-88794135D01*
X147469376Y-88794137D01*
X147578380Y-88852400D01*
X147634499Y-88882396D01*
X147813666Y-88936746D01*
X147813668Y-88936747D01*
X147830374Y-88938392D01*
X148000000Y-88955099D01*
X148186331Y-88936747D01*
X148365501Y-88882396D01*
X148530625Y-88794136D01*
X148675357Y-88675357D01*
X148794136Y-88530625D01*
X148882396Y-88365501D01*
X148936747Y-88186331D01*
X148955099Y-88000000D01*
X148942788Y-87875000D01*
X165219540Y-87875000D01*
X165239326Y-88063256D01*
X165239327Y-88063259D01*
X165297818Y-88243277D01*
X165297821Y-88243284D01*
X165392470Y-88407223D01*
X165393803Y-88409057D01*
X165394245Y-88410296D01*
X165395716Y-88412844D01*
X165395249Y-88413113D01*
X165417279Y-88474864D01*
X165411412Y-88520254D01*
X165385279Y-88600685D01*
X165364660Y-88664144D01*
X165344874Y-88852400D01*
X165364660Y-89040656D01*
X165364661Y-89040659D01*
X165423152Y-89220677D01*
X165423155Y-89220684D01*
X165517801Y-89384616D01*
X165608457Y-89485299D01*
X165644463Y-89525288D01*
X165797599Y-89636548D01*
X165797604Y-89636551D01*
X165970526Y-89713542D01*
X165970531Y-89713544D01*
X166155688Y-89752900D01*
X166155689Y-89752900D01*
X166344978Y-89752900D01*
X166344980Y-89752900D01*
X166530137Y-89713544D01*
X166703064Y-89636551D01*
X166856205Y-89525288D01*
X166982867Y-89384616D01*
X167077513Y-89220684D01*
X167136008Y-89040656D01*
X167155794Y-88852400D01*
X167136008Y-88664144D01*
X167082674Y-88500000D01*
X169344540Y-88500000D01*
X169364326Y-88688256D01*
X169364327Y-88688259D01*
X169422818Y-88868277D01*
X169422819Y-88868279D01*
X169422821Y-88868284D01*
X169517467Y-89032216D01*
X169613487Y-89138857D01*
X169644129Y-89172888D01*
X169797265Y-89284148D01*
X169797270Y-89284151D01*
X169970192Y-89361142D01*
X169970193Y-89361142D01*
X169970197Y-89361144D01*
X170122871Y-89393595D01*
X170184352Y-89426787D01*
X170218129Y-89487950D01*
X170213477Y-89557664D01*
X170204478Y-89576884D01*
X170172820Y-89631717D01*
X170172818Y-89631722D01*
X170114327Y-89811740D01*
X170114326Y-89811744D01*
X170094540Y-90000000D01*
X170114326Y-90188256D01*
X170114327Y-90188259D01*
X170172818Y-90368277D01*
X170172821Y-90368284D01*
X170267467Y-90532216D01*
X170357063Y-90631722D01*
X170394129Y-90672888D01*
X170547265Y-90784148D01*
X170547270Y-90784151D01*
X170720192Y-90861142D01*
X170720197Y-90861144D01*
X170905354Y-90900500D01*
X170905355Y-90900500D01*
X171094644Y-90900500D01*
X171094646Y-90900500D01*
X171279803Y-90861144D01*
X171452730Y-90784151D01*
X171605871Y-90672888D01*
X171732533Y-90532216D01*
X171827179Y-90368284D01*
X171885674Y-90188256D01*
X171905460Y-90000000D01*
X171885674Y-89811744D01*
X171827179Y-89631716D01*
X171732533Y-89467784D01*
X171605871Y-89327112D01*
X171605870Y-89327111D01*
X171452734Y-89215851D01*
X171452729Y-89215848D01*
X171279807Y-89138857D01*
X171279802Y-89138855D01*
X171127128Y-89106404D01*
X171065646Y-89073212D01*
X171031870Y-89012049D01*
X171036522Y-88942334D01*
X171045515Y-88923126D01*
X171077179Y-88868284D01*
X171135674Y-88688256D01*
X171144878Y-88600680D01*
X182544700Y-88600680D01*
X182544700Y-88759319D01*
X182575644Y-88914889D01*
X182575647Y-88914898D01*
X182636348Y-89061446D01*
X182636355Y-89061459D01*
X182724481Y-89193348D01*
X182724484Y-89193352D01*
X182836647Y-89305515D01*
X182836651Y-89305518D01*
X182968540Y-89393644D01*
X182968553Y-89393651D01*
X183048552Y-89426787D01*
X183115103Y-89454353D01*
X183115105Y-89454353D01*
X183115110Y-89454355D01*
X183270680Y-89485299D01*
X183270684Y-89485300D01*
X183270685Y-89485300D01*
X183429316Y-89485300D01*
X183429317Y-89485299D01*
X183502795Y-89470684D01*
X183584889Y-89454355D01*
X183584892Y-89454353D01*
X183584897Y-89454353D01*
X183731453Y-89393648D01*
X183863349Y-89305518D01*
X183975518Y-89193349D01*
X184063648Y-89061453D01*
X184124353Y-88914897D01*
X184136785Y-88852400D01*
X184144984Y-88811175D01*
X184155300Y-88759315D01*
X184155300Y-88600685D01*
X184149233Y-88570184D01*
X184124355Y-88445110D01*
X184124352Y-88445101D01*
X184063651Y-88298553D01*
X184063644Y-88298540D01*
X183975518Y-88166651D01*
X183975515Y-88166647D01*
X183863352Y-88054484D01*
X183863348Y-88054481D01*
X183731459Y-87966355D01*
X183731446Y-87966348D01*
X183584898Y-87905647D01*
X183584889Y-87905644D01*
X183429319Y-87874700D01*
X183429315Y-87874700D01*
X183270685Y-87874700D01*
X183270680Y-87874700D01*
X183115110Y-87905644D01*
X183115101Y-87905647D01*
X182968553Y-87966348D01*
X182968540Y-87966355D01*
X182836651Y-88054481D01*
X182836647Y-88054484D01*
X182724484Y-88166647D01*
X182724481Y-88166651D01*
X182636355Y-88298540D01*
X182636348Y-88298553D01*
X182575647Y-88445101D01*
X182575644Y-88445110D01*
X182544700Y-88600680D01*
X171144878Y-88600680D01*
X171155460Y-88500000D01*
X171135674Y-88311744D01*
X171077179Y-88131716D01*
X170982533Y-87967784D01*
X170855871Y-87827112D01*
X170855870Y-87827111D01*
X170702734Y-87715851D01*
X170702729Y-87715848D01*
X170529807Y-87638857D01*
X170529802Y-87638855D01*
X170384001Y-87607865D01*
X170344646Y-87599500D01*
X170155354Y-87599500D01*
X170122897Y-87606398D01*
X169970197Y-87638855D01*
X169970192Y-87638857D01*
X169797270Y-87715848D01*
X169797265Y-87715851D01*
X169644129Y-87827111D01*
X169517466Y-87967785D01*
X169422821Y-88131715D01*
X169422818Y-88131722D01*
X169386572Y-88243277D01*
X169364326Y-88311744D01*
X169344540Y-88500000D01*
X167082674Y-88500000D01*
X167077513Y-88484116D01*
X166982867Y-88320184D01*
X166982859Y-88320176D01*
X166981536Y-88318353D01*
X166981092Y-88317109D01*
X166979618Y-88314556D01*
X166980084Y-88314286D01*
X166958054Y-88252547D01*
X166963921Y-88207146D01*
X166965626Y-88201900D01*
X167010674Y-88063256D01*
X167030460Y-87875000D01*
X167010674Y-87686744D01*
X166952179Y-87506716D01*
X166857533Y-87342784D01*
X166827799Y-87309761D01*
X166797569Y-87246769D01*
X166806194Y-87177434D01*
X166847063Y-87126471D01*
X166975871Y-87032888D01*
X167102533Y-86892216D01*
X167197179Y-86728284D01*
X167255674Y-86548256D01*
X167275460Y-86360000D01*
X167255674Y-86171744D01*
X167197179Y-85991716D01*
X167102533Y-85827784D01*
X166975871Y-85687112D01*
X166974796Y-85686331D01*
X166822734Y-85575851D01*
X166822729Y-85575848D01*
X166649807Y-85498857D01*
X166649802Y-85498855D01*
X166504001Y-85467865D01*
X166464646Y-85459500D01*
X166275354Y-85459500D01*
X166242897Y-85466398D01*
X166090197Y-85498855D01*
X166090192Y-85498857D01*
X165917270Y-85575848D01*
X165917265Y-85575851D01*
X165764129Y-85687111D01*
X165637466Y-85827785D01*
X165542821Y-85991715D01*
X165542818Y-85991722D01*
X165489687Y-86155244D01*
X165484326Y-86171744D01*
X165464540Y-86360000D01*
X165484326Y-86548256D01*
X165484327Y-86548259D01*
X165542818Y-86728277D01*
X165542821Y-86728284D01*
X165637467Y-86892216D01*
X165660624Y-86917934D01*
X165667200Y-86925238D01*
X165697430Y-86988230D01*
X165688805Y-87057565D01*
X165647936Y-87108528D01*
X165519127Y-87202113D01*
X165392466Y-87342785D01*
X165297821Y-87506715D01*
X165297818Y-87506722D01*
X165239327Y-87686740D01*
X165239326Y-87686744D01*
X165219540Y-87875000D01*
X148942788Y-87875000D01*
X148936747Y-87813669D01*
X148882396Y-87634499D01*
X148882395Y-87634497D01*
X148794137Y-87469376D01*
X148794135Y-87469373D01*
X148675357Y-87324642D01*
X148530626Y-87205864D01*
X148530623Y-87205862D01*
X148365502Y-87117604D01*
X148186333Y-87063253D01*
X148186331Y-87063252D01*
X148000000Y-87044901D01*
X147813668Y-87063252D01*
X147813666Y-87063253D01*
X147634497Y-87117604D01*
X147469376Y-87205862D01*
X147469373Y-87205864D01*
X147324642Y-87324642D01*
X147205864Y-87469373D01*
X147205862Y-87469376D01*
X147117604Y-87634497D01*
X147063253Y-87813666D01*
X147063252Y-87813668D01*
X147044901Y-88000000D01*
X113300500Y-88000000D01*
X113300500Y-86500000D01*
X134294901Y-86500000D01*
X134313252Y-86686331D01*
X134313253Y-86686333D01*
X134367604Y-86865502D01*
X134455862Y-87030623D01*
X134455864Y-87030626D01*
X134574642Y-87175357D01*
X134719373Y-87294135D01*
X134719376Y-87294137D01*
X134844892Y-87361226D01*
X134884499Y-87382396D01*
X135063666Y-87436746D01*
X135063668Y-87436747D01*
X135080374Y-87438392D01*
X135250000Y-87455099D01*
X135436331Y-87436747D01*
X135615501Y-87382396D01*
X135780625Y-87294136D01*
X135925357Y-87175357D01*
X136044136Y-87030625D01*
X136132396Y-86865501D01*
X136186747Y-86686331D01*
X136186793Y-86685869D01*
X154544901Y-86685869D01*
X154563252Y-86872200D01*
X154563253Y-86872202D01*
X154617604Y-87051371D01*
X154705862Y-87216492D01*
X154705864Y-87216495D01*
X154824642Y-87361226D01*
X154969373Y-87480004D01*
X154969376Y-87480006D01*
X155019359Y-87506722D01*
X155134499Y-87568265D01*
X155313666Y-87622615D01*
X155313668Y-87622616D01*
X155330374Y-87624261D01*
X155500000Y-87640968D01*
X155686331Y-87622616D01*
X155865501Y-87568265D01*
X156030625Y-87480005D01*
X156175357Y-87361226D01*
X156294136Y-87216494D01*
X156382396Y-87051370D01*
X156382713Y-87050324D01*
X156383029Y-87049841D01*
X156384726Y-87045746D01*
X156385502Y-87046067D01*
X156421004Y-86991886D01*
X156484814Y-86963424D01*
X156553882Y-86973978D01*
X156593525Y-87003341D01*
X156620129Y-87032888D01*
X156773265Y-87144148D01*
X156773270Y-87144151D01*
X156946192Y-87221142D01*
X156946197Y-87221144D01*
X157131354Y-87260500D01*
X157131355Y-87260500D01*
X157320644Y-87260500D01*
X157320646Y-87260500D01*
X157505803Y-87221144D01*
X157678730Y-87144151D01*
X157831871Y-87032888D01*
X157958533Y-86892216D01*
X158053179Y-86728284D01*
X158111674Y-86548256D01*
X158131460Y-86360000D01*
X158119899Y-86250000D01*
X160044901Y-86250000D01*
X160063252Y-86436331D01*
X160063253Y-86436333D01*
X160117604Y-86615502D01*
X160205862Y-86780623D01*
X160205864Y-86780626D01*
X160324642Y-86925357D01*
X160469373Y-87044135D01*
X160469376Y-87044137D01*
X160606825Y-87117604D01*
X160634499Y-87132396D01*
X160813666Y-87186746D01*
X160813668Y-87186747D01*
X160830374Y-87188392D01*
X161000000Y-87205099D01*
X161186331Y-87186747D01*
X161365501Y-87132396D01*
X161530625Y-87044136D01*
X161675357Y-86925357D01*
X161794136Y-86780625D01*
X161882396Y-86615501D01*
X161936747Y-86436331D01*
X161955099Y-86250000D01*
X161936747Y-86063669D01*
X161882396Y-85884499D01*
X161872242Y-85865502D01*
X161794137Y-85719376D01*
X161794135Y-85719373D01*
X161675357Y-85574642D01*
X161530626Y-85455864D01*
X161530623Y-85455862D01*
X161365502Y-85367604D01*
X161186333Y-85313253D01*
X161186331Y-85313252D01*
X161000000Y-85294901D01*
X160813668Y-85313252D01*
X160813666Y-85313253D01*
X160634497Y-85367604D01*
X160469376Y-85455862D01*
X160469373Y-85455864D01*
X160324642Y-85574642D01*
X160205864Y-85719373D01*
X160205862Y-85719376D01*
X160117604Y-85884497D01*
X160063253Y-86063666D01*
X160063252Y-86063668D01*
X160044901Y-86250000D01*
X158119899Y-86250000D01*
X158111674Y-86171744D01*
X158086532Y-86094368D01*
X158084538Y-86024530D01*
X158120618Y-85964697D01*
X158178677Y-85934764D01*
X158289803Y-85911144D01*
X158289807Y-85911142D01*
X158289808Y-85911142D01*
X158392315Y-85865502D01*
X158462730Y-85834151D01*
X158615871Y-85722888D01*
X158742533Y-85582216D01*
X158837179Y-85418284D01*
X158895674Y-85238256D01*
X158915460Y-85050000D01*
X158895674Y-84861744D01*
X158837179Y-84681716D01*
X158742533Y-84517784D01*
X158615871Y-84377112D01*
X158615870Y-84377111D01*
X158462734Y-84265851D01*
X158462729Y-84265848D01*
X158427134Y-84250000D01*
X163044901Y-84250000D01*
X163063252Y-84436331D01*
X163063253Y-84436333D01*
X163117604Y-84615502D01*
X163205862Y-84780623D01*
X163205864Y-84780626D01*
X163324642Y-84925357D01*
X163469373Y-85044135D01*
X163469376Y-85044137D01*
X163634497Y-85132395D01*
X163634499Y-85132396D01*
X163813666Y-85186746D01*
X163813668Y-85186747D01*
X163830374Y-85188392D01*
X164000000Y-85205099D01*
X164186331Y-85186747D01*
X164365501Y-85132396D01*
X164530625Y-85044136D01*
X164629489Y-84963000D01*
X168385540Y-84963000D01*
X168405326Y-85151256D01*
X168405327Y-85151259D01*
X168463818Y-85331277D01*
X168463821Y-85331284D01*
X168558467Y-85495216D01*
X168666773Y-85615502D01*
X168685129Y-85635888D01*
X168838265Y-85747148D01*
X168838270Y-85747151D01*
X169011192Y-85824142D01*
X169011197Y-85824144D01*
X169196354Y-85863500D01*
X169196355Y-85863500D01*
X169385644Y-85863500D01*
X169385646Y-85863500D01*
X169570803Y-85824144D01*
X169743730Y-85747151D01*
X169896871Y-85635888D01*
X170023533Y-85495216D01*
X170108432Y-85348165D01*
X170158996Y-85299953D01*
X170227603Y-85286729D01*
X170292468Y-85312697D01*
X170307967Y-85327196D01*
X170394129Y-85422888D01*
X170547265Y-85534148D01*
X170547270Y-85534151D01*
X170720192Y-85611142D01*
X170720197Y-85611144D01*
X170905354Y-85650500D01*
X170905355Y-85650500D01*
X171094644Y-85650500D01*
X171094646Y-85650500D01*
X171279803Y-85611144D01*
X171452730Y-85534151D01*
X171605871Y-85422888D01*
X171732533Y-85282216D01*
X171827179Y-85118284D01*
X171885674Y-84938256D01*
X171905460Y-84750000D01*
X171885674Y-84561744D01*
X171827179Y-84381716D01*
X171732533Y-84217784D01*
X171605871Y-84077112D01*
X171605870Y-84077111D01*
X171452734Y-83965851D01*
X171452729Y-83965848D01*
X171279807Y-83888857D01*
X171279802Y-83888855D01*
X171134001Y-83857865D01*
X171094646Y-83849500D01*
X170905354Y-83849500D01*
X170872897Y-83856398D01*
X170720197Y-83888855D01*
X170720192Y-83888857D01*
X170547270Y-83965848D01*
X170547265Y-83965851D01*
X170394129Y-84077111D01*
X170267465Y-84217785D01*
X170182569Y-84364831D01*
X170132002Y-84413047D01*
X170063395Y-84426270D01*
X169998530Y-84400302D01*
X169983032Y-84385803D01*
X169896870Y-84290111D01*
X169743734Y-84178851D01*
X169743729Y-84178848D01*
X169570807Y-84101857D01*
X169570802Y-84101855D01*
X169425001Y-84070865D01*
X169385646Y-84062500D01*
X169196354Y-84062500D01*
X169163897Y-84069398D01*
X169011197Y-84101855D01*
X169011192Y-84101857D01*
X168838270Y-84178848D01*
X168838265Y-84178851D01*
X168685129Y-84290111D01*
X168558466Y-84430785D01*
X168463821Y-84594715D01*
X168463818Y-84594722D01*
X168411895Y-84754527D01*
X168405326Y-84774744D01*
X168385540Y-84963000D01*
X164629489Y-84963000D01*
X164675357Y-84925357D01*
X164699074Y-84896456D01*
X164756818Y-84857122D01*
X164826663Y-84855251D01*
X164853381Y-84865763D01*
X164884499Y-84882396D01*
X165026125Y-84925358D01*
X165063666Y-84936746D01*
X165063668Y-84936747D01*
X165078990Y-84938256D01*
X165250000Y-84955099D01*
X165436331Y-84936747D01*
X165615501Y-84882396D01*
X165780625Y-84794136D01*
X165925357Y-84675357D01*
X166044136Y-84530625D01*
X166132396Y-84365501D01*
X166186747Y-84186331D01*
X166205099Y-84000000D01*
X166186747Y-83813669D01*
X166132396Y-83634499D01*
X166132395Y-83634497D01*
X166044137Y-83469376D01*
X166044135Y-83469373D01*
X165925357Y-83324642D01*
X165798615Y-83220627D01*
X165759281Y-83162881D01*
X165757410Y-83093036D01*
X165781425Y-83046112D01*
X165794136Y-83030625D01*
X165882396Y-82865501D01*
X165926534Y-82720000D01*
X168534540Y-82720000D01*
X168554326Y-82908256D01*
X168554327Y-82908259D01*
X168612818Y-83088277D01*
X168612821Y-83088284D01*
X168707467Y-83252216D01*
X168811363Y-83367604D01*
X168834129Y-83392888D01*
X168987265Y-83504148D01*
X168987270Y-83504151D01*
X169160192Y-83581142D01*
X169160197Y-83581144D01*
X169345354Y-83620500D01*
X169345355Y-83620500D01*
X169534644Y-83620500D01*
X169534646Y-83620500D01*
X169719803Y-83581144D01*
X169892730Y-83504151D01*
X170045871Y-83392888D01*
X170172533Y-83252216D01*
X170267179Y-83088284D01*
X170325674Y-82908256D01*
X170345460Y-82720000D01*
X170325674Y-82531744D01*
X170267179Y-82351716D01*
X170172533Y-82187784D01*
X170045871Y-82047112D01*
X170045870Y-82047111D01*
X169892734Y-81935851D01*
X169892729Y-81935848D01*
X169719807Y-81858857D01*
X169719802Y-81858855D01*
X169558837Y-81824642D01*
X169534646Y-81819500D01*
X169345354Y-81819500D01*
X169321163Y-81824642D01*
X169160197Y-81858855D01*
X169160192Y-81858857D01*
X168987270Y-81935848D01*
X168987265Y-81935851D01*
X168834129Y-82047111D01*
X168707466Y-82187785D01*
X168612821Y-82351715D01*
X168612818Y-82351722D01*
X168564640Y-82500000D01*
X168554326Y-82531744D01*
X168534540Y-82720000D01*
X165926534Y-82720000D01*
X165936747Y-82686331D01*
X165955099Y-82500000D01*
X165936747Y-82313669D01*
X165882396Y-82134499D01*
X165880912Y-82131722D01*
X165794137Y-81969376D01*
X165794135Y-81969373D01*
X165675357Y-81824642D01*
X165530626Y-81705864D01*
X165530623Y-81705862D01*
X165365502Y-81617604D01*
X165186333Y-81563253D01*
X165186331Y-81563252D01*
X165000000Y-81544901D01*
X164813668Y-81563252D01*
X164813666Y-81563253D01*
X164634497Y-81617604D01*
X164469376Y-81705862D01*
X164469373Y-81705864D01*
X164324642Y-81824642D01*
X164205864Y-81969373D01*
X164205862Y-81969376D01*
X164117604Y-82134497D01*
X164063253Y-82313666D01*
X164063252Y-82313668D01*
X164044901Y-82500000D01*
X164063252Y-82686331D01*
X164063253Y-82686333D01*
X164117604Y-82865502D01*
X164205862Y-83030623D01*
X164205864Y-83030626D01*
X164270011Y-83108788D01*
X164297324Y-83173098D01*
X164285533Y-83241965D01*
X164238381Y-83293525D01*
X164170839Y-83311409D01*
X164162005Y-83310856D01*
X164000001Y-83294901D01*
X164000000Y-83294901D01*
X163813668Y-83313252D01*
X163813666Y-83313253D01*
X163634497Y-83367604D01*
X163469376Y-83455862D01*
X163469373Y-83455864D01*
X163324642Y-83574642D01*
X163205864Y-83719373D01*
X163205862Y-83719376D01*
X163117604Y-83884497D01*
X163063253Y-84063666D01*
X163063252Y-84063668D01*
X163044901Y-84250000D01*
X158427134Y-84250000D01*
X158289807Y-84188857D01*
X158289802Y-84188855D01*
X158144001Y-84157865D01*
X158104646Y-84149500D01*
X157915354Y-84149500D01*
X157882897Y-84156398D01*
X157730197Y-84188855D01*
X157730192Y-84188857D01*
X157557270Y-84265848D01*
X157557265Y-84265851D01*
X157404129Y-84377111D01*
X157277466Y-84517785D01*
X157182821Y-84681715D01*
X157180175Y-84687659D01*
X157179051Y-84687158D01*
X157143417Y-84739259D01*
X157079055Y-84766449D01*
X157010210Y-84754527D01*
X156969082Y-84721921D01*
X156925357Y-84668642D01*
X156780626Y-84549864D01*
X156780623Y-84549862D01*
X156615502Y-84461604D01*
X156436333Y-84407253D01*
X156436331Y-84407252D01*
X156250000Y-84388901D01*
X156063668Y-84407252D01*
X156063666Y-84407253D01*
X155884497Y-84461604D01*
X155719376Y-84549862D01*
X155719373Y-84549864D01*
X155574642Y-84668642D01*
X155455864Y-84813373D01*
X155455862Y-84813376D01*
X155367604Y-84978497D01*
X155313253Y-85157666D01*
X155313252Y-85157668D01*
X155294901Y-85344000D01*
X155313252Y-85530331D01*
X155313253Y-85530333D01*
X155338069Y-85612139D01*
X155338693Y-85682006D01*
X155301445Y-85741119D01*
X155255405Y-85766795D01*
X155134497Y-85803473D01*
X154969376Y-85891731D01*
X154969373Y-85891733D01*
X154824642Y-86010511D01*
X154705864Y-86155242D01*
X154705862Y-86155245D01*
X154617604Y-86320366D01*
X154563253Y-86499535D01*
X154563252Y-86499537D01*
X154544901Y-86685869D01*
X136186793Y-86685869D01*
X136205099Y-86500000D01*
X136186747Y-86313669D01*
X136132396Y-86134499D01*
X136094537Y-86063669D01*
X136044137Y-85969376D01*
X136044135Y-85969373D01*
X135925357Y-85824642D01*
X135780626Y-85705864D01*
X135780623Y-85705862D01*
X135615502Y-85617604D01*
X135436333Y-85563253D01*
X135436331Y-85563252D01*
X135250000Y-85544901D01*
X135063668Y-85563252D01*
X135063666Y-85563253D01*
X134884497Y-85617604D01*
X134719376Y-85705862D01*
X134719373Y-85705864D01*
X134574642Y-85824642D01*
X134455864Y-85969373D01*
X134455862Y-85969376D01*
X134367604Y-86134497D01*
X134313253Y-86313666D01*
X134313252Y-86313668D01*
X134294901Y-86500000D01*
X113300500Y-86500000D01*
X113300500Y-83500000D01*
X127044901Y-83500000D01*
X127063252Y-83686331D01*
X127063253Y-83686333D01*
X127117604Y-83865502D01*
X127205862Y-84030623D01*
X127205864Y-84030626D01*
X127324642Y-84175357D01*
X127469373Y-84294135D01*
X127469376Y-84294137D01*
X127601637Y-84364831D01*
X127634499Y-84382396D01*
X127813666Y-84436746D01*
X127813668Y-84436747D01*
X127832020Y-84438554D01*
X128000000Y-84455099D01*
X128162004Y-84439143D01*
X128230650Y-84452162D01*
X128281360Y-84500227D01*
X128298035Y-84568078D01*
X128275379Y-84634172D01*
X128270011Y-84641211D01*
X128205864Y-84719373D01*
X128205862Y-84719376D01*
X128117604Y-84884497D01*
X128063253Y-85063666D01*
X128063252Y-85063668D01*
X128044901Y-85250000D01*
X128063252Y-85436331D01*
X128063253Y-85436333D01*
X128117604Y-85615502D01*
X128205862Y-85780623D01*
X128205864Y-85780626D01*
X128324642Y-85925357D01*
X128469373Y-86044135D01*
X128469376Y-86044137D01*
X128634497Y-86132395D01*
X128634499Y-86132396D01*
X128813666Y-86186746D01*
X128813668Y-86186747D01*
X128830374Y-86188392D01*
X129000000Y-86205099D01*
X129186331Y-86186747D01*
X129365501Y-86132396D01*
X129530625Y-86044136D01*
X129675357Y-85925357D01*
X129794136Y-85780625D01*
X129882396Y-85615501D01*
X129917433Y-85500000D01*
X144044901Y-85500000D01*
X144063252Y-85686331D01*
X144063253Y-85686333D01*
X144117604Y-85865502D01*
X144205862Y-86030623D01*
X144205864Y-86030626D01*
X144324642Y-86175357D01*
X144469373Y-86294135D01*
X144469376Y-86294137D01*
X144634497Y-86382395D01*
X144634499Y-86382396D01*
X144813666Y-86436746D01*
X144813668Y-86436747D01*
X144830374Y-86438392D01*
X145000000Y-86455099D01*
X145186331Y-86436747D01*
X145365501Y-86382396D01*
X145530625Y-86294136D01*
X145675357Y-86175357D01*
X145794136Y-86030625D01*
X145882396Y-85865501D01*
X145936747Y-85686331D01*
X145955099Y-85500000D01*
X145936747Y-85313669D01*
X145882396Y-85134499D01*
X145881271Y-85132395D01*
X145794137Y-84969376D01*
X145794135Y-84969373D01*
X145675357Y-84824642D01*
X145530626Y-84705864D01*
X145530623Y-84705862D01*
X145365502Y-84617604D01*
X145186333Y-84563253D01*
X145186331Y-84563252D01*
X145000000Y-84544901D01*
X144813668Y-84563252D01*
X144813666Y-84563253D01*
X144634497Y-84617604D01*
X144469376Y-84705862D01*
X144469373Y-84705864D01*
X144324642Y-84824642D01*
X144205864Y-84969373D01*
X144205862Y-84969376D01*
X144117604Y-85134497D01*
X144063253Y-85313666D01*
X144063252Y-85313668D01*
X144044901Y-85500000D01*
X129917433Y-85500000D01*
X129936747Y-85436331D01*
X129955099Y-85250000D01*
X129936747Y-85063669D01*
X129882396Y-84884499D01*
X129834097Y-84794137D01*
X129794137Y-84719376D01*
X129794135Y-84719373D01*
X129675357Y-84574642D01*
X129584406Y-84500000D01*
X150844540Y-84500000D01*
X150864326Y-84688256D01*
X150864327Y-84688259D01*
X150922818Y-84868277D01*
X150922821Y-84868284D01*
X151017467Y-85032216D01*
X151124654Y-85151259D01*
X151144129Y-85172888D01*
X151297265Y-85284148D01*
X151297270Y-85284151D01*
X151470192Y-85361142D01*
X151470197Y-85361144D01*
X151655354Y-85400500D01*
X151655355Y-85400500D01*
X151844644Y-85400500D01*
X151844646Y-85400500D01*
X152029803Y-85361144D01*
X152202730Y-85284151D01*
X152355871Y-85172888D01*
X152482533Y-85032216D01*
X152577179Y-84868284D01*
X152635674Y-84688256D01*
X152655460Y-84500000D01*
X152635674Y-84311744D01*
X152577179Y-84131716D01*
X152482533Y-83967784D01*
X152355871Y-83827112D01*
X152355870Y-83827111D01*
X152202734Y-83715851D01*
X152202729Y-83715848D01*
X152029807Y-83638857D01*
X152029802Y-83638855D01*
X151884001Y-83607865D01*
X151844646Y-83599500D01*
X151655354Y-83599500D01*
X151622897Y-83606398D01*
X151470197Y-83638855D01*
X151470192Y-83638857D01*
X151297270Y-83715848D01*
X151297265Y-83715851D01*
X151144129Y-83827111D01*
X151017466Y-83967785D01*
X150922821Y-84131715D01*
X150922818Y-84131722D01*
X150864327Y-84311740D01*
X150864326Y-84311744D01*
X150844540Y-84500000D01*
X129584406Y-84500000D01*
X129530626Y-84455864D01*
X129530623Y-84455862D01*
X129365502Y-84367604D01*
X129186333Y-84313253D01*
X129186331Y-84313252D01*
X129000000Y-84294901D01*
X128999999Y-84294901D01*
X128837994Y-84310856D01*
X128769348Y-84297837D01*
X128718638Y-84249771D01*
X128701964Y-84181921D01*
X128724621Y-84115826D01*
X128729978Y-84108801D01*
X128794136Y-84030625D01*
X128882396Y-83865501D01*
X128936747Y-83686331D01*
X128955099Y-83500000D01*
X128937286Y-83319137D01*
X128936747Y-83313668D01*
X128936746Y-83313666D01*
X128936621Y-83313253D01*
X128882396Y-83134499D01*
X128840238Y-83055626D01*
X128794137Y-82969376D01*
X128794135Y-82969373D01*
X128675357Y-82824642D01*
X128530626Y-82705864D01*
X128530623Y-82705862D01*
X128365502Y-82617604D01*
X128186333Y-82563253D01*
X128186331Y-82563252D01*
X128000000Y-82544901D01*
X127813668Y-82563252D01*
X127813666Y-82563253D01*
X127634497Y-82617604D01*
X127469376Y-82705862D01*
X127469373Y-82705864D01*
X127324642Y-82824642D01*
X127205864Y-82969373D01*
X127205862Y-82969376D01*
X127117604Y-83134497D01*
X127063253Y-83313666D01*
X127063252Y-83313668D01*
X127044901Y-83500000D01*
X113300500Y-83500000D01*
X113300500Y-82525000D01*
X145044901Y-82525000D01*
X145063252Y-82711331D01*
X145063253Y-82711333D01*
X145117604Y-82890502D01*
X145205862Y-83055623D01*
X145205864Y-83055626D01*
X145324642Y-83200357D01*
X145469373Y-83319135D01*
X145469376Y-83319137D01*
X145587725Y-83382395D01*
X145634499Y-83407396D01*
X145813666Y-83461746D01*
X145813668Y-83461747D01*
X145830374Y-83463392D01*
X146000000Y-83480099D01*
X146186331Y-83461747D01*
X146365501Y-83407396D01*
X146530625Y-83319136D01*
X146675357Y-83200357D01*
X146794136Y-83055625D01*
X146882396Y-82890501D01*
X146936747Y-82711331D01*
X146955099Y-82525000D01*
X146952637Y-82500000D01*
X148794901Y-82500000D01*
X148813252Y-82686331D01*
X148813253Y-82686333D01*
X148867604Y-82865502D01*
X148955862Y-83030623D01*
X148955864Y-83030626D01*
X149074642Y-83175357D01*
X149219373Y-83294135D01*
X149219376Y-83294137D01*
X149309948Y-83342548D01*
X149384499Y-83382396D01*
X149548703Y-83432207D01*
X149563666Y-83436746D01*
X149563668Y-83436747D01*
X149580374Y-83438392D01*
X149750000Y-83455099D01*
X149936331Y-83436747D01*
X150115501Y-83382396D01*
X150280625Y-83294136D01*
X150425357Y-83175357D01*
X150544136Y-83030625D01*
X150632396Y-82865501D01*
X150686747Y-82686331D01*
X150705099Y-82500000D01*
X151844540Y-82500000D01*
X151864326Y-82688256D01*
X151864327Y-82688259D01*
X151922818Y-82868277D01*
X151922821Y-82868284D01*
X152017467Y-83032216D01*
X152135119Y-83162881D01*
X152144129Y-83172888D01*
X152297265Y-83284148D01*
X152297270Y-83284151D01*
X152470192Y-83361142D01*
X152470197Y-83361144D01*
X152655354Y-83400500D01*
X152655355Y-83400500D01*
X152844644Y-83400500D01*
X152844646Y-83400500D01*
X153029803Y-83361144D01*
X153202730Y-83284151D01*
X153355871Y-83172888D01*
X153482533Y-83032216D01*
X153577179Y-82868284D01*
X153635674Y-82688256D01*
X153655460Y-82500000D01*
X154594540Y-82500000D01*
X154614326Y-82688256D01*
X154614327Y-82688259D01*
X154672818Y-82868277D01*
X154672821Y-82868284D01*
X154767467Y-83032216D01*
X154885119Y-83162881D01*
X154894129Y-83172888D01*
X155047265Y-83284148D01*
X155047270Y-83284151D01*
X155220192Y-83361142D01*
X155220197Y-83361144D01*
X155405354Y-83400500D01*
X155405355Y-83400500D01*
X155594644Y-83400500D01*
X155594646Y-83400500D01*
X155779803Y-83361144D01*
X155952730Y-83284151D01*
X156105871Y-83172888D01*
X156232533Y-83032216D01*
X156327179Y-82868284D01*
X156385674Y-82688256D01*
X156405460Y-82500000D01*
X156385674Y-82311744D01*
X156327179Y-82131716D01*
X156232533Y-81967784D01*
X156105871Y-81827112D01*
X156102473Y-81824643D01*
X155952734Y-81715851D01*
X155952729Y-81715848D01*
X155779807Y-81638857D01*
X155779802Y-81638855D01*
X155634001Y-81607865D01*
X155594646Y-81599500D01*
X155405354Y-81599500D01*
X155372897Y-81606398D01*
X155220197Y-81638855D01*
X155220192Y-81638857D01*
X155047270Y-81715848D01*
X155047265Y-81715851D01*
X154894129Y-81827111D01*
X154767466Y-81967785D01*
X154672821Y-82131715D01*
X154672818Y-82131722D01*
X154614327Y-82311740D01*
X154614326Y-82311744D01*
X154594540Y-82500000D01*
X153655460Y-82500000D01*
X153635674Y-82311744D01*
X153577179Y-82131716D01*
X153482533Y-81967784D01*
X153355871Y-81827112D01*
X153352473Y-81824643D01*
X153202734Y-81715851D01*
X153202729Y-81715848D01*
X153029807Y-81638857D01*
X153029802Y-81638855D01*
X152884001Y-81607865D01*
X152844646Y-81599500D01*
X152655354Y-81599500D01*
X152622897Y-81606398D01*
X152470197Y-81638855D01*
X152470192Y-81638857D01*
X152297270Y-81715848D01*
X152297265Y-81715851D01*
X152144129Y-81827111D01*
X152017466Y-81967785D01*
X151922821Y-82131715D01*
X151922818Y-82131722D01*
X151864327Y-82311740D01*
X151864326Y-82311744D01*
X151844540Y-82500000D01*
X150705099Y-82500000D01*
X150686747Y-82313669D01*
X150632396Y-82134499D01*
X150630912Y-82131722D01*
X150544137Y-81969376D01*
X150544135Y-81969373D01*
X150425357Y-81824642D01*
X150280626Y-81705864D01*
X150280623Y-81705862D01*
X150115502Y-81617604D01*
X149936333Y-81563253D01*
X149936331Y-81563252D01*
X149750000Y-81544901D01*
X149563668Y-81563252D01*
X149563666Y-81563253D01*
X149384497Y-81617604D01*
X149219376Y-81705862D01*
X149219373Y-81705864D01*
X149074642Y-81824642D01*
X148955864Y-81969373D01*
X148955862Y-81969376D01*
X148867604Y-82134497D01*
X148813253Y-82313666D01*
X148813252Y-82313668D01*
X148794901Y-82500000D01*
X146952637Y-82500000D01*
X146936747Y-82338669D01*
X146882396Y-82159499D01*
X146867545Y-82131715D01*
X146794137Y-81994376D01*
X146794135Y-81994373D01*
X146675357Y-81849642D01*
X146530626Y-81730864D01*
X146530623Y-81730862D01*
X146365502Y-81642604D01*
X146186333Y-81588253D01*
X146186331Y-81588252D01*
X146000000Y-81569901D01*
X145813668Y-81588252D01*
X145813666Y-81588253D01*
X145634497Y-81642604D01*
X145469376Y-81730862D01*
X145469373Y-81730864D01*
X145324642Y-81849642D01*
X145205864Y-81994373D01*
X145205862Y-81994376D01*
X145117604Y-82159497D01*
X145063253Y-82338666D01*
X145063252Y-82338668D01*
X145044901Y-82525000D01*
X113300500Y-82525000D01*
X113300500Y-80660000D01*
X166824540Y-80660000D01*
X166844326Y-80848256D01*
X166844327Y-80848259D01*
X166902818Y-81028277D01*
X166902821Y-81028284D01*
X166997467Y-81192216D01*
X167117490Y-81325515D01*
X167124129Y-81332888D01*
X167277265Y-81444148D01*
X167277270Y-81444151D01*
X167450192Y-81521142D01*
X167450197Y-81521144D01*
X167635354Y-81560500D01*
X167635355Y-81560500D01*
X167824644Y-81560500D01*
X167824646Y-81560500D01*
X168009803Y-81521144D01*
X168182730Y-81444151D01*
X168335871Y-81332888D01*
X168462533Y-81192216D01*
X168557179Y-81028284D01*
X168615674Y-80848256D01*
X168635460Y-80660000D01*
X168631327Y-80620680D01*
X182544700Y-80620680D01*
X182544700Y-80779319D01*
X182575644Y-80934889D01*
X182575647Y-80934898D01*
X182636348Y-81081446D01*
X182636355Y-81081459D01*
X182724481Y-81213348D01*
X182724484Y-81213352D01*
X182836647Y-81325515D01*
X182836651Y-81325518D01*
X182968540Y-81413644D01*
X182968553Y-81413651D01*
X183042181Y-81444148D01*
X183115103Y-81474353D01*
X183115105Y-81474353D01*
X183115110Y-81474355D01*
X183270680Y-81505299D01*
X183270684Y-81505300D01*
X183270685Y-81505300D01*
X183429316Y-81505300D01*
X183429317Y-81505299D01*
X183481175Y-81494984D01*
X183584889Y-81474355D01*
X183584892Y-81474353D01*
X183584897Y-81474353D01*
X183731453Y-81413648D01*
X183863349Y-81325518D01*
X183975518Y-81213349D01*
X184063648Y-81081453D01*
X184124353Y-80934897D01*
X184155300Y-80779315D01*
X184155300Y-80620685D01*
X184155024Y-80619298D01*
X184124355Y-80465110D01*
X184124352Y-80465101D01*
X184063651Y-80318553D01*
X184063644Y-80318540D01*
X183975518Y-80186651D01*
X183975515Y-80186647D01*
X183863352Y-80074484D01*
X183863348Y-80074481D01*
X183731459Y-79986355D01*
X183731446Y-79986348D01*
X183584898Y-79925647D01*
X183584889Y-79925644D01*
X183429319Y-79894700D01*
X183429315Y-79894700D01*
X183270685Y-79894700D01*
X183270680Y-79894700D01*
X183115110Y-79925644D01*
X183115101Y-79925647D01*
X182968553Y-79986348D01*
X182968540Y-79986355D01*
X182836651Y-80074481D01*
X182836647Y-80074484D01*
X182724484Y-80186647D01*
X182724481Y-80186651D01*
X182636355Y-80318540D01*
X182636348Y-80318553D01*
X182575647Y-80465101D01*
X182575644Y-80465110D01*
X182544700Y-80620680D01*
X168631327Y-80620680D01*
X168615674Y-80471744D01*
X168557179Y-80291716D01*
X168462533Y-80127784D01*
X168335871Y-79987112D01*
X168334825Y-79986352D01*
X168182734Y-79875851D01*
X168182729Y-79875848D01*
X168009807Y-79798857D01*
X168009802Y-79798855D01*
X167864001Y-79767865D01*
X167824646Y-79759500D01*
X167635354Y-79759500D01*
X167602897Y-79766398D01*
X167450197Y-79798855D01*
X167450192Y-79798857D01*
X167277270Y-79875848D01*
X167277265Y-79875851D01*
X167124129Y-79987111D01*
X166997466Y-80127785D01*
X166902821Y-80291715D01*
X166902818Y-80291722D01*
X166844327Y-80471740D01*
X166844326Y-80471744D01*
X166824540Y-80660000D01*
X113300500Y-80660000D01*
X113300500Y-78750000D01*
X128044901Y-78750000D01*
X128063252Y-78936331D01*
X128063253Y-78936333D01*
X128117604Y-79115502D01*
X128205862Y-79280623D01*
X128205864Y-79280626D01*
X128324642Y-79425357D01*
X128469373Y-79544135D01*
X128469376Y-79544137D01*
X128634497Y-79632395D01*
X128634499Y-79632396D01*
X128811286Y-79686024D01*
X128813666Y-79686746D01*
X128813668Y-79686747D01*
X128830374Y-79688392D01*
X129000000Y-79705099D01*
X129186331Y-79686747D01*
X129365501Y-79632396D01*
X129530625Y-79544136D01*
X129675357Y-79425357D01*
X129794136Y-79280625D01*
X129882396Y-79115501D01*
X129936747Y-78936331D01*
X129955099Y-78750000D01*
X129936747Y-78563669D01*
X129882396Y-78384499D01*
X129845394Y-78315273D01*
X129794137Y-78219376D01*
X129794135Y-78219373D01*
X129675357Y-78074642D01*
X129530626Y-77955864D01*
X129530623Y-77955862D01*
X129365502Y-77867604D01*
X129186333Y-77813253D01*
X129186331Y-77813252D01*
X129000000Y-77794901D01*
X128813668Y-77813252D01*
X128813666Y-77813253D01*
X128634497Y-77867604D01*
X128469376Y-77955862D01*
X128469373Y-77955864D01*
X128324642Y-78074642D01*
X128205864Y-78219373D01*
X128205862Y-78219376D01*
X128117604Y-78384497D01*
X128063253Y-78563666D01*
X128063252Y-78563668D01*
X128044901Y-78750000D01*
X113300500Y-78750000D01*
X113300500Y-76800000D01*
X157244659Y-76800000D01*
X157263975Y-76996129D01*
X157321188Y-77184733D01*
X157414086Y-77358532D01*
X157414090Y-77358539D01*
X157539116Y-77510883D01*
X157691460Y-77635909D01*
X157691464Y-77635911D01*
X157700314Y-77640642D01*
X157750158Y-77689605D01*
X157765618Y-77757743D01*
X157741786Y-77823422D01*
X157700314Y-77859358D01*
X157691464Y-77864088D01*
X157691460Y-77864090D01*
X157539116Y-77989116D01*
X157414090Y-78141460D01*
X157414086Y-78141467D01*
X157321188Y-78315266D01*
X157263975Y-78503870D01*
X157244659Y-78700000D01*
X157263975Y-78896129D01*
X157321188Y-79084733D01*
X157414086Y-79258532D01*
X157414090Y-79258539D01*
X157539116Y-79410883D01*
X157691460Y-79535909D01*
X157691467Y-79535913D01*
X157865266Y-79628811D01*
X157865269Y-79628811D01*
X157865273Y-79628814D01*
X158053868Y-79686024D01*
X158250000Y-79705341D01*
X158446132Y-79686024D01*
X158634727Y-79628814D01*
X158808538Y-79535910D01*
X158960883Y-79410883D01*
X159085910Y-79258538D01*
X159132362Y-79171632D01*
X159178811Y-79084733D01*
X159178811Y-79084732D01*
X159178814Y-79084727D01*
X159236024Y-78896132D01*
X159250417Y-78750000D01*
X170044901Y-78750000D01*
X170063252Y-78936331D01*
X170063253Y-78936333D01*
X170117604Y-79115502D01*
X170205862Y-79280623D01*
X170205864Y-79280626D01*
X170324642Y-79425357D01*
X170469373Y-79544135D01*
X170469376Y-79544137D01*
X170634497Y-79632395D01*
X170634499Y-79632396D01*
X170811286Y-79686024D01*
X170813666Y-79686746D01*
X170813668Y-79686747D01*
X170830374Y-79688392D01*
X171000000Y-79705099D01*
X171186331Y-79686747D01*
X171365501Y-79632396D01*
X171530625Y-79544136D01*
X171675357Y-79425357D01*
X171794136Y-79280625D01*
X171882396Y-79115501D01*
X171936747Y-78936331D01*
X171955099Y-78750000D01*
X171936747Y-78563669D01*
X171882396Y-78384499D01*
X171845394Y-78315273D01*
X171794137Y-78219376D01*
X171794135Y-78219373D01*
X171675357Y-78074642D01*
X171530626Y-77955864D01*
X171530623Y-77955862D01*
X171365502Y-77867604D01*
X171186333Y-77813253D01*
X171186331Y-77813252D01*
X171000000Y-77794901D01*
X170813668Y-77813252D01*
X170813666Y-77813253D01*
X170634497Y-77867604D01*
X170469376Y-77955862D01*
X170469373Y-77955864D01*
X170324642Y-78074642D01*
X170205864Y-78219373D01*
X170205862Y-78219376D01*
X170117604Y-78384497D01*
X170063253Y-78563666D01*
X170063252Y-78563668D01*
X170044901Y-78750000D01*
X159250417Y-78750000D01*
X159255341Y-78700000D01*
X159236024Y-78503868D01*
X159178814Y-78315273D01*
X159178811Y-78315269D01*
X159178811Y-78315266D01*
X159085913Y-78141467D01*
X159085909Y-78141460D01*
X158960883Y-77989116D01*
X158808539Y-77864091D01*
X158808538Y-77864090D01*
X158799687Y-77859359D01*
X158749843Y-77810398D01*
X158734381Y-77742261D01*
X158758211Y-77676581D01*
X158799686Y-77640641D01*
X158808538Y-77635910D01*
X158960883Y-77510883D01*
X159085910Y-77358538D01*
X159178814Y-77184727D01*
X159236024Y-76996132D01*
X159255341Y-76800000D01*
X159236024Y-76603868D01*
X159178814Y-76415273D01*
X159178811Y-76415269D01*
X159178811Y-76415266D01*
X159085913Y-76241467D01*
X159085909Y-76241460D01*
X158960883Y-76089116D01*
X158808539Y-75964090D01*
X158808532Y-75964086D01*
X158634733Y-75871188D01*
X158634727Y-75871186D01*
X158446132Y-75813976D01*
X158446129Y-75813975D01*
X158250000Y-75794659D01*
X158053870Y-75813975D01*
X157865266Y-75871188D01*
X157691467Y-75964086D01*
X157691460Y-75964090D01*
X157539116Y-76089116D01*
X157414090Y-76241460D01*
X157414086Y-76241467D01*
X157321188Y-76415266D01*
X157263975Y-76603870D01*
X157244659Y-76800000D01*
X113300500Y-76800000D01*
X113300500Y-71250000D01*
X179044901Y-71250000D01*
X179063252Y-71436331D01*
X179063253Y-71436333D01*
X179117604Y-71615502D01*
X179205862Y-71780623D01*
X179205864Y-71780626D01*
X179324642Y-71925357D01*
X179469373Y-72044135D01*
X179469376Y-72044137D01*
X179634497Y-72132395D01*
X179634499Y-72132396D01*
X179813191Y-72186602D01*
X179813666Y-72186746D01*
X179813668Y-72186747D01*
X179830374Y-72188392D01*
X180000000Y-72205099D01*
X180186331Y-72186747D01*
X180365501Y-72132396D01*
X180530625Y-72044136D01*
X180675357Y-71925357D01*
X180794136Y-71780625D01*
X180882396Y-71615501D01*
X180936747Y-71436331D01*
X180955099Y-71250000D01*
X180936747Y-71063669D01*
X180882396Y-70884499D01*
X180842621Y-70810084D01*
X180794137Y-70719376D01*
X180794135Y-70719373D01*
X180675357Y-70574642D01*
X180547849Y-70469999D01*
X182150321Y-70469999D01*
X182150321Y-70470000D01*
X182169002Y-70683527D01*
X182169004Y-70683537D01*
X182224477Y-70890567D01*
X182224481Y-70890576D01*
X182315066Y-71084838D01*
X182315067Y-71084840D01*
X182354825Y-71141620D01*
X182354825Y-71141621D01*
X182958274Y-70538171D01*
X182983963Y-70634044D01*
X183039916Y-70730956D01*
X183119044Y-70810084D01*
X183215956Y-70866037D01*
X183311827Y-70891725D01*
X182708377Y-71495173D01*
X182765161Y-71534933D01*
X182959423Y-71625518D01*
X182959432Y-71625522D01*
X183166462Y-71680995D01*
X183166472Y-71680997D01*
X183379999Y-71699679D01*
X183380001Y-71699679D01*
X183593527Y-71680997D01*
X183593537Y-71680995D01*
X183800567Y-71625522D01*
X183800576Y-71625518D01*
X183994839Y-71534933D01*
X184051621Y-71495173D01*
X183448173Y-70891725D01*
X183544044Y-70866037D01*
X183640956Y-70810084D01*
X183720084Y-70730956D01*
X183776037Y-70634044D01*
X183801725Y-70538172D01*
X184405173Y-71141621D01*
X184442207Y-71088732D01*
X184496784Y-71045107D01*
X184566283Y-71037915D01*
X184628637Y-71069437D01*
X184664051Y-71129667D01*
X184661713Y-71198173D01*
X184657086Y-71212410D01*
X184657085Y-71212414D01*
X184655884Y-71219999D01*
X184655885Y-71220000D01*
X185563012Y-71220000D01*
X185545795Y-71229940D01*
X185489940Y-71285795D01*
X185450444Y-71354204D01*
X185430000Y-71430504D01*
X185430000Y-71509496D01*
X185450444Y-71585796D01*
X185489940Y-71654205D01*
X185545795Y-71710060D01*
X185563012Y-71720000D01*
X184655885Y-71720000D01*
X184657085Y-71727584D01*
X184710591Y-71892255D01*
X184789195Y-72046524D01*
X184890967Y-72186602D01*
X185013397Y-72309032D01*
X185153475Y-72410804D01*
X185307742Y-72489408D01*
X185472415Y-72542914D01*
X185643429Y-72570000D01*
X185830000Y-72570000D01*
X185830000Y-71770000D01*
X186330000Y-71770000D01*
X186330000Y-72570000D01*
X186516571Y-72570000D01*
X186687584Y-72542914D01*
X186852257Y-72489408D01*
X187006524Y-72410804D01*
X187146602Y-72309032D01*
X187269032Y-72186602D01*
X187370804Y-72046524D01*
X187449408Y-71892255D01*
X187502914Y-71727584D01*
X187504115Y-71720000D01*
X186596988Y-71720000D01*
X186614205Y-71710060D01*
X186670060Y-71654205D01*
X186709556Y-71585796D01*
X186730000Y-71509496D01*
X186730000Y-71430504D01*
X186709556Y-71354204D01*
X186670060Y-71285795D01*
X186614205Y-71229940D01*
X186596988Y-71220000D01*
X187504115Y-71220000D01*
X187504115Y-71219999D01*
X187502914Y-71212415D01*
X187449408Y-71047744D01*
X187370804Y-70893475D01*
X187269032Y-70753397D01*
X187146602Y-70630967D01*
X187006524Y-70529195D01*
X186852257Y-70450591D01*
X186687584Y-70397085D01*
X186516571Y-70370000D01*
X186330000Y-70370000D01*
X186330000Y-71170000D01*
X185830000Y-71170000D01*
X185830000Y-70370000D01*
X185643429Y-70370000D01*
X185472415Y-70397085D01*
X185307742Y-70450591D01*
X185153475Y-70529195D01*
X185013397Y-70630967D01*
X184890967Y-70753397D01*
X184789193Y-70893479D01*
X184788117Y-70895591D01*
X184787495Y-70896249D01*
X184786651Y-70897627D01*
X184786361Y-70897449D01*
X184740139Y-70946384D01*
X184672317Y-70963175D01*
X184606184Y-70940633D01*
X184562736Y-70885915D01*
X184555768Y-70816393D01*
X184557861Y-70807195D01*
X184590996Y-70683533D01*
X184590997Y-70683527D01*
X184609679Y-70470000D01*
X184609679Y-70469999D01*
X184590997Y-70256472D01*
X184590995Y-70256462D01*
X184535522Y-70049432D01*
X184535518Y-70049423D01*
X184444933Y-69855162D01*
X184405173Y-69798378D01*
X183801725Y-70401826D01*
X183776037Y-70305956D01*
X183720084Y-70209044D01*
X183640956Y-70129916D01*
X183544044Y-70073963D01*
X183448171Y-70048274D01*
X184051621Y-69444825D01*
X183994840Y-69405067D01*
X183994838Y-69405066D01*
X183800576Y-69314481D01*
X183800567Y-69314477D01*
X183593537Y-69259004D01*
X183593527Y-69259002D01*
X183380001Y-69240321D01*
X183379999Y-69240321D01*
X183166472Y-69259002D01*
X183166462Y-69259004D01*
X182959432Y-69314477D01*
X182959423Y-69314481D01*
X182765158Y-69405068D01*
X182708378Y-69444824D01*
X183311828Y-70048274D01*
X183215956Y-70073963D01*
X183119044Y-70129916D01*
X183039916Y-70209044D01*
X182983963Y-70305956D01*
X182958274Y-70401828D01*
X182354824Y-69798378D01*
X182315068Y-69855158D01*
X182224481Y-70049423D01*
X182224477Y-70049432D01*
X182169004Y-70256462D01*
X182169002Y-70256472D01*
X182150321Y-70469999D01*
X180547849Y-70469999D01*
X180530626Y-70455864D01*
X180530623Y-70455862D01*
X180365502Y-70367604D01*
X180186333Y-70313253D01*
X180186331Y-70313252D01*
X180000000Y-70294901D01*
X179813668Y-70313252D01*
X179813666Y-70313253D01*
X179634497Y-70367604D01*
X179469376Y-70455862D01*
X179469373Y-70455864D01*
X179324642Y-70574642D01*
X179205864Y-70719373D01*
X179205862Y-70719376D01*
X179117604Y-70884497D01*
X179063253Y-71063666D01*
X179063252Y-71063668D01*
X179044901Y-71250000D01*
X113300500Y-71250000D01*
X113300500Y-69000000D01*
X115044901Y-69000000D01*
X115063252Y-69186331D01*
X115063253Y-69186333D01*
X115117604Y-69365502D01*
X115205862Y-69530623D01*
X115205864Y-69530626D01*
X115324642Y-69675357D01*
X115469373Y-69794135D01*
X115469376Y-69794137D01*
X115583540Y-69855158D01*
X115634499Y-69882396D01*
X115813666Y-69936746D01*
X115813668Y-69936747D01*
X115830374Y-69938392D01*
X116000000Y-69955099D01*
X116186331Y-69936747D01*
X116365501Y-69882396D01*
X116530625Y-69794136D01*
X116675357Y-69675357D01*
X116794136Y-69530625D01*
X116882396Y-69365501D01*
X116936747Y-69186331D01*
X116955099Y-69000000D01*
X116936747Y-68813669D01*
X116882396Y-68634499D01*
X116882395Y-68634497D01*
X116810506Y-68500000D01*
X143044901Y-68500000D01*
X143063252Y-68686331D01*
X143063253Y-68686333D01*
X143117604Y-68865502D01*
X143205862Y-69030623D01*
X143205864Y-69030626D01*
X143324642Y-69175357D01*
X143469373Y-69294135D01*
X143469376Y-69294137D01*
X143602890Y-69365501D01*
X143634499Y-69382396D01*
X143813666Y-69436746D01*
X143813668Y-69436747D01*
X143830374Y-69438392D01*
X144000000Y-69455099D01*
X144186331Y-69436747D01*
X144365501Y-69382396D01*
X144530625Y-69294136D01*
X144675357Y-69175357D01*
X144794136Y-69030625D01*
X144882396Y-68865501D01*
X144936747Y-68686331D01*
X144955099Y-68500000D01*
X156794901Y-68500000D01*
X156813252Y-68686331D01*
X156813253Y-68686333D01*
X156867604Y-68865502D01*
X156955862Y-69030623D01*
X156955864Y-69030626D01*
X157074642Y-69175357D01*
X157219373Y-69294135D01*
X157219376Y-69294137D01*
X157352890Y-69365501D01*
X157384499Y-69382396D01*
X157563666Y-69436746D01*
X157563668Y-69436747D01*
X157580374Y-69438392D01*
X157750000Y-69455099D01*
X157936331Y-69436747D01*
X158115501Y-69382396D01*
X158280625Y-69294136D01*
X158425357Y-69175357D01*
X158544136Y-69030625D01*
X158632396Y-68865501D01*
X158686747Y-68686331D01*
X158705099Y-68500000D01*
X158686747Y-68313669D01*
X158632396Y-68134499D01*
X158632395Y-68134497D01*
X158544137Y-67969376D01*
X158544135Y-67969373D01*
X158425357Y-67824642D01*
X158280626Y-67705864D01*
X158280623Y-67705862D01*
X158115502Y-67617604D01*
X157936333Y-67563253D01*
X157936331Y-67563252D01*
X157750000Y-67544901D01*
X157563668Y-67563252D01*
X157563666Y-67563253D01*
X157384497Y-67617604D01*
X157219376Y-67705862D01*
X157219373Y-67705864D01*
X157074642Y-67824642D01*
X156955864Y-67969373D01*
X156955862Y-67969376D01*
X156867604Y-68134497D01*
X156813253Y-68313666D01*
X156813252Y-68313668D01*
X156794901Y-68500000D01*
X144955099Y-68500000D01*
X144936747Y-68313669D01*
X144882396Y-68134499D01*
X144882395Y-68134497D01*
X144794137Y-67969376D01*
X144794135Y-67969373D01*
X144675357Y-67824642D01*
X144530626Y-67705864D01*
X144530623Y-67705862D01*
X144365502Y-67617604D01*
X144186333Y-67563253D01*
X144186331Y-67563252D01*
X144000000Y-67544901D01*
X143813668Y-67563252D01*
X143813666Y-67563253D01*
X143634497Y-67617604D01*
X143469376Y-67705862D01*
X143469373Y-67705864D01*
X143324642Y-67824642D01*
X143205864Y-67969373D01*
X143205862Y-67969376D01*
X143117604Y-68134497D01*
X143063253Y-68313666D01*
X143063252Y-68313668D01*
X143044901Y-68500000D01*
X116810506Y-68500000D01*
X116794137Y-68469376D01*
X116794135Y-68469373D01*
X116675357Y-68324642D01*
X116530626Y-68205864D01*
X116530623Y-68205862D01*
X116365502Y-68117604D01*
X116186333Y-68063253D01*
X116186331Y-68063252D01*
X116000000Y-68044901D01*
X115813668Y-68063252D01*
X115813666Y-68063253D01*
X115634497Y-68117604D01*
X115469376Y-68205862D01*
X115469373Y-68205864D01*
X115324642Y-68324642D01*
X115205864Y-68469373D01*
X115205862Y-68469376D01*
X115117604Y-68634497D01*
X115063253Y-68813666D01*
X115063252Y-68813668D01*
X115044901Y-69000000D01*
X113300500Y-69000000D01*
X113300500Y-67397600D01*
X173844540Y-67397600D01*
X173864326Y-67585856D01*
X173864327Y-67585859D01*
X173922818Y-67765877D01*
X173922821Y-67765884D01*
X174017467Y-67929816D01*
X174121090Y-68044901D01*
X174144129Y-68070488D01*
X174297265Y-68181748D01*
X174297270Y-68181751D01*
X174470192Y-68258742D01*
X174470197Y-68258744D01*
X174655354Y-68298100D01*
X174655355Y-68298100D01*
X174844644Y-68298100D01*
X174844646Y-68298100D01*
X175029803Y-68258744D01*
X175202730Y-68181751D01*
X175355871Y-68070488D01*
X175482533Y-67929816D01*
X175577179Y-67765884D01*
X175635674Y-67585856D01*
X175655460Y-67397600D01*
X175635674Y-67209344D01*
X175577179Y-67029316D01*
X175482533Y-66865384D01*
X175355871Y-66724712D01*
X175321416Y-66699679D01*
X175202734Y-66613451D01*
X175202729Y-66613448D01*
X175029807Y-66536457D01*
X175029802Y-66536455D01*
X174884001Y-66505465D01*
X174844646Y-66497100D01*
X174655354Y-66497100D01*
X174622897Y-66503998D01*
X174470197Y-66536455D01*
X174470192Y-66536457D01*
X174297270Y-66613448D01*
X174297265Y-66613451D01*
X174144129Y-66724711D01*
X174017466Y-66865385D01*
X173922821Y-67029315D01*
X173922818Y-67029322D01*
X173864327Y-67209340D01*
X173864326Y-67209344D01*
X173844540Y-67397600D01*
X113300500Y-67397600D01*
X113300500Y-64749999D01*
X174129341Y-64749999D01*
X174129341Y-64750000D01*
X174149936Y-64985403D01*
X174149938Y-64985413D01*
X174211094Y-65213655D01*
X174211096Y-65213659D01*
X174211097Y-65213663D01*
X174295499Y-65394663D01*
X174310965Y-65427830D01*
X174310967Y-65427834D01*
X174354082Y-65489408D01*
X174446505Y-65621401D01*
X174613599Y-65788495D01*
X174710384Y-65856265D01*
X174807165Y-65924032D01*
X174807167Y-65924033D01*
X174807170Y-65924035D01*
X175021337Y-66023903D01*
X175249592Y-66085063D01*
X175426034Y-66100500D01*
X175484999Y-66105659D01*
X175485000Y-66105659D01*
X175485001Y-66105659D01*
X175543966Y-66100500D01*
X175720408Y-66085063D01*
X175948663Y-66023903D01*
X176162830Y-65924035D01*
X176356401Y-65788495D01*
X176478329Y-65666566D01*
X176539648Y-65633084D01*
X176609340Y-65638068D01*
X176665274Y-65679939D01*
X176682189Y-65710917D01*
X176731202Y-65842328D01*
X176731206Y-65842335D01*
X176817452Y-65957544D01*
X176817455Y-65957547D01*
X176932664Y-66043793D01*
X176932671Y-66043797D01*
X177067517Y-66094091D01*
X177067516Y-66094091D01*
X177074444Y-66094835D01*
X177127127Y-66100500D01*
X178922872Y-66100499D01*
X178982483Y-66094091D01*
X179117331Y-66043796D01*
X179232546Y-65957546D01*
X179318796Y-65842331D01*
X179369091Y-65707483D01*
X179375500Y-65647873D01*
X179375500Y-65469999D01*
X182150321Y-65469999D01*
X182150321Y-65470000D01*
X182169002Y-65683527D01*
X182169004Y-65683537D01*
X182224477Y-65890567D01*
X182224481Y-65890576D01*
X182315066Y-66084838D01*
X182315067Y-66084840D01*
X182354825Y-66141620D01*
X182354825Y-66141621D01*
X182958274Y-65538171D01*
X182983963Y-65634044D01*
X183039916Y-65730956D01*
X183119044Y-65810084D01*
X183215956Y-65866037D01*
X183311827Y-65891725D01*
X182708377Y-66495173D01*
X182765161Y-66534933D01*
X182959423Y-66625518D01*
X182959432Y-66625522D01*
X183166462Y-66680995D01*
X183166472Y-66680997D01*
X183379999Y-66699679D01*
X183380001Y-66699679D01*
X183593527Y-66680997D01*
X183593537Y-66680995D01*
X183800567Y-66625522D01*
X183800576Y-66625518D01*
X183994839Y-66534933D01*
X184051621Y-66495173D01*
X183448173Y-65891725D01*
X183544044Y-65866037D01*
X183640956Y-65810084D01*
X183720084Y-65730956D01*
X183776037Y-65634044D01*
X183801725Y-65538172D01*
X184405173Y-66141621D01*
X184444933Y-66084839D01*
X184535518Y-65890576D01*
X184535522Y-65890567D01*
X184590995Y-65683537D01*
X184590997Y-65683527D01*
X184609679Y-65470000D01*
X184609679Y-65469999D01*
X184590997Y-65256472D01*
X184590996Y-65256465D01*
X184557861Y-65132804D01*
X184559524Y-65062954D01*
X184598686Y-65005091D01*
X184662915Y-64977587D01*
X184731817Y-64989173D01*
X184783517Y-65036172D01*
X184788120Y-65044414D01*
X184789194Y-65046522D01*
X184890967Y-65186602D01*
X185013397Y-65309032D01*
X185153475Y-65410804D01*
X185307742Y-65489408D01*
X185472415Y-65542914D01*
X185643429Y-65570000D01*
X185830000Y-65570000D01*
X185830000Y-64770000D01*
X186330000Y-64770000D01*
X186330000Y-65570000D01*
X186516571Y-65570000D01*
X186687584Y-65542914D01*
X186852257Y-65489408D01*
X187006524Y-65410804D01*
X187146602Y-65309032D01*
X187269032Y-65186602D01*
X187370804Y-65046524D01*
X187449408Y-64892255D01*
X187502914Y-64727584D01*
X187504115Y-64720000D01*
X186596988Y-64720000D01*
X186614205Y-64710060D01*
X186670060Y-64654205D01*
X186709556Y-64585796D01*
X186730000Y-64509496D01*
X186730000Y-64430504D01*
X186709556Y-64354204D01*
X186670060Y-64285795D01*
X186614205Y-64229940D01*
X186596988Y-64220000D01*
X187504115Y-64220000D01*
X187504115Y-64219999D01*
X187502914Y-64212415D01*
X187449408Y-64047744D01*
X187370804Y-63893475D01*
X187269032Y-63753397D01*
X187146602Y-63630967D01*
X187006524Y-63529195D01*
X186852257Y-63450591D01*
X186687584Y-63397085D01*
X186516571Y-63370000D01*
X186330000Y-63370000D01*
X186330000Y-64170000D01*
X185830000Y-64170000D01*
X185830000Y-63370000D01*
X185643429Y-63370000D01*
X185472415Y-63397085D01*
X185307742Y-63450591D01*
X185153475Y-63529195D01*
X185013397Y-63630967D01*
X184890967Y-63753397D01*
X184789195Y-63893475D01*
X184710591Y-64047744D01*
X184657085Y-64212415D01*
X184655884Y-64219999D01*
X184655885Y-64220000D01*
X185563012Y-64220000D01*
X185545795Y-64229940D01*
X185489940Y-64285795D01*
X185450444Y-64354204D01*
X185430000Y-64430504D01*
X185430000Y-64509496D01*
X185450444Y-64585796D01*
X185489940Y-64654205D01*
X185545795Y-64710060D01*
X185563012Y-64720000D01*
X184655885Y-64720000D01*
X184657085Y-64727585D01*
X184657086Y-64727589D01*
X184661714Y-64741830D01*
X184663709Y-64811671D01*
X184627628Y-64871504D01*
X184564927Y-64902331D01*
X184495513Y-64894366D01*
X184442207Y-64851269D01*
X184405173Y-64798378D01*
X183801725Y-65401826D01*
X183776037Y-65305956D01*
X183720084Y-65209044D01*
X183640956Y-65129916D01*
X183544044Y-65073963D01*
X183448171Y-65048274D01*
X184051621Y-64444825D01*
X183994840Y-64405067D01*
X183994838Y-64405066D01*
X183800576Y-64314481D01*
X183800567Y-64314477D01*
X183593537Y-64259004D01*
X183593527Y-64259002D01*
X183380001Y-64240321D01*
X183379999Y-64240321D01*
X183166472Y-64259002D01*
X183166462Y-64259004D01*
X182959432Y-64314477D01*
X182959423Y-64314481D01*
X182765158Y-64405068D01*
X182708378Y-64444824D01*
X183311828Y-65048274D01*
X183215956Y-65073963D01*
X183119044Y-65129916D01*
X183039916Y-65209044D01*
X182983963Y-65305956D01*
X182958274Y-65401828D01*
X182354824Y-64798378D01*
X182315068Y-64855158D01*
X182224481Y-65049423D01*
X182224477Y-65049432D01*
X182169004Y-65256462D01*
X182169002Y-65256472D01*
X182150321Y-65469999D01*
X179375500Y-65469999D01*
X179375499Y-63852128D01*
X179369091Y-63792517D01*
X179367810Y-63789083D01*
X179318797Y-63657671D01*
X179318793Y-63657664D01*
X179232547Y-63542455D01*
X179232544Y-63542452D01*
X179117335Y-63456206D01*
X179117328Y-63456202D01*
X178982482Y-63405908D01*
X178982483Y-63405908D01*
X178922883Y-63399501D01*
X178922881Y-63399500D01*
X178922873Y-63399500D01*
X178922864Y-63399500D01*
X177127129Y-63399500D01*
X177127123Y-63399501D01*
X177067516Y-63405908D01*
X176932671Y-63456202D01*
X176932664Y-63456206D01*
X176817455Y-63542452D01*
X176817452Y-63542455D01*
X176731206Y-63657664D01*
X176731203Y-63657669D01*
X176682189Y-63789083D01*
X176640317Y-63845016D01*
X176574853Y-63869433D01*
X176506580Y-63854581D01*
X176478326Y-63833430D01*
X176356402Y-63711506D01*
X176356395Y-63711501D01*
X176162834Y-63575967D01*
X176162830Y-63575965D01*
X176162828Y-63575964D01*
X175948663Y-63476097D01*
X175948659Y-63476096D01*
X175948655Y-63476094D01*
X175720413Y-63414938D01*
X175720403Y-63414936D01*
X175485001Y-63394341D01*
X175484999Y-63394341D01*
X175249596Y-63414936D01*
X175249586Y-63414938D01*
X175021344Y-63476094D01*
X175021335Y-63476098D01*
X174807171Y-63575964D01*
X174807169Y-63575965D01*
X174613597Y-63711505D01*
X174446505Y-63878597D01*
X174310965Y-64072169D01*
X174310964Y-64072171D01*
X174211098Y-64286335D01*
X174211094Y-64286344D01*
X174149938Y-64514586D01*
X174149936Y-64514596D01*
X174129341Y-64749999D01*
X113300500Y-64749999D01*
X113300500Y-63375000D01*
X118419901Y-63375000D01*
X118438252Y-63561331D01*
X118438253Y-63561333D01*
X118492604Y-63740502D01*
X118580862Y-63905623D01*
X118580864Y-63905626D01*
X118699642Y-64050357D01*
X118844373Y-64169135D01*
X118844376Y-64169137D01*
X119009497Y-64257395D01*
X119009499Y-64257396D01*
X119188666Y-64311746D01*
X119188668Y-64311747D01*
X119205374Y-64313392D01*
X119375000Y-64330099D01*
X119561331Y-64311747D01*
X119740501Y-64257396D01*
X119905625Y-64169136D01*
X120050357Y-64050357D01*
X120169136Y-63905625D01*
X120257396Y-63740501D01*
X120311747Y-63561331D01*
X120330099Y-63375000D01*
X120311747Y-63188669D01*
X120257396Y-63009499D01*
X120169136Y-62844375D01*
X120169135Y-62844373D01*
X120050357Y-62699642D01*
X119905626Y-62580864D01*
X119905623Y-62580862D01*
X119740502Y-62492604D01*
X119561333Y-62438253D01*
X119561331Y-62438252D01*
X119375000Y-62419901D01*
X119188668Y-62438252D01*
X119188666Y-62438253D01*
X119009497Y-62492604D01*
X118844376Y-62580862D01*
X118844373Y-62580864D01*
X118699642Y-62699642D01*
X118580864Y-62844373D01*
X118580862Y-62844376D01*
X118492604Y-63009497D01*
X118438253Y-63188666D01*
X118438252Y-63188668D01*
X118419901Y-63375000D01*
X113300500Y-63375000D01*
X113300500Y-62000000D01*
X124294901Y-62000000D01*
X124313252Y-62186331D01*
X124313253Y-62186333D01*
X124367604Y-62365502D01*
X124455862Y-62530623D01*
X124455864Y-62530626D01*
X124574642Y-62675357D01*
X124719373Y-62794135D01*
X124719376Y-62794137D01*
X124813362Y-62844373D01*
X124884499Y-62882396D01*
X125063666Y-62936746D01*
X125063668Y-62936747D01*
X125080374Y-62938392D01*
X125250000Y-62955099D01*
X125436331Y-62936747D01*
X125615501Y-62882396D01*
X125780625Y-62794136D01*
X125925357Y-62675357D01*
X126044136Y-62530625D01*
X126132396Y-62365501D01*
X126186747Y-62186331D01*
X126205099Y-62000000D01*
X126186747Y-61813669D01*
X126132396Y-61634499D01*
X126044136Y-61469375D01*
X126044135Y-61469373D01*
X125925357Y-61324642D01*
X125780626Y-61205864D01*
X125780623Y-61205862D01*
X125615502Y-61117604D01*
X125436333Y-61063253D01*
X125436331Y-61063252D01*
X125250000Y-61044901D01*
X125063668Y-61063252D01*
X125063666Y-61063253D01*
X124884497Y-61117604D01*
X124719376Y-61205862D01*
X124719373Y-61205864D01*
X124574642Y-61324642D01*
X124455864Y-61469373D01*
X124455862Y-61469376D01*
X124367604Y-61634497D01*
X124313253Y-61813666D01*
X124313252Y-61813668D01*
X124294901Y-62000000D01*
X113300500Y-62000000D01*
X113300500Y-59602135D01*
X181399500Y-59602135D01*
X181399500Y-61397870D01*
X181399501Y-61397876D01*
X181405908Y-61457483D01*
X181456202Y-61592328D01*
X181456206Y-61592335D01*
X181542452Y-61707544D01*
X181542455Y-61707547D01*
X181657664Y-61793793D01*
X181657671Y-61793797D01*
X181792517Y-61844091D01*
X181792516Y-61844091D01*
X181799444Y-61844835D01*
X181852127Y-61850500D01*
X183647872Y-61850499D01*
X183707483Y-61844091D01*
X183842331Y-61793796D01*
X183957546Y-61707546D01*
X184043796Y-61592331D01*
X184093002Y-61460401D01*
X184134872Y-61404468D01*
X184200337Y-61380050D01*
X184268610Y-61394901D01*
X184296865Y-61416053D01*
X184418917Y-61538105D01*
X184612421Y-61673600D01*
X184826507Y-61773429D01*
X184826516Y-61773433D01*
X185040000Y-61830634D01*
X185040000Y-60933012D01*
X185097007Y-60965925D01*
X185224174Y-61000000D01*
X185355826Y-61000000D01*
X185482993Y-60965925D01*
X185540000Y-60933012D01*
X185540000Y-61830633D01*
X185753483Y-61773433D01*
X185753492Y-61773429D01*
X185967578Y-61673600D01*
X186161082Y-61538105D01*
X186328105Y-61371082D01*
X186463600Y-61177578D01*
X186563429Y-60963492D01*
X186563432Y-60963486D01*
X186620636Y-60750000D01*
X185723012Y-60750000D01*
X185755925Y-60692993D01*
X185790000Y-60565826D01*
X185790000Y-60434174D01*
X185755925Y-60307007D01*
X185723012Y-60250000D01*
X186620636Y-60250000D01*
X186620635Y-60249999D01*
X186563432Y-60036513D01*
X186563429Y-60036507D01*
X186463600Y-59822422D01*
X186463599Y-59822420D01*
X186328113Y-59628926D01*
X186328108Y-59628920D01*
X186161082Y-59461894D01*
X185967578Y-59326399D01*
X185753492Y-59226570D01*
X185753486Y-59226567D01*
X185540000Y-59169364D01*
X185540000Y-60066988D01*
X185482993Y-60034075D01*
X185355826Y-60000000D01*
X185224174Y-60000000D01*
X185097007Y-60034075D01*
X185040000Y-60066988D01*
X185040000Y-59169364D01*
X185039999Y-59169364D01*
X184826513Y-59226567D01*
X184826507Y-59226570D01*
X184612422Y-59326399D01*
X184612420Y-59326400D01*
X184418926Y-59461886D01*
X184296865Y-59583947D01*
X184235542Y-59617431D01*
X184165850Y-59612447D01*
X184109917Y-59570575D01*
X184093002Y-59539598D01*
X184043797Y-59407671D01*
X184043793Y-59407664D01*
X183957547Y-59292455D01*
X183957544Y-59292452D01*
X183842335Y-59206206D01*
X183842328Y-59206202D01*
X183707482Y-59155908D01*
X183707483Y-59155908D01*
X183647883Y-59149501D01*
X183647881Y-59149500D01*
X183647873Y-59149500D01*
X183647864Y-59149500D01*
X181852129Y-59149500D01*
X181852123Y-59149501D01*
X181792516Y-59155908D01*
X181657671Y-59206202D01*
X181657664Y-59206206D01*
X181542455Y-59292452D01*
X181542452Y-59292455D01*
X181456206Y-59407664D01*
X181456202Y-59407671D01*
X181405908Y-59542517D01*
X181399501Y-59602116D01*
X181399500Y-59602135D01*
X113300500Y-59602135D01*
X113300500Y-54039996D01*
X114274916Y-54039996D01*
X114274916Y-54040003D01*
X114295235Y-54388869D01*
X114295236Y-54388880D01*
X114355914Y-54733002D01*
X114355916Y-54733011D01*
X114456145Y-55067800D01*
X114594555Y-55388670D01*
X114594561Y-55388683D01*
X114769289Y-55691322D01*
X114977972Y-55971631D01*
X114977976Y-55971636D01*
X114986147Y-55980297D01*
X114986148Y-55980298D01*
X116236320Y-54730125D01*
X116326554Y-54854320D01*
X116465680Y-54993446D01*
X116589873Y-55083678D01*
X115342817Y-56330733D01*
X115342818Y-56330734D01*
X115485480Y-56450442D01*
X115777461Y-56642480D01*
X116089739Y-56799314D01*
X116089745Y-56799316D01*
X116418130Y-56918838D01*
X116418133Y-56918839D01*
X116758171Y-56999429D01*
X117105276Y-57039999D01*
X117105277Y-57040000D01*
X117454723Y-57040000D01*
X117454723Y-57039999D01*
X117801827Y-56999429D01*
X117801829Y-56999429D01*
X118141866Y-56918839D01*
X118141869Y-56918838D01*
X118470254Y-56799316D01*
X118470260Y-56799314D01*
X118782538Y-56642480D01*
X119074515Y-56450445D01*
X119217180Y-56330734D01*
X119217181Y-56330733D01*
X117970126Y-55083678D01*
X118094320Y-54993446D01*
X118233446Y-54854320D01*
X118323679Y-54730126D01*
X119573850Y-55980297D01*
X119582032Y-55971625D01*
X119790710Y-55691322D01*
X119965438Y-55388683D01*
X119965444Y-55388670D01*
X120103854Y-55067800D01*
X120204083Y-54733011D01*
X120204085Y-54733002D01*
X120264763Y-54388880D01*
X120264764Y-54388869D01*
X120285084Y-54040003D01*
X120285084Y-54039996D01*
X120282754Y-53999996D01*
X181244916Y-53999996D01*
X181244916Y-54000003D01*
X181265235Y-54348869D01*
X181265236Y-54348880D01*
X181325914Y-54693002D01*
X181325916Y-54693011D01*
X181426145Y-55027800D01*
X181564555Y-55348670D01*
X181564561Y-55348683D01*
X181739289Y-55651322D01*
X181947972Y-55931631D01*
X181947976Y-55931636D01*
X181956147Y-55940297D01*
X181956148Y-55940298D01*
X183206320Y-54690125D01*
X183296554Y-54814320D01*
X183435680Y-54953446D01*
X183559873Y-55043678D01*
X182312817Y-56290733D01*
X182312818Y-56290734D01*
X182455480Y-56410442D01*
X182747461Y-56602480D01*
X183059739Y-56759314D01*
X183059745Y-56759316D01*
X183388130Y-56878838D01*
X183388133Y-56878839D01*
X183728171Y-56959429D01*
X184075276Y-56999999D01*
X184075277Y-57000000D01*
X184424723Y-57000000D01*
X184424723Y-56999999D01*
X184771827Y-56959429D01*
X184771829Y-56959429D01*
X185111866Y-56878839D01*
X185111869Y-56878838D01*
X185440254Y-56759316D01*
X185440260Y-56759314D01*
X185752538Y-56602480D01*
X186044515Y-56410445D01*
X186187180Y-56290734D01*
X186187181Y-56290733D01*
X184940126Y-55043678D01*
X185064320Y-54953446D01*
X185203446Y-54814320D01*
X185293679Y-54690126D01*
X186543850Y-55940297D01*
X186552032Y-55931625D01*
X186760710Y-55651322D01*
X186935438Y-55348683D01*
X186935444Y-55348670D01*
X187073854Y-55027800D01*
X187174083Y-54693011D01*
X187174085Y-54693002D01*
X187234763Y-54348880D01*
X187234764Y-54348869D01*
X187255084Y-54000003D01*
X187255084Y-53999996D01*
X187234764Y-53651130D01*
X187234763Y-53651119D01*
X187174085Y-53306997D01*
X187174083Y-53306988D01*
X187073854Y-52972199D01*
X186935444Y-52651329D01*
X186935438Y-52651316D01*
X186760710Y-52348677D01*
X186552029Y-52068371D01*
X186543850Y-52059701D01*
X186543850Y-52059700D01*
X185293678Y-53309872D01*
X185203446Y-53185680D01*
X185064320Y-53046554D01*
X184940125Y-52956320D01*
X186187181Y-51709265D01*
X186187180Y-51709264D01*
X186044519Y-51589557D01*
X185752538Y-51397519D01*
X185440260Y-51240685D01*
X185440254Y-51240683D01*
X185111869Y-51121161D01*
X185111866Y-51121160D01*
X184771828Y-51040570D01*
X184424723Y-51000000D01*
X184075277Y-51000000D01*
X183728172Y-51040570D01*
X183728170Y-51040570D01*
X183388133Y-51121160D01*
X183388130Y-51121161D01*
X183059745Y-51240683D01*
X183059739Y-51240685D01*
X182747461Y-51397519D01*
X182455485Y-51589554D01*
X182312817Y-51709264D01*
X183559874Y-52956320D01*
X183435680Y-53046554D01*
X183296554Y-53185680D01*
X183206320Y-53309873D01*
X181956148Y-52059701D01*
X181956146Y-52059701D01*
X181947973Y-52068366D01*
X181739289Y-52348677D01*
X181564561Y-52651316D01*
X181564555Y-52651329D01*
X181426145Y-52972199D01*
X181325916Y-53306988D01*
X181325914Y-53306997D01*
X181265236Y-53651119D01*
X181265235Y-53651130D01*
X181244916Y-53999996D01*
X120282754Y-53999996D01*
X120264764Y-53691130D01*
X120264763Y-53691119D01*
X120204085Y-53346997D01*
X120204083Y-53346988D01*
X120103854Y-53012199D01*
X119965444Y-52691329D01*
X119965438Y-52691316D01*
X119790710Y-52388677D01*
X119582029Y-52108371D01*
X119573850Y-52099701D01*
X119573850Y-52099700D01*
X118323678Y-53349872D01*
X118233446Y-53225680D01*
X118094320Y-53086554D01*
X117970125Y-52996320D01*
X119217181Y-51749265D01*
X119217180Y-51749264D01*
X119074519Y-51629557D01*
X118782538Y-51437519D01*
X118470260Y-51280685D01*
X118470254Y-51280683D01*
X118141869Y-51161161D01*
X118141866Y-51161160D01*
X117801828Y-51080570D01*
X117454723Y-51040000D01*
X117105277Y-51040000D01*
X116758172Y-51080570D01*
X116758170Y-51080570D01*
X116418133Y-51161160D01*
X116418130Y-51161161D01*
X116089745Y-51280683D01*
X116089739Y-51280685D01*
X115777461Y-51437519D01*
X115485485Y-51629554D01*
X115342817Y-51749264D01*
X116589874Y-52996320D01*
X116465680Y-53086554D01*
X116326554Y-53225680D01*
X116236320Y-53349873D01*
X114986148Y-52099701D01*
X114986146Y-52099701D01*
X114977973Y-52108366D01*
X114769289Y-52388677D01*
X114594561Y-52691316D01*
X114594555Y-52691329D01*
X114456145Y-53012199D01*
X114355916Y-53346988D01*
X114355914Y-53346997D01*
X114295236Y-53691119D01*
X114295235Y-53691130D01*
X114274916Y-54039996D01*
X113300500Y-54039996D01*
X113300500Y-50174500D01*
X113320185Y-50107461D01*
X113372989Y-50061706D01*
X113424500Y-50050500D01*
X188075500Y-50050500D01*
X188142539Y-50070185D01*
G37*
G04 #@! TD.AperFunction*
M02*
