M48
; DRILL file {KiCad 8.0.8} date 2025-04-08T21:39:32+0530
; FORMAT={-:-/ absolute / inch / decimal}
; #@! TF.CreationDate,2025-04-08T21:39:32+05:30
; #@! TF.GenerationSoftware,Kicad,Pcbnew,8.0.8
; #@! TF.FileFunction,MixedPlating,1,4
FMAT,2
INCH
; #@! TA.AperFunction,Plated,PTH,ViaDrill
T1C0.0157
; #@! TA.AperFunction,Plated,PTH,ComponentDrill
T2C0.0197
; #@! TA.AperFunction,Plated,PTH,ComponentDrill
T3C0.0236
; #@! TA.AperFunction,Plated,PTH,ComponentDrill
T4C0.0315
; #@! TA.AperFunction,Plated,PTH,ComponentDrill
T5C0.0335
; #@! TA.AperFunction,Plated,PTH,ComponentDrill
T6C0.0354
; #@! TA.AperFunction,Plated,PTH,ComponentDrill
T7C0.0394
; #@! TA.AperFunction,Plated,PTH,ComponentDrill
T8C0.0394
; #@! TA.AperFunction,Plated,PTH,ComponentDrill
T9C0.0630
; #@! TA.AperFunction,Plated,PTH,ComponentDrill
T10C0.0984
; #@! TA.AperFunction,Plated,PTH,ComponentDrill
T11C0.1280
; #@! TA.AperFunction,NonPlated,NPTH,ComponentDrill
T12C0.0394
%
G90
G05
T1
X4.5276Y-2.4902
X4.5374Y-4.6063
X4.5374Y-4.7047
X4.5669Y-2.7165
X4.5768Y-2.8346
X4.5768Y-2.9331
X4.6063Y-4.6063
X4.6063Y-4.7047
X4.6654Y-2.9429
X4.6673Y-3.3976
X4.6673Y-4.4961
X4.6949Y-4.6063
X4.6949Y-4.7047
X4.6998Y-2.4951
X4.7047Y-2.2736
X4.7047Y-2.4311
X4.7736Y-4.6063
X4.7736Y-4.7047
X4.7933Y-4.8031
X4.813Y-4.9016
X4.813Y-5.0
X4.8524Y-3.3661
X4.8524Y-4.6063
X4.8524Y-4.7047
X4.8622Y-2.0276
X4.8622Y-4.2421
X4.8819Y-3.9272
X4.8819Y-4.0846
X4.8819Y-4.3209
X4.8917Y-3.618
X4.8917Y-4.8031
X4.8917Y-4.9016
X4.9016Y-5.0
X4.9045Y-2.9203
X4.9172Y-3.5827
X4.9311Y-2.4409
X4.9409Y-2.0276
X4.9409Y-4.4094
X4.9508Y-3.5433
X5.0Y-3.508
X5.0098Y-3.7697
X5.0197Y-2.0276
X5.0295Y-2.2047
X5.0394Y-3.2874
X5.0394Y-3.5827
X5.0689Y-3.622
X5.0689Y-3.7106
X5.0787Y-3.1004
X5.0787Y-3.3563
X5.1083Y-2.0276
X5.1083Y-2.4016
X5.1083Y-3.6811
X5.128Y-2.4803
X5.1575Y-2.9134
X5.1575Y-3.0118
X5.1575Y-3.9173
X5.1772Y-2.0276
X5.1772Y-3.6024
X5.1969Y-3.8878
X5.2362Y-3.8583
X5.2613Y-3.2436
X5.2657Y-2.0276
X5.2756Y-3.3366
X5.2854Y-3.8386
X5.3199Y-3.814
X5.3248Y-3.4055
X5.3346Y-2.0276
X5.3543Y-3.7795
X5.374Y-2.4902
X5.4035Y-3.7402
X5.4232Y-2.0276
X5.4232Y-3.9173
X5.4232Y-3.9764
X5.4331Y-3.5728
X5.4331Y-3.7894
X5.4331Y-3.8386
X5.4431Y-3.8788
X5.4724Y-3.6024
X5.502Y-2.0276
X5.502Y-2.4803
X5.502Y-3.6319
X5.5118Y-3.1201
X5.5315Y-3.6713
X5.5512Y-2.815
X5.5512Y-2.9134
X5.561Y-3.7008
X5.5807Y-2.0276
X5.5906Y-3.7598
X5.6004Y-2.4803
X5.6693Y-2.0276
X5.6693Y-2.6969
X5.6791Y-2.4016
X5.6791Y-2.4803
X5.7087Y-3.3661
X5.748Y-2.0276
X5.748Y-3.249
X5.748Y-3.4646
X5.8268Y-2.0276
X5.8268Y-3.4646
X5.8424Y-3.7795
X5.8484Y-4.0551
X5.8636Y-3.3758
X5.8661Y-3.8878
X5.8689Y-3.6741
X5.876Y-4.5079
X5.8858Y-4.7638
X5.8957Y-3.248
X5.9154Y-2.0276
X5.9154Y-4.5472
X5.9252Y-3.6319
X5.9252Y-4.4783
X5.9449Y-4.3601
X5.9547Y-2.5
X5.9744Y-3.3268
X5.9744Y-4.0551
X5.9843Y-2.0276
X5.9843Y-3.6417
X5.9843Y-4.0059
X5.9843Y-4.9114
X5.9843Y-5.0098
X5.9941Y-4.439
X5.9957Y-3.7898
X5.9969Y-3.8587
X5.9988Y-3.922
X6.0138Y-3.248
X6.0138Y-4.6707
X6.0236Y-3.6516
X6.0433Y-4.0827
X6.0531Y-4.9114
X6.0531Y-5.0098
X6.0664Y-3.8563
X6.0677Y-3.789
X6.0728Y-2.0276
X6.074Y-3.9181
X6.0827Y-2.4803
X6.0901Y-4.311
X6.1122Y-2.9429
X6.122Y-3.248
X6.122Y-3.4128
X6.122Y-3.6309
X6.1346Y-3.7898
X6.137Y-3.8539
X6.1378Y-3.9079
X6.1417Y-2.0276
X6.1417Y-4.9114
X6.1417Y-5.0098
X6.1516Y-3.36
X6.1713Y-3.2283
X6.1811Y-2.4803
X6.19Y-3.4
X6.1909Y-4.7146
X6.1988Y-4.0768
X6.2106Y-2.6969
X6.2205Y-3.9843
X6.2205Y-4.2343
X6.2205Y-4.9114
X6.2205Y-5.0098
X6.2209Y-3.3484
X6.2303Y-2.0276
X6.25Y-4.2835
X6.2697Y-2.4016
X6.2697Y-2.4803
X6.2835Y-3.8976
X6.2972Y-3.6516
X6.2972Y-3.7402
X6.2992Y-4.9114
X6.2992Y-5.0098
X6.3091Y-2.0276
X6.3189Y-4.4193
X6.3386Y-3.3957
X6.3583Y-3.1496
X6.3681Y-4.1987
X6.3878Y-2.0276
X6.4075Y-3.3465
X6.4284Y-3.7551
X6.4309Y-3.8658
X6.437Y-2.9134
X6.437Y-4.8327
X6.4469Y-4.124
X6.4567Y-2.0276
X6.4567Y-3.3169
X6.4665Y-4.7047
X6.4665Y-4.7933
X6.4862Y-3.8189
X6.4862Y-4.439
X6.4961Y-3.248
X6.5059Y-3.3071
X6.5157Y-4.5374
X6.5222Y-3.7436
X6.5256Y-2.5
X6.5354Y-2.0276
X6.5354Y-2.9134
X6.5404Y-3.4596
X6.5453Y-3.7992
X6.5453Y-3.4981
X6.55Y-3.4
X6.5551Y-3.6811
X6.6035Y-3.1756
X6.6043Y-4.4488
X6.6142Y-2.0276
X6.624Y-3.6417
X6.624Y-4.311
X6.6437Y-3.7697
X6.6437Y-4.3996
X6.665Y-3.345
X6.6709Y-3.2567
X6.6831Y-3.6417
X6.6929Y-2.4902
X6.7028Y-2.0276
X6.7028Y-3.4843
X6.7166Y-3.4272
X6.7323Y-3.1004
X6.7323Y-3.3366
X6.7323Y-3.5433
X6.752Y-3.6417
X6.7717Y-2.0276
X6.8012Y-2.4902
X6.8248Y-2.9272
X6.8602Y-2.0276
X6.8799Y-2.6534
X6.9291Y-2.0276
X7.0177Y-2.0276
X7.0669Y-4.8917
X7.0669Y-4.9902
X7.0866Y-2.8051
X7.0965Y-2.0276
X7.1082Y-2.5984
X7.2028Y-2.9154
X7.2028Y-3.6791
X7.3524Y-4.5965
X7.3524Y-4.6949
T2
X6.2303Y-3.0236
X6.2303Y-3.0984
T4
X6.6634Y-4.6752
X6.6634Y-4.9409
X6.7421Y-4.6752
X6.7421Y-4.9409
X6.8209Y-4.6752
X6.8209Y-4.9409
X6.8996Y-4.6752
X6.8996Y-4.9409
T5
X7.2197Y-2.5776
X7.2197Y-2.7744
T6
X6.7382Y-3.9016
X6.7382Y-4.0
X6.7382Y-4.0984
X6.7382Y-4.2008
X6.8386Y-3.9488
X6.8386Y-4.0512
X6.8386Y-4.1496
X6.8386Y-4.248
T7
X5.1618Y-4.7933
X5.1618Y-4.8933
X5.2618Y-4.7933
X5.2618Y-4.8933
X5.3618Y-4.7933
X5.3618Y-4.8933
X5.4618Y-4.7933
X5.4618Y-4.8933
X5.5618Y-4.7933
X5.5618Y-4.8933
X5.6618Y-4.7933
X5.6618Y-4.8933
X5.7618Y-4.7933
X5.7618Y-4.8933
X6.9089Y-2.5492
X7.0089Y-2.5492
X7.1949Y-2.3819
X7.2949Y-2.3819
T8
X7.2854Y-3.813
X7.2854Y-3.9134
X7.2854Y-4.2362
X7.2854Y-4.3366
T9
X6.9705Y-3.7697
X6.9705Y-4.376
T10
X4.6173Y-2.1276
X4.626Y-4.9213
X7.2539Y-2.126
X7.2539Y-4.9213
T11
X7.0867Y-3.8504
X7.0886Y-4.2992
T12
X7.2185Y-3.1772
X7.2185Y-3.4913
T3
G00X7.3122Y-2.5382
M15
G01X7.3398Y-2.5382
M16
G05
G00X7.3398Y-2.8138
M15
G01X7.3122Y-2.8138
M16
G05
M30
