G04 #@! TF.GenerationSoftware,KiCad,Pcbnew,8.0.8*
G04 #@! TF.CreationDate,2025-04-08T21:38:23+05:30*
G04 #@! TF.ProjectId,kaage_pi,6b616167-655f-4706-992e-6b696361645f,rev?*
G04 #@! TF.SameCoordinates,Original*
G04 #@! TF.FileFunction,Paste,Bot*
G04 #@! TF.FilePolarity,Positive*
%FSLAX46Y46*%
G04 Gerber Fmt 4.6, Leading zero omitted, Abs format (unit mm)*
G04 Created by KiCad (PCBNEW 8.0.8) date 2025-04-08 21:38:23*
%MOMM*%
%LPD*%
G01*
G04 APERTURE LIST*
G04 Aperture macros list*
%AMRoundRect*
0 Rectangle with rounded corners*
0 $1 Rounding radius*
0 $2 $3 $4 $5 $6 $7 $8 $9 X,Y pos of 4 corners*
0 Add a 4 corners polygon primitive as box body*
4,1,4,$2,$3,$4,$5,$6,$7,$8,$9,$2,$3,0*
0 Add four circle primitives for the rounded corners*
1,1,$1+$1,$2,$3*
1,1,$1+$1,$4,$5*
1,1,$1+$1,$6,$7*
1,1,$1+$1,$8,$9*
0 Add four rect primitives between the rounded corners*
20,1,$1+$1,$2,$3,$4,$5,0*
20,1,$1+$1,$4,$5,$6,$7,0*
20,1,$1+$1,$6,$7,$8,$9,0*
20,1,$1+$1,$8,$9,$2,$3,0*%
G04 Aperture macros list end*
%ADD10RoundRect,0.225000X0.225000X0.250000X-0.225000X0.250000X-0.225000X-0.250000X0.225000X-0.250000X0*%
%ADD11RoundRect,0.200000X-0.275000X0.200000X-0.275000X-0.200000X0.275000X-0.200000X0.275000X0.200000X0*%
%ADD12RoundRect,0.225000X0.225000X0.375000X-0.225000X0.375000X-0.225000X-0.375000X0.225000X-0.375000X0*%
%ADD13RoundRect,0.200000X0.275000X-0.200000X0.275000X0.200000X-0.275000X0.200000X-0.275000X-0.200000X0*%
%ADD14RoundRect,0.250000X0.250000X0.475000X-0.250000X0.475000X-0.250000X-0.475000X0.250000X-0.475000X0*%
%ADD15RoundRect,0.250000X0.475000X-0.250000X0.475000X0.250000X-0.475000X0.250000X-0.475000X-0.250000X0*%
%ADD16RoundRect,0.200000X0.200000X0.275000X-0.200000X0.275000X-0.200000X-0.275000X0.200000X-0.275000X0*%
%ADD17RoundRect,0.250000X-0.475000X0.250000X-0.475000X-0.250000X0.475000X-0.250000X0.475000X0.250000X0*%
%ADD18R,1.300000X0.300000*%
%ADD19R,2.200000X1.800000*%
%ADD20RoundRect,0.250000X-0.250000X-0.475000X0.250000X-0.475000X0.250000X0.475000X-0.250000X0.475000X0*%
%ADD21R,1.200000X1.400000*%
%ADD22RoundRect,0.225000X0.250000X-0.225000X0.250000X0.225000X-0.250000X0.225000X-0.250000X-0.225000X0*%
%ADD23RoundRect,0.225000X-0.225000X-0.250000X0.225000X-0.250000X0.225000X0.250000X-0.225000X0.250000X0*%
%ADD24RoundRect,0.225000X-0.250000X0.225000X-0.250000X-0.225000X0.250000X-0.225000X0.250000X0.225000X0*%
%ADD25RoundRect,0.200000X-0.200000X-0.275000X0.200000X-0.275000X0.200000X0.275000X-0.200000X0.275000X0*%
%ADD26RoundRect,0.250000X0.450000X-0.262500X0.450000X0.262500X-0.450000X0.262500X-0.450000X-0.262500X0*%
%ADD27RoundRect,0.218750X0.218750X0.256250X-0.218750X0.256250X-0.218750X-0.256250X0.218750X-0.256250X0*%
%ADD28RoundRect,0.250000X0.650000X-0.325000X0.650000X0.325000X-0.650000X0.325000X-0.650000X-0.325000X0*%
G04 APERTURE END LIST*
D10*
X160275000Y-97000000D03*
X158725000Y-97000000D03*
D11*
X165000000Y-90175000D03*
X165000000Y-91825000D03*
D12*
X125400000Y-66250000D03*
X122100000Y-66250000D03*
D13*
X167500000Y-100575000D03*
X167500000Y-98925000D03*
D14*
X159950000Y-92750000D03*
X158050000Y-92750000D03*
D15*
X149750000Y-90450000D03*
X149750000Y-88550000D03*
D16*
X177575000Y-89500000D03*
X175925000Y-89500000D03*
D17*
X125500000Y-108600000D03*
X125500000Y-110500000D03*
X156000000Y-108550000D03*
X156000000Y-110450000D03*
D18*
X121800000Y-110000000D03*
X121800000Y-109500000D03*
X121800000Y-109000000D03*
X121800000Y-108500000D03*
X121800000Y-108000000D03*
X121800000Y-107500000D03*
X121800000Y-107000000D03*
X121800000Y-106500000D03*
X121800000Y-106000000D03*
X121800000Y-105500000D03*
X121800000Y-105000000D03*
X121800000Y-104500000D03*
X121800000Y-104000000D03*
X121800000Y-103500000D03*
X121800000Y-103000000D03*
X121800000Y-102500000D03*
X121800000Y-102000000D03*
X121800000Y-101500000D03*
X121800000Y-101000000D03*
X121800000Y-100500000D03*
X121800000Y-100000000D03*
X121800000Y-99500000D03*
X121800000Y-99000000D03*
X121800000Y-98500000D03*
X121800000Y-98000000D03*
X121800000Y-97500000D03*
X121800000Y-97000000D03*
X121800000Y-96500000D03*
X121800000Y-96000000D03*
X121800000Y-95500000D03*
X121800000Y-95000000D03*
X121800000Y-94500000D03*
X121800000Y-94000000D03*
X121800000Y-93500000D03*
X121800000Y-93000000D03*
X121800000Y-92500000D03*
X121800000Y-92000000D03*
X121800000Y-91500000D03*
X121800000Y-91000000D03*
X121800000Y-90500000D03*
D19*
X118550000Y-111900000D03*
X118550000Y-88600000D03*
D14*
X157450000Y-103750000D03*
X155550000Y-103750000D03*
D10*
X158300000Y-74750000D03*
X156750000Y-74750000D03*
D20*
X148550000Y-103000000D03*
X150450000Y-103000000D03*
D21*
X159600000Y-99000000D03*
X159600000Y-101200000D03*
X157900000Y-101200000D03*
X157900000Y-99000000D03*
D13*
X167500000Y-108075000D03*
X167500000Y-106425000D03*
D17*
X151250000Y-107750000D03*
X151250000Y-109650000D03*
D22*
X156250000Y-101500000D03*
X156250000Y-99950000D03*
D23*
X158225000Y-81000000D03*
X159775000Y-81000000D03*
D22*
X131500000Y-94775000D03*
X131500000Y-93225000D03*
D24*
X153000000Y-107975000D03*
X153000000Y-109525000D03*
D17*
X158750000Y-108800000D03*
X158750000Y-110700000D03*
D25*
X173100000Y-69250000D03*
X174750000Y-69250000D03*
D11*
X167500000Y-103425000D03*
X167500000Y-105075000D03*
D10*
X169275000Y-94000000D03*
X167725000Y-94000000D03*
D24*
X155500000Y-92225000D03*
X155500000Y-93775000D03*
D26*
X160750000Y-78662500D03*
X160750000Y-76837500D03*
D16*
X150575000Y-84500000D03*
X148925000Y-84500000D03*
D17*
X149000000Y-98750000D03*
X149000000Y-100650000D03*
D15*
X153500000Y-103700000D03*
X153500000Y-101800000D03*
D27*
X165787500Y-106500000D03*
X164212500Y-106500000D03*
D16*
X177825000Y-87500000D03*
X176175000Y-87500000D03*
D11*
X168500000Y-86425000D03*
X168500000Y-88075000D03*
D15*
X152000000Y-90450000D03*
X152000000Y-88550000D03*
D24*
X149250000Y-107975000D03*
X149250000Y-109525000D03*
D28*
X127750000Y-60475000D03*
X127750000Y-57525000D03*
D14*
X159950000Y-95000000D03*
X158050000Y-95000000D03*
D23*
X148475000Y-96000000D03*
X150025000Y-96000000D03*
D17*
X147000000Y-98800000D03*
X147000000Y-100700000D03*
D16*
X117900000Y-63250000D03*
X116250000Y-63250000D03*
D22*
X167500000Y-97275000D03*
X167500000Y-95725000D03*
D17*
X161000000Y-108800000D03*
X161000000Y-110700000D03*
D20*
X167800000Y-90750000D03*
X169700000Y-90750000D03*
D17*
X163000000Y-108050000D03*
X163000000Y-109950000D03*
D11*
X167750000Y-82175000D03*
X167750000Y-83825000D03*
M02*
